<svg width="78" height="77" viewBox="0 0 78 77" fill="none" xmlns="http://www.w3.org/2000/svg">
<g opacity="0.1">
<circle cx="38.9893" cy="38.4998" r="38.5" fill="#5A9B48"/>
</g>
<circle cx="38.9895" cy="38.4998" r="25.093" stroke="#5A9B48" stroke-width="4"/>
<path fill-rule="evenodd" clip-rule="evenodd" d="M50.8895 27.7896C50.2231 27.7896 49.6281 28.0514 49.1997 28.4798L34.2292 43.4741L28.7789 37.9999C28.3505 37.5715 27.7554 37.3097 27.089 37.3097C25.78 37.3097 24.709 38.3808 24.709 39.6898C24.709 40.3562 24.9708 40.9512 25.3992 41.3796L32.5393 48.5197C32.9677 48.9482 33.5628 49.21 34.2292 49.21C34.8956 49.21 35.4906 48.9482 35.919 48.5197L52.5793 31.8594C53.0077 31.431 53.2695 30.836 53.2695 30.1696C53.2695 28.8606 52.1985 27.7896 50.8895 27.7896Z" fill="#5A9B48"/>
</svg>
