<svg width="21" height="28" viewBox="0 0 21 28" fill="none" xmlns="http://www.w3.org/2000/svg">
<path opacity="0.7" fill-rule="evenodd" clip-rule="evenodd" d="M19.0164 16.3055L10.5549 27.877L2.09332 16.3055H2.13168C1.13175 14.7627 0.554688 12.9111 0.554688 10.9056C0.554688 5.35119 5.01629 0.876953 10.5547 0.876953C16.0931 0.876953 20.5547 5.35133 20.5547 10.9056C20.5544 12.9114 19.9776 14.7627 19.0161 16.3055H19.0164ZM10.5549 7.04828C8.4394 7.04828 6.7087 8.78393 6.7087 10.9054C6.7087 13.0269 8.4394 14.7626 10.5549 14.7626C12.6703 14.7626 14.401 13.0269 14.401 10.9054C14.401 8.78393 12.6703 7.04828 10.5549 7.04828Z" fill="#104651"/>
</svg>
