<svg width="32" height="32" viewBox="0 0 32 32" fill="none" xmlns="http://www.w3.org/2000/svg">
<rect x="31.4492" y="31.5571" width="31" height="31" rx="5" transform="rotate(-180 31.4492 31.5571)" fill="#5A9B48"/>
<path d="M13.8032 9.01251C14.5085 8.68859 17.3903 8.68859 18.0957 9.01251V10.2673H19.2117L19.2118 8.44518C19.2118 7.66601 18.1142 7.271 15.9497 7.271C13.7851 7.271 12.6875 7.66601 12.6875 8.44518V10.2673H13.8033L13.8032 9.01251Z" fill="white"/>
<path d="M23.1443 10.78L15.9488 10.7813L8.75431 10.78C8.57486 10.7803 8.40268 10.8518 8.27595 10.9789C8.14909 11.1059 8.07787 11.2782 8.07813 11.4576V17.4536L8.69711 17.9504V22.0194L15.5753 22.0193C15.5821 21.9618 15.5943 21.905 15.6123 21.8499C15.6901 21.6046 15.8617 21.4 16.0899 21.281C16.3181 21.1619 16.5841 21.138 16.8298 21.2145C16.7369 21.0591 16.64 20.896 16.5407 20.7279H9.99084V18.261C10.592 18.3616 11.3115 18.4393 12.0909 18.4992C13.2549 18.5858 14.4199 18.6329 15.5856 18.6406H15.5855C15.6326 18.3902 15.7791 18.1696 15.9917 18.0293C16.1942 17.8829 16.4477 17.8258 16.6934 17.8714C16.9391 17.9168 17.1554 18.0609 17.2921 18.27C17.3724 18.3871 17.45 18.503 17.5264 18.6189C18.2867 18.5959 19.0471 18.5561 19.8074 18.4992C20.5868 18.4393 21.3063 18.3616 21.9075 18.261L21.9073 20.7279H21.7774C21.9404 21.0603 22.1442 21.4831 22.3977 22.0192H23.2013V17.9502L23.8203 17.4535L23.8202 11.4578C23.8204 11.2783 23.7492 11.106 23.6224 10.979C23.4956 10.8519 23.3235 10.7805 23.144 10.7802L23.1443 10.78Z" fill="white"/>
<path d="M20.7792 19.6876C20.6537 19.5414 20.4615 19.4704 20.271 19.5C20.0805 19.5296 19.919 19.6557 19.8439 19.8332C19.7197 19.7379 19.5612 19.6994 19.4072 19.7268C19.253 19.7542 19.1177 19.8452 19.034 19.9776L18.9832 19.9772C18.6843 19.497 18.0301 19.8528 18.1145 20.2961C17.7644 19.6838 17.3868 19.0839 16.9773 18.4849C16.5633 17.8786 15.6433 18.5072 16.0566 19.113C16.6918 20.2816 17.8162 22.1023 17.8162 22.1023L16.7978 21.6111L16.7979 21.611C16.6434 21.5364 16.4642 21.5326 16.3066 21.6005C16.1491 21.6684 16.0289 21.8014 15.9769 21.9649C15.939 22.0844 15.94 22.213 15.9799 22.332C16.0198 22.451 16.0965 22.5541 16.1989 22.6266C16.8538 23.0904 18.2535 24.0855 18.945 24.6056C19.1274 24.7428 19.3456 24.8243 19.5734 24.8403C19.8011 24.8562 20.0286 24.8059 20.2283 24.6955L21.6445 23.9132C21.9075 23.7678 22.1054 23.528 22.1981 23.2421C22.2906 22.9563 22.2711 22.6459 22.1432 22.3739C21.6656 21.3584 20.9685 19.9083 20.7791 19.6876L20.7792 19.6876Z" fill="white"/>
</svg>
