<svg width="16" height="19" viewBox="0 0 16 19" fill="none" xmlns="http://www.w3.org/2000/svg">
<path d="M5.77586 2.4129C6.48113 2.08898 9.36297 2.08898 10.0684 2.4129V3.66772H11.1843L11.1845 1.84557C11.1845 1.0664 10.0869 0.671387 7.92231 0.671387C5.75776 0.671387 4.66016 1.0664 4.66016 1.84557V3.66772H5.77599L5.77586 2.4129Z" fill="white"/>
<path d="M15.1169 4.18042L7.92145 4.1817L0.726962 4.18042C0.547518 4.18068 0.375341 4.25215 0.248604 4.37926C0.121743 4.50625 0.0505271 4.67855 0.0507819 4.85798V10.854L0.669762 11.3508V15.4198L7.54798 15.4197C7.55474 15.3622 7.56699 15.3054 7.58499 15.2503C7.66271 15.005 7.83437 14.8004 8.06256 14.6813C8.29075 14.5623 8.55673 14.5384 8.80243 14.6148C8.70952 14.4595 8.61265 14.2964 8.51336 14.1283H1.9635V11.6614C2.56461 11.762 3.28419 11.8397 4.06359 11.8996C5.22755 11.9862 6.39252 12.0333 7.55824 12.041H7.55811C7.60521 11.7906 7.75172 11.57 7.96436 11.4296C8.16691 11.2833 8.42037 11.2262 8.66607 11.2718C8.91175 11.3172 9.12809 11.4613 9.26476 11.6703C9.34504 11.7875 9.42263 11.9034 9.49908 12.0193C10.2594 11.9963 11.0198 11.9565 11.78 11.8996C12.5594 11.8397 13.279 11.762 13.8801 11.6614L13.88 14.1283H13.7501C13.913 14.4607 14.1169 14.8835 14.3703 15.4196H15.174V11.3506L15.793 10.8539L15.7928 4.85815C15.7931 4.67871 15.7219 4.5064 15.595 4.37943C15.4683 4.25232 15.2961 4.18085 15.1167 4.18059L15.1169 4.18042Z" fill="white"/>
<path d="M12.7518 13.088C12.6264 12.9418 12.4342 12.8708 12.2436 12.9004C12.0532 12.93 11.8916 13.0561 11.8166 13.2336C11.6924 13.1383 11.5339 13.0998 11.3799 13.1272C11.2257 13.1546 11.0904 13.2456 11.0067 13.378L10.9559 13.3776C10.657 12.8973 10.0027 13.2532 10.0871 13.6965C9.73702 13.0842 9.35949 12.4843 8.94994 11.8852C8.53592 11.279 7.61599 11.9076 8.02923 12.5134C8.66442 13.682 9.78881 15.5027 9.78881 15.5027L8.77047 15.0115L8.7706 15.0113C8.61604 14.9368 8.43685 14.933 8.27924 15.0009C8.12175 15.0688 8.00152 15.2018 7.94957 15.3652C7.91167 15.4848 7.91269 15.6134 7.95251 15.7324C7.99246 15.8514 8.06916 15.9545 8.17152 16.027C8.8265 16.4908 10.2262 17.4859 10.9177 18.006C11.1001 18.1432 11.3183 18.2247 11.5461 18.2407C11.7738 18.2566 12.0012 18.2063 12.201 18.0959L13.6171 17.3136C13.8801 17.1682 14.0781 16.9284 14.1707 16.6425C14.2633 16.3566 14.2437 16.0463 14.1159 15.7743C13.6383 14.7588 12.9412 13.3087 12.7518 13.088L12.7518 13.088Z" fill="white"/>
</svg>
