<svg width="15" height="14" viewBox="0 0 15 14" fill="none" xmlns="http://www.w3.org/2000/svg">
<path fill-rule="evenodd" clip-rule="evenodd" d="M13.5496 11.2104L12.5414 13.0097H2.44944L1.44938 11.2103L13.5496 11.2104ZM8.76655 8.98047C8.76655 9.0433 8.74435 9.1036 8.69994 9.16114C8.65529 9.20726 8.59996 9.22996 8.53322 9.22996H6.46653C6.39991 9.22996 6.34457 9.20702 6.29981 9.16114C6.25552 9.1036 6.2332 9.0433 6.2332 8.98047V5.8808H5.11665C5.02783 5.8808 4.96098 5.8378 4.9168 5.75167C4.87786 5.67696 4.88332 5.59672 4.93343 5.5106L7.31658 2.06652C7.36123 1.99769 7.42493 1.96321 7.50829 1.96321C7.59165 1.96321 7.6528 1.99745 7.69163 2.06652L10.0667 5.5106C10.1169 5.59672 10.1223 5.67708 10.0836 5.75167C10.0447 5.8378 9.97784 5.8808 9.88344 5.8808H8.76656L8.76655 8.98047ZM12.7832 13.9827L12.8333 13.9997C12.9444 13.9997 13.0443 13.9624 13.1332 13.8882C13.222 13.8134 13.2803 13.7217 13.3084 13.6122L14.8083 10.9176C14.9358 10.7512 15 10.5761 15 10.3923V0.800853C15 0.576828 14.9222 0.384519 14.7667 0.223661C14.6222 0.0747108 14.4388 0 14.2166 0H0.783215C0.560929 0 0.377589 0.0747147 0.233095 0.223661C0.0777739 0.384383 0 0.576803 0 0.800853V10.3923C0 10.5988 0.0608037 10.774 0.183339 10.9177L1.75004 13.7332C1.83886 13.9111 1.98058 14 2.17483 14H12.7832L12.7832 13.9827Z" fill="#104651"/>
</svg>