<svg width="16" height="14" viewBox="0 0 16 14" fill="none" xmlns="http://www.w3.org/2000/svg">
<path fill-rule="evenodd" clip-rule="evenodd" d="M13.9207 2.78961L12.9125 0.990323H2.82053L1.82047 2.78973L13.9207 2.78961ZM9.13765 5.01953C9.13765 4.9567 9.11544 4.8964 9.07103 4.83886C9.02639 4.79274 8.97105 4.77004 8.90432 4.77004H6.83762C6.771 4.77004 6.71566 4.79298 6.67091 4.83886C6.62661 4.8964 6.60429 4.9567 6.60429 5.01953V8.1192H5.48774C5.39892 8.1192 5.33207 8.1622 5.2879 8.24833C5.24895 8.32304 5.25441 8.40328 5.30452 8.4894L7.68768 11.9335C7.73232 12.0023 7.79603 12.0368 7.87938 12.0368C7.96274 12.0368 8.02389 12.0026 8.06272 11.9335L10.4378 8.4894C10.488 8.40328 10.4934 8.32292 10.4547 8.24833C10.4158 8.1622 10.3489 8.1192 10.2545 8.1192H9.13766L9.13765 5.01953ZM13.1543 0.0173092L13.2044 0.000252205C13.3154 0.000252205 13.4154 0.0376081 13.5042 0.111843C13.5931 0.186558 13.6514 0.278331 13.6794 0.38776L15.1794 3.08241C15.3069 3.24878 15.3711 3.4239 15.3711 3.6077V13.1991C15.3711 13.4232 15.2933 13.6155 15.1378 13.7763C14.9933 13.9253 14.8099 14 14.5876 14H1.15431C0.932023 14 0.748683 13.9253 0.604189 13.7763C0.448868 13.6156 0.371094 13.4232 0.371094 13.1991V3.6077C0.371094 3.40121 0.431897 3.22596 0.554433 3.08229L2.12113 0.266787C2.20995 0.088888 2.35167 0 2.54592 0H13.1543L13.1543 0.0173092Z" fill="white"/>
</svg>
