<svg width="15" height="14" viewBox="0 0 15 14" fill="none" xmlns="http://www.w3.org/2000/svg">
<path fill-rule="evenodd" clip-rule="evenodd" d="M13.5496 2.78961L12.5414 0.990323H2.44944L1.44938 2.78973L13.5496 2.78961ZM8.76655 5.01953C8.76655 4.9567 8.74435 4.8964 8.69994 4.83886C8.65529 4.79274 8.59996 4.77004 8.53322 4.77004H6.46653C6.39991 4.77004 6.34457 4.79298 6.29981 4.83886C6.25552 4.8964 6.2332 4.9567 6.2332 5.01953V8.1192H5.11665C5.02783 8.1192 4.96098 8.1622 4.9168 8.24833C4.87786 8.32304 4.88332 8.40328 4.93343 8.4894L7.31658 11.9335C7.36123 12.0023 7.42493 12.0368 7.50829 12.0368C7.59165 12.0368 7.6528 12.0026 7.69163 11.9335L10.0667 8.4894C10.1169 8.40328 10.1223 8.32292 10.0836 8.24833C10.0447 8.1622 9.97784 8.1192 9.88344 8.1192H8.76656L8.76655 5.01953ZM12.7832 0.0173092L12.8333 0.000252205C12.9444 0.000252205 13.0443 0.0376081 13.1332 0.111843C13.222 0.186558 13.2803 0.278331 13.3084 0.38776L14.8083 3.08241C14.9358 3.24878 15 3.4239 15 3.6077V13.1991C15 13.4232 14.9222 13.6155 14.7667 13.7763C14.6222 13.9253 14.4388 14 14.2166 14H0.783215C0.560929 14 0.377589 13.9253 0.233095 13.7763C0.0777739 13.6156 0 13.4232 0 13.1991V3.6077C0 3.40121 0.0608037 3.22596 0.183339 3.08229L1.75004 0.266787C1.83886 0.088888 1.98058 0 2.17483 0H12.7832L12.7832 0.0173092Z" fill="#104651"/>
</svg>
