<svg width="8" height="15" viewBox="0 0 8 15" fill="none" xmlns="http://www.w3.org/2000/svg">
<path opacity="0.8" d="M7.67469 0.831849C7.46585 0.619429 7.18264 0.5 6.88724 0.5C6.59185 0.5 6.30861 0.619429 6.0998 0.831849L0.32541 6.70381C0.117094 6.91583 0 7.20349 0 7.50323C0 7.80298 0.117097 8.09063 0.32541 8.30266L6.10179 14.1746C6.38347 14.4567 6.79129 14.5656 7.17313 14.4608C7.55481 14.3559 7.85319 14.053 7.95683 13.6651C8.06047 13.2771 7.95373 12.8623 7.67658 12.5756L2.68489 7.50337L7.67459 2.43111C7.88291 2.21895 8 1.93142 8 1.63168C8 1.33179 7.8829 1.04428 7.67459 0.832118L7.67469 0.831849Z" fill="#104651"/>
</svg>
