<svg width="7" height="17" viewBox="0 0 7 17" fill="none" xmlns="http://www.w3.org/2000/svg">
<path d="M6.4163 4.85694H4.66636V16.3928C4.66636 16.5539 4.60491 16.7083 4.49551 16.8222C4.38612 16.936 4.23776 17 4.08305 17H2.91643C2.76172 17 2.61336 16.936 2.50396 16.8222C2.39457 16.7083 2.33311 16.5539 2.33311 16.3928V4.85694H0.583178C0.0658534 4.85694 -0.195543 4.20274 0.171579 3.82061L3.08814 0.177691C3.19752 0.0639142 3.34583 -3.09228e-09 3.50047 -3.09228e-09C3.65511 -3.09228e-09 3.80342 0.0639142 3.9128 0.177691L6.82936 3.82061C7.19466 4.20198 6.93472 4.85694 6.4163 4.85694Z" fill="#104651"/>
</svg>
