  <svg
                                                                   width="25"
                                                                        height="25"
                                                                        viewBox="0 0 25 25"
                                                                        fill="none"
                                                                        xmlns="http://www.w3.org/2000/svg"
                                                                    >
                                                                        <path
                                                                            d="M18.5335 5.96855C18.5335 7.45198 17.9442 8.87476 16.8953 9.92373C15.8463 10.9727 14.4235 11.562 12.9401 11.562C11.4567 11.562 10.0339 10.9727 8.98492 9.92373C7.93596 8.87476 7.34666 7.45198 7.34666 5.96855C7.34666 4.48513 7.93596 3.06234 8.98492 2.01338C10.0339 0.964419 11.4567 0.375122 12.9401 0.375122C14.423 0.376906 15.8447 0.966747 16.8933 2.01534C17.9419 3.06394 18.5317 4.48568 18.5335 5.96855ZM10.5429 17.9545C10.5436 16.2056 11.1221 14.5062 12.1885 13.1199C11.3059 13.0265 10.4486 12.7691 9.66038 12.3608H4.83907C3.7655 12.4081 2.75439 12.8782 2.02646 13.6688C1.29859 14.4591 0.912937 15.5056 0.954168 16.5793C0.956487 18.6387 1.77551 20.6129 3.23168 22.0691C4.68802 23.5252 6.6623 24.3442 8.72146 24.3466H13.7597C12.7624 23.6053 11.9525 22.6412 11.394 21.5313C10.8356 20.4215 10.5441 19.1965 10.5429 17.9541L10.5429 17.9545ZM23.5767 14.041L14.6199 22.9978C16.271 24.2854 18.4488 24.681 20.4472 24.0566C22.4455 23.4322 24.0108 21.867 24.6353 19.8685C25.2597 17.8699 24.8641 15.6921 23.5765 14.0413L23.5767 14.041ZM22.4468 12.9111C20.7957 11.6235 18.618 11.2279 16.6196 11.8523C14.6213 12.4768 13.0559 14.0419 12.4315 16.0405C11.807 18.039 12.2026 20.2168 13.4903 21.8677L22.4468 12.9111Z"
                                                                            fill="#FE5253"
                                                                        />
                                                                    </svg>