<svg width="16" height="20" viewBox="0 0 16 20" fill="none" xmlns="http://www.w3.org/2000/svg">
<path d="M7.43001 8.05313C9.45383 8.05313 11.0944 6.41257 11.0944 4.38875C11.0944 2.36492 9.45383 0.724365 7.43001 0.724365C5.40618 0.724365 3.76562 2.36492 3.76562 4.38875C3.76562 6.41257 5.40618 8.05313 7.43001 8.05313Z" fill="#104651"/>
<path fill-rule="evenodd" clip-rule="evenodd" d="M12.9246 13.3209C11.2802 13.3209 9.94727 14.6539 9.94727 16.2982C9.94727 17.9426 11.2802 19.2756 12.9246 19.2756C14.569 19.2756 15.9019 17.9426 15.9019 16.2982C15.9019 14.6539 14.569 13.3209 12.9246 13.3209ZM11.3214 16.2982C11.3214 15.4128 12.0392 14.695 12.9246 14.695C13.1135 14.695 13.2949 14.7277 13.4634 14.7878L11.4142 16.8369C11.3541 16.6685 11.3214 16.4873 11.3214 16.2982ZM12.3858 17.8087L14.4349 15.7594C14.495 15.9278 14.5277 16.1093 14.5277 16.2982C14.5277 17.1838 13.8099 17.9015 12.9245 17.9015C12.7356 17.9015 12.5542 17.8687 12.3858 17.8087Z" fill="#104651"/>
<path d="M7.4286 19.0465C0.0996094 19.0465 0.0996094 17.2008 0.0996094 14.924C0.0996094 12.6473 3.38087 10.8015 7.4286 10.8015C9.59935 10.8015 11.5495 11.3323 12.8915 12.1758C10.6302 12.1939 8.80277 14.0326 8.80277 16.2983C8.80277 17.3167 9.17192 18.2485 9.78368 18.9678C9.09766 19.0196 8.3169 19.0466 7.4286 19.0466V19.0465Z" fill="#104651"/>
</svg>
