<svg width="24" height="28" viewBox="0 0 24 28" fill="none" xmlns="http://www.w3.org/2000/svg">
<path d="M8.20464 25.9377C7.90997 26.7332 8.32239 27.617 9.11782 27.9115C9.29455 27.9705 9.47127 27.9999 9.64799 27.9999C10.2667 27.9999 10.8559 27.6168 11.0915 26.9983L12.6822 22.6678L10.6201 19.3684L8.20464 25.9377Z" fill="#D3983E"/>
<path d="M22.2562 10.9136L19.9584 10.4128C19.6343 10.3538 19.3396 10.1477 19.1042 9.88266C16.7474 6.93674 16.3056 6.76003 15.6868 6.73042L13.4774 6.58308C13.1533 6.55369 12.7703 6.55369 9.64765 7.76134C8.88177 8.05602 8.2041 8.5862 7.73291 9.26371L6.02427 11.7678C5.90653 11.9152 5.84755 12.0919 5.81796 12.2686C5.31718 12.2097 4.8164 12.416 4.5217 12.8874L4.22703 13.3588L3.19585 12.74C2.87179 12.5337 2.42996 12.6517 2.22369 12.9757L0.10263 16.4518C-0.103685 16.7759 0.0142678 17.2177 0.33833 17.424L5.78881 20.6941C6.11287 20.9005 6.5547 20.7825 6.76097 20.4584L8.88203 16.9824C9.08834 16.6583 8.97039 16.2165 8.64633 16.0102L7.61515 15.3915L7.90983 14.9201C8.17491 14.5076 8.14553 14.0069 7.90983 13.5945C8.02758 13.5061 8.14553 13.3881 8.26328 13.2704L9.97191 10.7663C10.1486 10.5306 10.3843 10.3538 10.6494 10.2361C10.9145 10.1477 11.1208 10.0594 11.3565 9.97101L10.3253 13.5061C9.97187 14.6843 10.1486 15.9806 10.8261 17.0118L17.1304 27.2636C17.425 27.735 17.9258 28 18.4266 28C18.7213 28 18.9864 27.9411 19.2515 27.7643C19.988 27.3225 20.1943 26.3798 19.7523 25.6433L14.6263 17.4242L16.7474 11.2377C16.8357 11.3555 16.9241 11.444 17.0125 11.5618C17.6016 12.3277 18.456 12.8284 19.3986 13.0347L21.6964 13.5355C22.4329 13.6829 23.14 13.2409 23.2871 12.5044C23.4347 11.7974 22.9633 11.0904 22.2561 10.9137L22.2562 10.9136ZM6.99632 14.3899L6.70165 14.8613L5.14031 13.9185L5.43499 13.4471C5.49396 13.3293 5.67069 13.2998 5.78843 13.3587L6.93734 14.0658C7.02571 14.0952 7.0551 14.2719 6.99632 14.3899Z" fill="#D3983E"/>
<path d="M15.3291 0.0177441C16.9627 0.195699 18.1426 1.66436 17.9647 3.29782C17.7868 4.93149 16.3181 6.11138 14.6846 5.93347C13.051 5.75552 11.8711 4.28707 12.049 2.6534C12.227 1.01994 13.6954 -0.160169 15.3291 0.0177441Z" fill="#D3983E"/>
</svg>
