<svg width="19" height="11" viewBox="0 0 19 11" fill="none" xmlns="http://www.w3.org/2000/svg">
<path d="M1.26553 0.545315C0.992419 0.806355 0.838867 1.16037 0.838867 1.52962C0.838867 1.89886 0.992419 2.25291 1.26553 2.51392L8.81519 9.73191C9.08779 9.9923 9.45764 10.1387 9.84302 10.1387C10.2284 10.1387 10.5982 9.9923 10.8709 9.73191L18.4205 2.51143C18.7833 2.15934 18.9233 1.64956 18.7885 1.17226C18.6535 0.695156 18.2641 0.322187 17.7654 0.192634C17.2665 0.0630836 16.7333 0.196515 16.3647 0.542951L9.8432 6.78256L3.32172 0.545434C3.04894 0.285039 2.67927 0.138672 2.29388 0.138672C1.90832 0.138672 1.53866 0.285044 1.26588 0.545434L1.26553 0.545315Z" fill="#104651"/>
</svg>
