<svg width="27" height="27" viewBox="0 0 27 27" fill="none" xmlns="http://www.w3.org/2000/svg">
<path d="M2.29473 9.62575C2.88737 7.91079 3.86266 6.37458 5.11938 5.11862C6.31728 3.92011 7.77312 2.97679 9.39329 2.37751V3.34258C8.02023 3.89815 6.78506 4.72402 5.75533 5.75533C4.66697 6.84353 3.8072 8.15929 3.2522 9.6259L2.29468 9.6261L2.29473 9.62575ZM9.39365 24.6208C7.77327 24.0223 6.31764 23.0791 5.11974 21.8803C3.86281 20.6239 2.88793 19.0887 2.29508 17.3737H3.2526C3.80694 18.8395 4.66733 20.1561 5.75574 21.2437C6.78547 22.2747 8.02085 23.1005 9.3937 23.6558L9.39365 24.6208ZM24.7053 17.3737C24.112 19.0887 23.1373 20.6243 21.881 21.8803C20.6819 23.0788 19.2279 24.0221 17.6065 24.6208V23.6557C18.9789 23.1007 20.2147 22.2749 21.245 21.2435C22.3326 20.156 23.1932 18.8396 23.7476 17.3736L24.7053 17.3734V17.3737ZM13.9504 18.5509V20.1505H13.0499V18.5509H13.9504ZM9.93165 11.8406H17.0684V12.7285H9.93165V11.8406ZM18.1168 10.8787V13.0493H19.6871V13.9498H18.1168V18.5509H16.0519V13.1785H10.9487V18.5509H8.88328V13.9496H7.31356V13.0491H8.88328V10.8785L11.1921 9.66283L13.5003 8.44777L13.0501 8.68535V6.84773H13.9506V8.68535L13.5003 8.44777L15.8085 9.66283L18.1168 10.8787ZM6.41359 12.6034V16.4732H0V12.6034H6.41359ZM0.00102157 11.7033H6.41257L5.6226 10.5252L0.791141 10.5254L0.00102157 11.7033ZM16.7063 23.1287V26.9993H10.2947V23.1287H16.7063ZM10.2958 22.2293H16.7058L15.9164 21.0507H11.0853L10.2958 22.2293ZM27 12.6035V16.4733H20.5874V12.6035H27ZM20.5885 11.7034H26.9995L26.2095 10.5253L21.3779 10.5255L20.5885 11.7034ZM16.7065 2.0782V5.94816H10.2949V2.0782H16.7065ZM10.296 1.17813H16.706L15.9166 0L11.0855 0.000199483L10.296 1.17813ZM17.6068 2.37761C19.2284 2.97663 20.6823 3.9198 21.8813 5.11872C23.1377 6.37509 24.1124 7.9109 24.7056 9.62585H23.7481C23.1938 8.15944 22.3328 6.84287 21.2456 5.75528C20.2153 4.72432 18.9793 3.89851 17.607 3.34253L17.6068 2.37761Z" fill="#F37467"/>
</svg>
