<svg width="31" height="30" viewBox="0 0 31 30" fill="none" xmlns="http://www.w3.org/2000/svg">
<circle cx="15.5116" cy="14.8172" r="14.7821" fill="#EDEDEF"/>
<path d="M19.9856 8.35657H11.0656C10.8678 8.35685 10.6764 8.42652 10.5247 8.55342C10.373 8.68033 10.2706 8.85644 10.2354 9.05107H20.8159C20.7806 8.85644 20.6783 8.68033 20.5265 8.55342C20.3748 8.42652 20.1834 8.35685 19.9856 8.35657Z" fill="#104651"/>
<path d="M9.05518 13.0409H12.0324L12.2647 11.5273L12.5945 9.37842H10.1792L9.05518 13.0409Z" fill="#104651"/>
<path d="M18.4414 9.37842L18.9912 13.0409H21.9695L20.87 9.37842H18.4414Z" fill="#104651"/>
<path d="M12.3633 13.0412H15.3482V9.37842H12.9253L12.5841 11.6031L12.3633 13.0412Z" fill="#104651"/>
<path d="M18.1109 9.37842H15.6753V13.0412H18.6607L18.1109 9.37842Z" fill="#104651"/>
<path d="M8.99707 14.7636C8.9975 15.1563 9.15371 15.5329 9.43142 15.8107C9.70914 16.0884 10.0857 16.2447 10.4785 16.2452H10.5273C10.9201 16.2447 11.2966 16.0885 11.5744 15.8107C11.8522 15.5329 12.0084 15.1564 12.0089 14.7636V13.3683H8.99707V14.7636Z" fill="#104651"/>
<path d="M12.3364 14.7636C12.3369 15.1563 12.4931 15.5329 12.7708 15.8107C13.0485 16.0884 13.425 16.2447 13.8178 16.2452H13.8666C14.2594 16.2447 14.636 16.0885 14.9138 15.8107C15.1915 15.5329 15.3478 15.1564 15.3483 14.7636V13.3683H12.3364V14.7636Z" fill="#104651"/>
<path d="M15.6753 14.7635V14.7744C15.6757 15.1672 15.8318 15.5438 16.1096 15.8216C16.3873 16.0994 16.7639 16.2557 17.1567 16.2561H17.2055C17.5983 16.2557 17.9749 16.0994 18.2527 15.8216C18.5305 15.5439 18.6867 15.1673 18.6872 14.7744V13.3792H15.6753V14.7635Z" fill="#104651"/>
<path d="M20.4956 16.246H20.5444C20.9373 16.2455 21.314 16.0892 21.5918 15.8112C21.8696 15.5333 22.0257 15.1565 22.026 14.7636V13.3683H19.0142V14.7636C19.0144 15.1565 19.1705 15.5333 19.4482 15.8112C19.726 16.0892 20.1026 16.2455 20.4956 16.246Z" fill="#104651"/>
<path d="M18.8528 15.5052C18.7073 15.8265 18.4723 16.0992 18.1759 16.2904C17.8795 16.4816 17.5342 16.5833 17.1814 16.5833C16.8287 16.5833 16.4834 16.4816 16.187 16.2904C15.8906 16.0992 15.6555 15.8265 15.5101 15.5052C15.3631 15.8243 15.1276 16.0945 14.8316 16.2838C14.5356 16.4731 14.1916 16.5734 13.8402 16.573C13.4889 16.5726 13.1451 16.4714 12.8496 16.2814C12.554 16.0914 12.3192 15.8206 12.173 15.5011C11.9753 15.9325 11.6183 16.2707 11.1768 16.4447C10.7353 16.6188 10.2436 16.6153 9.80469 16.4349V20.2421C9.80519 20.5167 9.91448 20.7798 10.1086 20.974C10.3027 21.1681 10.5659 21.2774 10.8404 21.2779H20.2942C20.5687 21.2774 20.8318 21.1681 21.026 20.974C21.2201 20.7798 21.3294 20.5167 21.3299 20.2421V16.3848C21.11 16.4927 20.8707 16.5557 20.6261 16.5698C20.3815 16.5839 20.1365 16.549 19.9057 16.467C19.6748 16.385 19.4626 16.2577 19.2816 16.0925C19.1007 15.9274 18.9546 15.7277 18.852 15.5052H18.8528ZM17.5562 19.2178C17.5562 19.2815 17.5437 19.3446 17.5193 19.4034C17.4949 19.4623 17.4592 19.5158 17.4141 19.5608C17.369 19.6058 17.3156 19.6415 17.2567 19.6659C17.1978 19.6902 17.1347 19.7028 17.071 19.7027H16.5079C16.482 19.7027 16.4572 19.713 16.4389 19.7313C16.4206 19.7496 16.4103 19.7744 16.4103 19.8003V20.3631C16.4103 20.4918 16.3593 20.6151 16.2683 20.7061C16.1774 20.7971 16.0541 20.8482 15.9254 20.8483H15.0985C14.9698 20.8483 14.8464 20.7972 14.7554 20.7062C14.6644 20.6152 14.6133 20.4918 14.6133 20.3631V19.8003C14.6133 19.7745 14.6031 19.7497 14.5848 19.7314C14.5666 19.7131 14.5418 19.7028 14.516 19.7027H13.9532C13.8894 19.7028 13.8263 19.6903 13.7674 19.666C13.7085 19.6416 13.655 19.6059 13.6099 19.5609C13.5648 19.5159 13.5291 19.4624 13.5047 19.4035C13.4803 19.3446 13.4677 19.2815 13.4677 19.2178V18.3909C13.4677 18.3272 13.4803 18.2641 13.5046 18.2052C13.529 18.1464 13.5648 18.0929 13.6098 18.0479C13.6549 18.0029 13.7084 17.9671 13.7672 17.9428C13.8261 17.9184 13.8892 17.9059 13.9529 17.906H14.5157C14.5285 17.906 14.5412 17.9034 14.553 17.8985C14.5649 17.8936 14.5756 17.8864 14.5846 17.8774C14.5937 17.8683 14.6008 17.8575 14.6057 17.8457C14.6106 17.8339 14.6131 17.8212 14.613 17.8084V17.2455C14.613 17.1169 14.6642 16.9934 14.7551 16.9025C14.8461 16.8115 14.9695 16.7604 15.0982 16.7604H15.9252C15.989 16.7602 16.0522 16.7727 16.1112 16.797C16.1702 16.8213 16.2238 16.857 16.2689 16.9021C16.3141 16.9471 16.3499 17.0007 16.3744 17.0596C16.3988 17.1185 16.4114 17.1817 16.4114 17.2455V17.8084C16.4114 17.8343 16.4217 17.8591 16.44 17.8774C16.4583 17.8957 16.4831 17.906 16.509 17.906H17.0719C17.2004 17.9061 17.3236 17.9573 17.4144 18.0482C17.5052 18.1391 17.5562 18.2623 17.5562 18.3909V19.2178Z" fill="#104651"/>
</svg>
