<svg width="24" height="24" viewBox="0 0 24 24" fill="none" xmlns="http://www.w3.org/2000/svg">
<path d="M19.6302 2.86133H19.0826V5.70594C19.0826 7.03203 18.0063 8.1084 16.6801 8.1084C15.354 8.1084 14.2777 7.03208 14.2777 5.70594V2.86133H9.72257V5.70594C9.72257 7.03203 8.64626 8.1084 7.32012 8.1084C5.99402 8.1084 4.91766 7.03208 4.91766 5.70594V2.86133H4.37001C2.21733 2.86133 0.468262 4.6104 0.468262 6.76289V19.6495C0.468262 21.7924 2.21733 23.551 4.36982 23.551H19.63C21.7827 23.551 23.5316 21.7924 23.5316 19.6495L23.532 9.78055V6.76293C23.532 4.61044 21.7829 2.86137 19.6302 2.86137L19.6302 2.86133ZM21.6099 19.6496C21.6099 20.7356 20.726 21.6293 19.6302 21.6293L4.37001 21.6291C3.27432 21.6291 2.39034 20.7356 2.39034 19.6496V10.7412H21.6102L21.6099 19.6496Z" fill="white"/>
<path d="M7.31993 6.66668C7.8484 6.66668 8.28096 6.2439 8.28096 5.70565V1.41026C8.28096 0.881598 7.8484 0.449219 7.31993 0.449219C6.79145 0.449219 6.35889 0.881598 6.35889 1.41026V5.70583C6.35907 6.2439 6.79145 6.66668 7.31993 6.66668Z" fill="white"/>
<path d="M16.6805 6.66668C17.2089 6.66668 17.6415 6.2439 17.6415 5.70565L17.6413 1.41026C17.6413 0.881598 17.2088 0.449219 16.6803 0.449219C16.1518 0.449219 15.7192 0.881598 15.7192 1.41026V5.70583C15.7194 6.2439 16.152 6.66668 16.6805 6.66668Z" fill="white"/>
<path d="M15.1559 19.0626H17.693C18.577 19.0626 19.3075 18.3419 19.3075 17.4482V14.9113C19.3075 14.0272 18.5772 13.2969 17.693 13.2969H15.1559C14.2622 13.2969 13.5415 14.0272 13.5415 14.9113V17.4482C13.5415 18.3419 14.2624 19.0626 15.1559 19.0626Z" fill="white"/>
<path d="M6.31511 19.0628H8.85202C9.73633 19.0628 10.4666 18.3421 10.4666 17.4484V14.9115C10.4666 14.0274 9.73633 13.2971 8.85202 13.2971L6.31511 13.2969C5.42139 13.2969 4.70068 14.0272 4.70068 14.9113V17.4482C4.70068 18.3421 5.42139 19.0628 6.31511 19.0628Z" fill="white"/>
</svg>
