<svg width="22" height="23" viewBox="0 0 22 23" fill="none" xmlns="http://www.w3.org/2000/svg">
<path d="M2.1965 22.1094C0.985359 22.1094 4.9709e-05 21.1241 4.9709e-05 19.9129V4.11754C4.9709e-05 2.9064 0.985359 1.92144 2.1965 1.92144H2.71672V1.08778C2.71672 0.489386 3.20646 0 3.80451 0H3.91435C4.51257 0 5.00213 0.489386 5.00213 1.08778V1.92127H7.4774V1.08778C7.4774 0.489386 7.96678 0 8.56518 0H8.67502C9.27324 0 9.7628 0.489386 9.7628 1.08778V1.92127H12.2381V1.08778C12.2381 0.489386 12.7275 0 13.3255 0H13.4353C14.0336 0 14.5231 0.489386 14.5231 1.08778V1.92127H16.9987V1.08778C16.9987 0.489386 17.488 0 18.0862 0H18.196C18.7942 0 19.2838 0.489386 19.2838 1.08778V1.92127H19.804C21.0149 1.92127 22.0001 2.90657 22.0001 4.11736V19.9127C22.0001 21.1239 21.0148 22.1092 19.804 22.1092L2.1965 22.1094ZM20.4498 19.9129V6.55877H1.55077V19.9129C1.55077 20.2692 1.84036 20.559 2.19663 20.559L19.8042 20.5591C20.1604 20.5591 20.4499 20.2692 20.4499 19.913L20.4498 19.9129Z" fill="#104651"/>
<path d="M17.781 11.1027H15.2637C14.7198 11.1027 14.2789 10.6618 14.2789 10.1179V9.09628C14.2789 8.55241 14.7198 8.1115 15.2637 8.1115L17.781 8.11133C18.3248 8.11133 18.7657 8.55224 18.7657 9.09611V10.1177C18.7657 10.6616 18.3248 11.1027 17.781 11.1027Z" fill="#104651"/>
<path d="M12.2592 11.1027H9.74199C9.19812 11.1027 8.7572 10.6618 8.7572 10.1179V9.09628C8.7572 8.55241 9.19812 8.1115 9.74199 8.1115L12.2592 8.11133C12.8031 8.11133 13.244 8.55224 13.244 9.09611V10.1177C13.244 10.6616 12.8031 11.1027 12.2592 11.1027Z" fill="#104651"/>
<path d="M6.73629 11.1027H4.21904C3.67517 11.1027 3.23426 10.6618 3.23426 10.1179V9.09628C3.23426 8.55241 3.67517 8.1115 4.21904 8.1115L6.73629 8.11133C7.28016 8.11133 7.72107 8.55224 7.72107 9.09611V10.1177C7.72124 10.6616 7.28016 11.1027 6.73629 11.1027Z" fill="#104651"/>
<path d="M17.781 15.1281H15.2637C14.7198 15.1281 14.2789 14.6872 14.2789 14.1433V13.1217C14.2789 12.5778 14.7198 12.1369 15.2637 12.1369L17.781 12.1367C18.3248 12.1367 18.7657 12.5776 18.7657 13.1215V14.1431C18.7657 14.6874 18.3248 15.1281 17.781 15.1281Z" fill="#104651"/>
<path d="M12.2592 15.1281H9.74199C9.19812 15.1281 8.7572 14.6872 8.7572 14.1433V13.1217C8.7572 12.5778 9.19812 12.1369 9.74199 12.1369L12.2592 12.1367C12.8031 12.1367 13.244 12.5776 13.244 13.1215V14.1431C13.244 14.6874 12.8031 15.1281 12.2592 15.1281Z" fill="#104651"/>
<path d="M6.73629 15.1281H4.21904C3.67517 15.1281 3.23426 14.6872 3.23426 14.1433V13.1217C3.23426 12.5778 3.67517 12.1369 4.21904 12.1369L6.73629 12.1367C7.28016 12.1367 7.72107 12.5776 7.72107 13.1215V14.1431C7.72124 14.6874 7.28016 15.1281 6.73629 15.1281Z" fill="#104651"/>
<path d="M17.781 19.1554H15.2637C14.7198 19.1554 14.2789 18.7145 14.2789 18.1706V17.149C14.2789 16.6051 14.7198 16.1642 15.2637 16.1642L17.781 16.1641C18.3248 16.1641 18.7657 16.605 18.7657 17.1488V18.1705C18.7657 18.7145 18.3248 19.1554 17.781 19.1554Z" fill="#104651"/>
<path d="M12.2592 19.1554H9.74199C9.19812 19.1554 8.7572 18.7145 8.7572 18.1706V17.149C8.7572 16.6051 9.19812 16.1642 9.74199 16.1642L12.2592 16.1641C12.8031 16.1641 13.244 16.605 13.244 17.1488V18.1705C13.244 18.7145 12.8031 19.1554 12.2592 19.1554Z" fill="#104651"/>
</svg>
