<svg width="26" height="26" viewBox="0 0 26 26" fill="none" xmlns="http://www.w3.org/2000/svg">
<path d="M4.23431 2.61719H4.82858V5.70393C4.82858 7.14291 5.99651 8.31089 7.43553 8.31089C8.87451 8.31089 10.0425 7.14296 10.0425 5.70393V2.61719H14.9853V5.70393C14.9853 7.14291 16.1532 8.31089 17.5923 8.31089C19.0312 8.31089 20.1992 7.14296 20.1992 5.70393V2.61719H20.7935C23.1294 2.61719 25.0273 4.51514 25.0273 6.85085V20.8343C25.0273 23.1596 23.1294 25.068 20.7937 25.068H4.23451C1.89859 25.068 0.000846863 23.1596 0.000846863 20.8343L0.000453949 10.1254V6.8509C0.000453949 4.51519 1.89841 2.61724 4.23432 2.61724L4.23431 2.61719ZM2.08613 20.8345C2.08613 22.0129 3.04531 22.9827 4.23431 22.9827L20.7935 22.9825C21.9824 22.9825 22.9417 22.0129 22.9417 20.8345V11.1678H2.08582L2.08613 20.8345Z" fill="#104651"/>
<path d="M17.59 6.7467C17.0165 6.7467 16.5471 6.28792 16.5471 5.70386V1.04284C16.5471 0.469183 17.0165 0 17.59 0C18.1634 0 18.6328 0.469183 18.6328 1.04284V5.70406C18.6326 6.28792 18.1634 6.7467 17.59 6.7467Z" fill="#104651"/>
<path d="M7.4356 6.7467C6.86214 6.7467 6.39276 6.28792 6.39276 5.70386L6.39295 1.04284C6.39295 0.469183 6.86233 0 7.4358 0C8.00926 0 8.47864 0.469183 8.47864 1.04284V5.70406C8.47844 6.28792 8.00907 6.7467 7.4356 6.7467Z" fill="#104651"/>
<path d="M9.088 20.1989H6.33494C5.37576 20.1989 4.58309 19.4169 4.58309 18.4471V15.6942C4.58309 14.7348 5.37556 13.9424 6.33494 13.9424H9.088C10.0578 13.9424 10.8398 14.7348 10.8398 15.6942V18.4471C10.8398 19.4169 10.0576 20.1989 9.088 20.1989Z" fill="#104651"/>
<path d="M18.6819 20.1991H15.929C14.9694 20.1991 14.177 19.4171 14.177 18.4473V15.6944C14.177 14.735 14.9694 13.9426 15.929 13.9426L18.6819 13.9424C19.6517 13.9424 20.4337 14.7348 20.4337 15.6942V18.4471C20.4337 19.4171 19.6517 20.1991 18.6819 20.1991Z" fill="#104651"/>
</svg>
