<svg width="26" height="21" viewBox="0 0 26 21" fill="none" xmlns="http://www.w3.org/2000/svg">
<path d="M8.33307 0L6.99985 3.28127H2.33328C1.04048 3.28127 0 4.30573 0 5.5781V18.7032C0 19.9758 1.04072 21 2.33328 21H23.6667C24.9595 21 26 19.9755 26 18.7032V5.5781C26 4.30549 24.9593 3.28127 23.6667 3.28127H19.0001L17.6669 0H8.33307ZM12.9996 5.90628C16.4855 5.90628 19.333 8.70919 19.333 12.1407C19.333 15.5722 16.4856 18.3751 12.9996 18.3751C9.51367 18.3751 6.66628 15.5722 6.66628 12.1407C6.66628 8.70919 9.51367 5.90628 12.9996 5.90628ZM12.9996 7.87516C10.5947 7.87516 8.66623 9.77332 8.66623 12.1409C8.66623 14.5084 10.5945 16.4066 12.9996 16.4066C15.4048 16.4066 17.3331 14.5084 17.3331 12.1409C17.3331 9.77332 15.4048 7.87516 12.9996 7.87516Z" fill="white"/>
</svg>
