<svg width="537" height="336" viewBox="0 0 537 336" fill="none" xmlns="http://www.w3.org/2000/svg">
<path opacity="0.29" d="M234.291 60.685C235.325 54.1209 239.783 50.0691 248.643 51.7763C259.63 39.6376 273.296 45.2727 274.681 60.4707C287.285 58.9731 291.34 64.7889 291.34 70.3454H220.988C221.423 63.6707 227.753 60.094 234.291 60.6847V60.685Z" fill="#AFF9F5"/>
<path opacity="0.29" d="M401.507 102.425C399.243 89.0629 389.486 80.8155 370.095 84.2907C352.048 65.2284 313.885 78.1802 313.106 101.989C285.52 98.94 276.645 110.779 276.645 122.089H430.623C429.671 108.503 415.817 101.222 401.507 102.425H401.507Z" fill="#B4F1F4"/>
<path d="M434.638 190.28C434.609 190.154 434.543 190.04 434.447 189.954C434.351 189.867 434.231 189.812 434.103 189.797L433.223 189.691C433.166 189.605 433.107 189.52 433.044 189.438L433.24 188.572C433.268 188.446 433.257 188.314 433.208 188.195C433.159 188.075 433.074 187.974 432.965 187.905L431.896 187.229C431.787 187.16 431.659 187.126 431.53 187.133C431.402 187.14 431.278 187.186 431.177 187.266L430.479 187.814C430.377 187.792 430.275 187.775 430.173 187.761L429.699 187.01C429.63 186.901 429.529 186.816 429.41 186.767C429.291 186.718 429.16 186.706 429.034 186.734L427.8 187.013C427.675 187.041 427.561 187.108 427.474 187.203C427.388 187.299 427.333 187.419 427.318 187.548L427.212 188.429C427.125 188.486 427.041 188.545 426.958 188.608L426.093 188.413C425.967 188.385 425.836 188.396 425.717 188.445C425.598 188.495 425.497 188.58 425.428 188.688L424.752 189.758C424.683 189.867 424.65 189.995 424.656 190.124C424.663 190.253 424.709 190.377 424.789 190.478L425.336 191.177C425.315 191.278 425.297 191.38 425.283 191.483L424.533 191.957C424.424 192.026 424.339 192.127 424.29 192.246C424.24 192.366 424.229 192.497 424.258 192.623L424.535 193.858C424.564 193.984 424.63 194.098 424.726 194.185C424.822 194.271 424.942 194.326 425.07 194.341L425.95 194.448C426.007 194.535 426.066 194.619 426.129 194.702L425.934 195.567C425.906 195.693 425.917 195.825 425.966 195.944C426.015 196.063 426.1 196.164 426.209 196.233L427.278 196.91C427.387 196.979 427.515 197.012 427.643 197.006C427.772 196.999 427.896 196.953 427.997 196.874L428.695 196.325C428.796 196.347 428.898 196.364 429.001 196.378L429.474 197.129C429.543 197.238 429.644 197.323 429.763 197.372C429.882 197.422 430.013 197.433 430.139 197.404L431.372 197.126C431.498 197.098 431.612 197.031 431.698 196.936C431.785 196.84 431.84 196.72 431.855 196.592L431.962 195.71C432.049 195.653 432.133 195.593 432.216 195.531L433.081 195.726C433.207 195.755 433.338 195.743 433.457 195.694C433.576 195.645 433.677 195.56 433.746 195.451L434.422 194.38C434.49 194.271 434.524 194.143 434.517 194.014C434.511 193.885 434.464 193.762 434.385 193.66L433.838 192.962C433.859 192.861 433.877 192.759 433.891 192.656L434.64 192.181C434.749 192.112 434.834 192.011 434.883 191.892C434.933 191.773 434.944 191.642 434.916 191.516L434.638 190.28ZM432.966 191.762C432.882 191.815 432.812 191.887 432.762 191.973C432.711 192.059 432.682 192.155 432.676 192.254C432.663 192.484 432.624 192.711 432.559 192.931C432.531 193.026 432.526 193.127 432.545 193.225C432.563 193.323 432.605 193.415 432.666 193.493L433.131 194.085L432.926 194.41L432.193 194.244C432.096 194.222 431.995 194.224 431.899 194.248C431.803 194.273 431.714 194.321 431.64 194.387C431.468 194.54 431.28 194.673 431.078 194.784C430.992 194.832 430.917 194.9 430.862 194.982C430.806 195.064 430.771 195.158 430.759 195.257L430.669 196.004L430.294 196.088L429.894 195.453C429.841 195.369 429.768 195.298 429.683 195.248C429.597 195.197 429.501 195.168 429.402 195.162C429.173 195.149 428.946 195.11 428.725 195.045C428.63 195.017 428.53 195.013 428.432 195.031C428.335 195.05 428.243 195.092 428.165 195.153L427.573 195.618L427.249 195.412L427.414 194.679C427.436 194.582 427.434 194.481 427.41 194.385C427.385 194.289 427.337 194.2 427.271 194.126C427.118 193.953 426.985 193.764 426.874 193.562C426.826 193.475 426.758 193.401 426.676 193.346C426.594 193.29 426.5 193.255 426.402 193.243L425.657 193.153L425.572 192.778L426.207 192.377C426.29 192.324 426.36 192.252 426.411 192.167C426.461 192.081 426.49 191.985 426.497 191.887C426.511 191.656 426.55 191.428 426.615 191.206C426.642 191.111 426.647 191.01 426.628 190.913C426.609 190.815 426.568 190.724 426.507 190.646L426.043 190.054L426.248 189.729L426.981 189.894C427.078 189.916 427.178 189.915 427.274 189.89C427.37 189.865 427.459 189.818 427.533 189.752C427.705 189.599 427.893 189.466 428.095 189.355C428.182 189.307 428.256 189.24 428.312 189.157C428.368 189.075 428.403 188.98 428.415 188.881L428.505 188.135L428.879 188.051L429.28 188.687C429.333 188.771 429.405 188.841 429.491 188.891C429.576 188.942 429.673 188.971 429.772 188.977C430.002 188.99 430.229 189.03 430.45 189.094C430.545 189.122 430.645 189.126 430.743 189.108C430.84 189.089 430.931 189.047 431.009 188.986L431.601 188.521L431.925 188.726L431.759 189.46C431.737 189.557 431.739 189.658 431.763 189.754C431.788 189.85 431.836 189.94 431.902 190.014C432.055 190.186 432.188 190.374 432.299 190.576C432.347 190.663 432.414 190.737 432.497 190.793C432.579 190.849 432.673 190.884 432.771 190.895L433.516 190.985L433.601 191.36L432.966 191.762Z" fill="#DCFAFB"/>
<path d="M430.635 190.408C430.378 190.245 430.087 190.145 429.784 190.114C429.481 190.084 429.175 190.124 428.891 190.232C428.606 190.34 428.351 190.512 428.144 190.736C427.938 190.96 427.786 191.229 427.701 191.521C427.616 191.814 427.6 192.122 427.655 192.422C427.709 192.721 427.832 193.004 428.015 193.248C428.197 193.492 428.433 193.69 428.705 193.827C428.977 193.964 429.277 194.035 429.581 194.036C429.728 194.036 429.875 194.019 430.018 193.987C430.397 193.901 430.742 193.705 431.009 193.424C431.277 193.142 431.455 192.787 431.521 192.404C431.587 192.021 431.538 191.627 431.381 191.271C431.223 190.916 430.964 190.616 430.635 190.408ZM430.19 192.452C430.127 192.551 430.041 192.634 429.939 192.692C429.836 192.75 429.721 192.782 429.604 192.784C429.487 192.787 429.37 192.761 429.265 192.708C429.16 192.655 429.07 192.577 429.002 192.481C428.934 192.385 428.891 192.274 428.877 192.157C428.863 192.04 428.877 191.922 428.919 191.812C428.962 191.702 429.03 191.604 429.119 191.527C429.208 191.451 429.314 191.397 429.429 191.371C429.481 191.359 429.534 191.353 429.588 191.353C429.715 191.353 429.841 191.388 429.951 191.453C430.061 191.519 430.151 191.612 430.213 191.725C430.274 191.837 430.305 191.963 430.301 192.091C430.297 192.219 430.259 192.344 430.19 192.452ZM437.745 187.027L437.557 186.042C437.532 185.915 437.47 185.799 437.377 185.709C437.284 185.62 437.166 185.561 437.038 185.541L436.403 185.443C436.38 185.406 436.355 185.369 436.33 185.332L436.492 184.709C436.525 184.584 436.518 184.453 436.473 184.332C436.427 184.211 436.346 184.107 436.239 184.035L435.411 183.471C435.304 183.398 435.178 183.361 435.049 183.363C434.92 183.365 434.795 183.407 434.691 183.484L434.172 183.864C434.129 183.854 434.085 183.845 434.041 183.837L433.716 183.282C433.651 183.17 433.553 183.082 433.435 183.029C433.318 182.976 433.187 182.96 433.061 182.984L432.077 183.172C431.95 183.197 431.834 183.259 431.744 183.352C431.655 183.445 431.596 183.563 431.576 183.691L431.479 184.327C431.441 184.35 431.404 184.375 431.367 184.4L430.745 184.238C430.62 184.205 430.489 184.212 430.368 184.258C430.247 184.303 430.144 184.385 430.071 184.491L429.508 185.321C429.436 185.428 429.398 185.554 429.4 185.683C429.403 185.812 429.445 185.938 429.521 186.042L430.079 186.804C430.127 186.871 430.188 186.928 430.258 186.972C430.328 187.015 430.406 187.044 430.487 187.057C430.569 187.07 430.652 187.067 430.732 187.047C430.812 187.028 430.888 186.993 430.954 186.944C431.021 186.895 431.077 186.834 431.12 186.763C431.163 186.692 431.191 186.614 431.203 186.532C431.215 186.451 431.211 186.367 431.191 186.287C431.171 186.207 431.135 186.132 431.086 186.066L430.788 185.659L430.857 185.558L431.344 185.686C431.44 185.711 431.54 185.712 431.637 185.691C431.734 185.669 431.824 185.625 431.901 185.561C432.033 185.451 432.177 185.356 432.331 185.278C432.42 185.233 432.496 185.168 432.555 185.087C432.613 185.007 432.651 184.914 432.667 184.815L432.743 184.317L432.862 184.294L433.117 184.729C433.167 184.815 433.237 184.888 433.321 184.941C433.405 184.994 433.5 185.027 433.599 185.036C433.77 185.051 433.94 185.087 434.104 185.14C434.198 185.171 434.298 185.179 434.396 185.164C434.494 185.148 434.587 185.109 434.667 185.051L435.073 184.753L435.173 184.82L435.046 185.308C435.021 185.405 435.019 185.505 435.04 185.602C435.062 185.699 435.106 185.79 435.17 185.866C435.28 185.999 435.376 186.144 435.454 186.298C435.498 186.386 435.564 186.463 435.644 186.521C435.724 186.58 435.817 186.618 435.915 186.633L436.413 186.71L436.436 186.829L436.001 187.084C435.915 187.134 435.843 187.204 435.79 187.288C435.737 187.372 435.705 187.467 435.696 187.566C435.68 187.737 435.645 187.907 435.591 188.07C435.559 188.165 435.551 188.265 435.567 188.364C435.582 188.462 435.621 188.555 435.68 188.635L435.911 188.952L435.255 188.769C435.095 188.725 434.925 188.746 434.781 188.827C434.636 188.909 434.531 189.045 434.486 189.204C434.442 189.364 434.463 189.535 434.544 189.679C434.626 189.823 434.761 189.929 434.921 189.974L436.031 190.282C436.147 190.314 436.269 190.313 436.384 190.277C436.498 190.241 436.6 190.173 436.677 190.081L437.221 189.429C437.31 189.322 437.361 189.188 437.366 189.048C437.37 188.909 437.328 188.772 437.245 188.659L436.865 188.141C436.875 188.097 436.884 188.053 436.893 188.01L437.447 187.684C437.558 187.618 437.647 187.52 437.7 187.403C437.753 187.285 437.769 187.154 437.745 187.027ZM116.337 190.104L118.174 189.807L118.374 191.041L116.537 191.339L116.337 190.104ZM118.08 187.53L119.313 187.33L119.605 189.134L118.372 189.334L118.08 187.53ZM120.181 189.482L121.918 189.2L122.118 190.434L120.381 190.716L120.181 189.482ZM118.701 191.372L119.934 191.172L120.242 193.079L119.009 193.279L118.701 191.372ZM201.674 37.7833L196.525 37.0451L197.244 32.0175L202.393 32.755L201.674 37.7833ZM197.938 35.985L200.615 36.3687L200.98 33.8151L198.303 33.4314L197.938 35.985ZM85.928 142.344C85.7624 142.344 85.6036 142.279 85.4866 142.161C85.3695 142.044 85.3037 141.885 85.3037 141.719V139.775C84.3457 139.42 83.5161 138.785 82.9223 137.952C82.3284 137.12 81.9976 136.129 81.9727 135.106C81.9874 133.782 82.5262 132.518 83.4706 131.591C84.4151 130.664 85.6882 130.15 87.0107 130.162H89.6414C90.9721 130.162 92.2483 130.691 93.1893 131.633C94.1303 132.575 94.6589 133.853 94.6589 135.185C94.6589 136.517 94.1303 137.795 93.1893 138.737C92.2483 139.679 90.9721 140.208 89.6414 140.208H88.612L86.3381 142.191C86.2245 142.29 86.0788 142.344 85.928 142.344ZM87.0107 131.412C86.0192 131.4 85.0634 131.782 84.353 132.475C83.6426 133.167 83.2356 134.114 83.2212 135.106C83.2444 135.935 83.5355 136.734 84.0508 137.384C84.5661 138.033 85.2777 138.497 86.079 138.707C86.2142 138.741 86.3342 138.819 86.42 138.929C86.5057 139.039 86.5523 139.174 86.5523 139.314V140.347L87.9683 139.112C88.082 139.013 88.2277 138.958 88.3784 138.958H89.6414C90.641 138.958 91.5996 138.561 92.3065 137.853C93.0133 137.145 93.4104 136.186 93.4104 135.185C93.4104 134.184 93.0133 133.224 92.3065 132.517C91.5996 131.809 90.641 131.412 89.6414 131.412H87.0107Z" fill="#DCFAFB"/>
<path d="M88.2978 137.543C88.1322 137.543 87.9735 137.477 87.8564 137.36C87.7393 137.242 87.6735 137.083 87.6735 136.918V135.251C87.6735 135.085 87.7393 134.926 87.8564 134.809C87.9735 134.692 88.1322 134.626 88.2978 134.626C88.4634 134.626 88.6221 134.692 88.7392 134.809C88.8563 134.926 88.9221 135.085 88.9221 135.251V136.918C88.9221 137.083 88.8563 137.242 88.7392 137.36C88.6221 137.477 88.4634 137.543 88.2978 137.543ZM88.2978 134.351C88.1287 134.351 87.9635 134.3 87.8232 134.205C87.6829 134.111 87.5738 133.977 87.5095 133.82C87.4452 133.663 87.4288 133.491 87.4622 133.325C87.4956 133.159 87.5773 133.007 87.6972 132.888C87.817 132.768 87.9695 132.687 88.1354 132.654C88.3013 132.621 88.4733 132.638 88.6294 132.703C88.7856 132.768 88.9191 132.878 89.013 133.019C89.1069 133.16 89.157 133.325 89.157 133.495C89.1563 133.722 89.0654 133.94 88.9044 134.101C88.7433 134.261 88.5251 134.352 88.2978 134.351ZM88.2978 133.101C88.22 133.101 88.1437 133.123 88.0787 133.166C88.0137 133.209 87.9629 133.27 87.9326 133.342C87.9024 133.414 87.8941 133.493 87.9089 133.569C87.9237 133.646 87.9608 133.716 88.0156 133.771C88.0704 133.827 88.1403 133.864 88.2166 133.88C88.2929 133.895 88.372 133.888 88.4439 133.858C88.5159 133.828 88.5774 133.778 88.6207 133.713C88.664 133.649 88.6871 133.572 88.6871 133.495C88.6875 133.391 88.6467 133.291 88.5737 133.217C88.5007 133.144 88.4015 133.102 88.2978 133.101ZM181.916 173.213C181.339 173.213 180.776 173.034 180.306 172.699C179.835 172.365 179.48 171.892 179.29 171.346C179.1 170.801 179.084 170.209 179.245 169.654C179.405 169.099 179.735 168.608 180.187 168.249C180.639 167.89 181.191 167.68 181.767 167.649C182.344 167.618 182.915 167.768 183.403 168.077C183.891 168.386 184.27 168.839 184.489 169.373C184.708 169.908 184.755 170.498 184.625 171.06C184.482 171.673 184.137 172.219 183.645 172.61C183.154 173.001 182.544 173.214 181.916 173.213ZM181.913 168.895C181.521 168.895 181.144 169.045 180.859 169.314C180.574 169.583 180.403 169.951 180.38 170.343C180.357 170.734 180.485 171.12 180.737 171.42C180.989 171.72 181.346 171.913 181.736 171.958C182.125 172.003 182.516 171.897 182.83 171.663C183.144 171.428 183.357 171.082 183.424 170.696C183.492 170.309 183.409 169.912 183.193 169.585C182.977 169.257 182.644 169.025 182.263 168.935C182.148 168.909 182.031 168.895 181.913 168.895L181.913 168.895ZM437.756 88.4228C437.179 88.4229 436.616 88.2432 436.145 87.9086C435.675 87.5741 435.32 87.1012 435.13 86.5557C434.94 86.0102 434.924 85.419 435.085 84.864C435.245 84.3091 435.574 83.8179 436.026 83.4585C436.478 83.0992 437.031 82.8896 437.607 82.8586C438.183 82.8277 438.755 82.977 439.242 83.2859C439.73 83.5948 440.11 84.048 440.329 84.5826C440.548 85.1171 440.595 85.7067 440.464 86.2694C440.322 86.8818 439.977 87.4281 439.485 87.8191C438.994 88.2101 438.384 88.4229 437.756 88.4228ZM437.753 84.1042C437.361 84.1045 436.984 84.2548 436.7 84.5242C436.415 84.7936 436.244 85.1619 436.222 85.5534C436.199 85.945 436.328 86.3303 436.58 86.6303C436.832 86.9304 437.19 87.1225 437.579 87.1672C437.968 87.212 438.36 87.1061 438.673 86.8712C438.987 86.6363 439.199 86.2902 439.266 85.9038C439.333 85.5173 439.25 85.1199 439.034 84.7928C438.818 84.4657 438.485 84.2338 438.103 84.1445C437.988 84.1177 437.871 84.1042 437.753 84.1042Z" fill="#DCFAFB"/>
<path d="M170.219 220.969C170.549 221.121 171.485 220.756 171.87 220.651C171.956 220.623 172.047 220.613 172.137 220.62C172.227 220.628 172.314 220.654 172.394 220.696C172.474 220.738 172.544 220.796 172.602 220.866C172.659 220.936 172.701 221.016 172.727 221.103C172.751 221.196 175.12 230.611 181.696 244.005C189.974 260.78 200.898 276.11 214.048 289.405L207.64 290.648C193.448 276.497 188.521 268.995 182.185 256.967C171.798 237.247 169.107 220.456 170.219 220.969Z" fill="#B4F1F4"/>
<path d="M184.702 256.482C183.08 248.908 174.305 236.957 163.662 234.203C154.58 231.854 149.131 227.839 149.131 227.839C149.661 232.479 150.946 237.001 152.936 241.225C155.147 245.893 161.565 250.542 167.432 250.958C177.865 251.698 184.702 256.482 184.702 256.482ZM174.915 234.992C176.486 224.764 180.295 218.051 175.853 208.883C172.491 201.943 171.075 192.729 171.075 192.729C171.075 192.729 165.392 198.356 162.639 204.872C161.463 207.681 161.05 210.751 161.444 213.77C161.838 216.79 163.024 219.651 164.881 222.063C167.505 225.468 174.915 234.992 174.915 234.992ZM210.251 282.736C196.753 274.959 188.987 262.616 180.107 260.737C167.246 258.015 159.171 257.547 151.973 254.977C151.973 254.977 153.343 266.923 159.138 274.347C164.373 281.051 174.203 287.245 186.214 287.075C198.232 286.904 210.251 282.736 210.251 282.736Z" fill="#B4F1F4"/>
<path d="M186.772 208.681C185.836 222.466 173.938 237.046 188.403 260.114C188.403 260.114 192.456 249.198 196.407 242.064C201.947 232.063 201.002 226.884 196.079 220.115C192.134 214.691 186.772 208.681 186.772 208.681ZM211.914 290.296C213.009 276.409 221.224 268.28 216.374 255.72C212.468 245.603 216.699 236.803 216.699 236.803C216.699 236.803 206.028 242.916 199.99 251.042C194.536 258.382 195.751 263.319 197.898 271.489C200.827 282.635 211.913 290.296 211.913 290.296H211.914Z" fill="#B4F1F4"/>
<path d="M348.507 63.7678C348.339 63.7678 348.179 63.7012 348.06 63.5827C347.942 63.4642 347.875 63.3035 347.875 63.1358V57.0408C347.875 56.8742 347.941 56.7143 348.058 56.5959C348.175 56.4775 348.334 56.4101 348.5 56.4084L349.78 56.3956C350.066 55.6661 350.542 55.027 351.16 54.545C351.506 54.2743 351.789 53.9303 351.987 53.5376C352.164 53.0327 352.2 52.4891 352.091 51.9651C352.057 51.8162 352.078 51.6599 352.149 51.5249C352.221 51.3899 352.339 51.2853 352.481 51.2303C352.969 51.0529 353.507 51.0743 353.979 51.2898C354.208 51.4125 354.407 51.5832 354.564 51.7901C354.72 51.9969 354.831 52.2352 354.887 52.4886C355.134 53.3215 355.186 54.1998 355.04 55.056L357.627 55.0557C357.91 55.0556 358.188 55.1318 358.432 55.2761C358.676 55.4205 358.877 55.6277 359.013 55.8762C359.15 56.1247 359.217 56.4054 359.208 56.6888C359.199 56.9723 359.114 57.2482 358.963 57.4876C359.237 57.7869 359.389 58.1782 359.389 58.5843C359.389 58.9905 359.237 59.3818 358.963 59.681C359.181 60.0256 359.258 60.4413 359.178 60.8414C359.097 61.2415 358.866 61.595 358.531 61.8281C358.607 62.0479 358.63 62.2827 358.597 62.513C358.564 62.7433 358.477 62.9624 358.342 63.152C358.207 63.3416 358.029 63.4962 357.823 63.6029C357.616 63.7096 357.387 63.7654 357.155 63.7655L348.507 63.7678ZM349.138 57.6667V62.5031L357.155 62.5008C357.206 62.5008 357.255 62.4803 357.292 62.444C357.328 62.4076 357.348 62.3583 357.348 62.3069C357.348 62.2555 357.328 62.2062 357.292 62.1698C357.255 62.1334 357.206 62.113 357.155 62.113C356.987 62.113 356.827 62.0464 356.708 61.9278C356.59 61.8092 356.523 61.6484 356.523 61.4807C356.523 61.313 356.59 61.1521 356.708 61.0335C356.827 60.9149 356.987 60.8483 357.155 60.8483H357.627C357.669 60.8483 357.71 60.84 357.749 60.824C357.788 60.8079 357.823 60.7844 357.853 60.7547C357.882 60.7251 357.906 60.6898 357.922 60.6511C357.938 60.6123 357.946 60.5707 357.946 60.5288C357.946 60.4868 357.938 60.4453 357.922 60.4065C357.906 60.3677 357.882 60.3325 357.853 60.3028C357.823 60.2732 357.788 60.2496 357.749 60.2336C357.71 60.2175 357.669 60.2092 357.627 60.2092C357.462 60.2054 357.305 60.1372 357.19 60.019C357.074 59.9009 357.01 59.7422 357.01 59.5771C357.01 59.4119 357.074 59.2532 357.19 59.1351C357.305 59.017 357.462 58.9487 357.627 58.9449H357.766C357.813 58.9449 357.86 58.9355 357.904 58.9174C357.947 58.8993 357.987 58.8728 358.021 58.8393C358.054 58.8058 358.08 58.7661 358.099 58.7223C358.117 58.6786 358.126 58.6317 358.126 58.5843C358.126 58.537 358.117 58.4901 358.099 58.4464C358.08 58.4026 358.054 58.3629 358.021 58.3294C357.987 58.2959 357.947 58.2694 357.904 58.2513C357.86 58.2331 357.813 58.2238 357.766 58.2238H357.627C357.462 58.22 357.305 58.1517 357.19 58.0336C357.074 57.9154 357.01 57.7568 357.01 57.5916C357.01 57.4264 357.074 57.2678 357.19 57.1497C357.305 57.0315 357.462 56.9633 357.627 56.9595C357.712 56.9595 357.793 56.9258 357.853 56.8659C357.912 56.8059 357.946 56.7247 357.946 56.6399C357.946 56.5552 357.912 56.4739 357.853 56.414C357.793 56.354 357.712 56.3204 357.627 56.3204L354.184 56.3207C354.074 56.3207 353.966 56.2917 353.87 56.2366C353.774 56.1816 353.695 56.1025 353.639 56.0071C353.584 55.9117 353.554 55.8034 353.553 55.6929C353.552 55.5825 353.58 55.4737 353.635 55.3776C353.65 55.3473 354.116 54.4391 353.67 52.826C353.656 52.7444 353.627 52.6664 353.582 52.5966C353.538 52.5268 353.48 52.4666 353.412 52.4198C353.442 52.9691 353.353 53.5184 353.15 54.0299C352.87 54.6171 352.458 55.1317 351.947 55.5338C351.417 55.9227 351.038 56.4839 350.876 57.1214C350.851 57.2685 350.776 57.4023 350.663 57.4997C350.55 57.5972 350.407 57.6522 350.258 57.6553L349.138 57.6667Z" fill="#DCFAFB"/>
<path d="M436.788 217.188C436.788 217.188 421.072 223.678 416.665 243.326C411.128 268.01 402.888 275.737 402.888 275.737C402.888 275.737 434.358 264.522 437.195 245.423C438.914 233.853 436.788 217.189 436.788 217.189V217.188ZM222.014 140.243C222.014 140.243 237.73 146.733 242.137 166.381C247.674 191.065 255.914 198.792 255.914 198.792C255.914 198.792 224.444 187.577 221.607 168.478C219.888 156.908 222.014 140.244 222.014 140.244V140.243Z" fill="#BDFFD8"/>
<path d="M441.815 271.423C436.797 268.891 431.109 268.007 425.56 268.896C417.869 270.176 404.246 281.611 404.246 281.611C404.246 281.611 417.301 284.268 426.03 282.017C433.792 280.016 441.815 271.423 441.815 271.423Z" fill="#B4F1F4"/>
<path d="M355.101 291.013H405.868V189.016H353.633V291.013H355.101Z" fill="#8CEAE7"/>
<path d="M393.026 291.013H394.115V189.016H337.943V291.013H393.026Z" fill="url(#paint0_linear_2042_8105)"/>
<path d="M111.173 66.3134H184.856C185.855 66.3133 186.844 66.5102 187.766 66.8928C188.689 67.2753 189.527 67.8361 190.234 68.5431C190.94 69.25 191.5 70.0893 191.882 71.013C192.264 71.9366 192.461 72.9267 192.461 73.9264V105.815C192.461 106.815 192.264 107.805 191.882 108.729C191.5 109.652 190.94 110.492 190.234 111.198C189.528 111.905 188.689 112.466 187.767 112.849C186.844 113.231 185.855 113.428 184.856 113.428H111.173C110.175 113.428 109.186 113.231 108.263 112.849C107.34 112.466 106.502 111.906 105.796 111.199C105.09 110.492 104.529 109.652 104.147 108.729C103.765 107.805 103.568 106.815 103.568 105.815V73.9268C103.568 71.9077 104.37 69.9712 105.796 68.5435C107.222 67.1158 109.156 66.3137 111.173 66.3137V66.3134Z" fill="#B4F1F4"/>
<path d="M130.016 82.8536H213.949C216.247 82.8536 218.45 83.7673 220.074 85.3937C221.699 87.02 222.612 89.2258 222.612 91.5258V127.85C222.612 130.15 221.699 132.356 220.074 133.983C218.45 135.609 216.247 136.523 213.949 136.523H206.31V148.546L194.3 136.522H130.016C127.719 136.522 125.515 135.609 123.891 133.982C122.266 132.356 121.354 130.15 121.354 127.85V91.5251C121.354 89.2251 122.266 87.0193 123.891 85.393C125.515 83.7666 127.719 82.853 130.016 82.853V82.8536Z" fill="#DCFAFB"/>
<path d="M192.164 91.4566H206.755V105.749H192.164V91.4566Z" fill="white"/>
<path d="M138.793 105.749L185.048 105.713C185.465 105.707 185.862 105.538 186.154 105.241C186.446 104.944 186.61 104.544 186.61 104.127C186.61 103.71 186.446 103.31 186.154 103.013C185.862 102.716 185.465 102.547 185.048 102.541L138.793 102.576C138.373 102.576 137.97 102.743 137.673 103.041C137.376 103.338 137.209 103.742 137.209 104.162C137.209 104.583 137.376 104.987 137.673 105.284C137.97 105.582 138.373 105.749 138.793 105.749ZM138.793 94.6647L185.048 94.6294C185.465 94.6234 185.862 94.4536 186.154 94.1567C186.446 93.8599 186.61 93.4598 186.61 93.043C186.61 92.6262 186.446 92.2262 186.154 91.9293C185.862 91.6325 185.465 91.4626 185.048 91.4566L138.793 91.4919C138.583 91.4888 138.375 91.5276 138.18 91.6059C137.985 91.6843 137.808 91.8006 137.658 91.9483C137.508 92.0959 137.389 92.2718 137.308 92.4658C137.227 92.6598 137.186 92.868 137.186 93.0783C137.186 93.2886 137.227 93.4968 137.308 93.6908C137.389 93.8848 137.508 94.0607 137.658 94.2083C137.808 94.3559 137.985 94.4723 138.18 94.5506C138.375 94.629 138.583 94.6678 138.793 94.6647ZM158.66 127.899H205.169C205.585 127.893 205.982 127.723 206.274 127.426C206.567 127.13 206.73 126.73 206.73 126.313C206.73 125.896 206.567 125.496 206.274 125.199C205.982 124.902 205.585 124.732 205.169 124.726H158.66C158.45 124.723 158.242 124.762 158.047 124.84C157.852 124.919 157.675 125.035 157.525 125.183C157.375 125.33 157.256 125.506 157.175 125.7C157.094 125.894 157.053 126.102 157.053 126.313C157.053 126.523 157.094 126.731 157.175 126.925C157.256 127.119 157.375 127.295 157.525 127.443C157.675 127.59 157.852 127.707 158.047 127.785C158.242 127.863 158.45 127.902 158.66 127.899ZM138.793 127.899H150.7C150.91 127.902 151.118 127.863 151.313 127.785C151.508 127.707 151.686 127.59 151.835 127.443C151.985 127.295 152.104 127.119 152.185 126.925C152.266 126.731 152.308 126.523 152.308 126.313C152.308 126.102 152.266 125.894 152.185 125.7C152.104 125.506 151.985 125.33 151.835 125.183C151.686 125.035 151.508 124.919 151.313 124.84C151.118 124.762 150.91 124.723 150.7 124.726H138.793C138.583 124.723 138.375 124.762 138.18 124.84C137.985 124.919 137.808 125.035 137.658 125.183C137.508 125.33 137.389 125.506 137.308 125.7C137.227 125.894 137.186 126.102 137.186 126.313C137.186 126.523 137.227 126.731 137.308 126.925C137.389 127.119 137.508 127.295 137.658 127.443C137.808 127.59 137.985 127.707 138.18 127.785C138.375 127.863 138.583 127.902 138.793 127.899ZM138.793 116.824L205.169 116.806C205.589 116.806 205.992 116.639 206.289 116.342C206.586 116.044 206.753 115.641 206.753 115.22C206.753 114.799 206.586 114.396 206.289 114.098C205.992 113.8 205.589 113.633 205.169 113.633L138.793 113.651C138.583 113.648 138.375 113.687 138.18 113.765C137.985 113.843 137.808 113.96 137.658 114.107C137.508 114.255 137.389 114.431 137.308 114.625C137.227 114.819 137.186 115.027 137.186 115.237C137.186 115.448 137.227 115.656 137.308 115.85C137.389 116.044 137.508 116.22 137.658 116.368C137.808 116.515 137.985 116.631 138.18 116.71C138.375 116.788 138.583 116.827 138.793 116.824Z" fill="#B4F1F4"/>
<path d="M245.952 91.5574H342.345C343.504 91.5574 344.652 91.786 345.724 92.2302C346.795 92.6744 347.768 93.3254 348.588 94.1462C349.408 94.967 350.058 95.9413 350.502 97.0137C350.945 98.0861 351.174 99.2355 351.174 100.396V280.783C351.174 281.944 350.945 283.093 350.502 284.165C350.058 285.238 349.408 286.212 348.588 287.033C347.768 287.854 346.795 288.505 345.724 288.949C344.652 289.393 343.504 289.622 342.345 289.622H245.952C244.793 289.622 243.644 289.393 242.573 288.949C241.502 288.505 240.529 287.854 239.709 287.033C238.889 286.212 238.239 285.238 237.795 284.165C237.351 283.093 237.123 281.944 237.123 280.783V100.396C237.123 99.2355 237.351 98.0861 237.795 97.0137C238.239 95.9413 238.889 94.967 239.709 94.1462C240.529 93.3254 241.502 92.6744 242.573 92.2302C243.644 91.786 244.793 91.5574 245.952 91.5574Z" fill="white"/>
<path d="M342.346 291.134H245.953C243.211 291.131 240.583 290.039 238.645 288.099C236.707 286.158 235.616 283.527 235.613 280.783V100.396C235.616 97.6519 236.707 95.021 238.645 93.0805C240.583 91.14 243.211 90.0485 245.953 90.0454H342.346C345.087 90.0486 347.715 91.1401 349.653 93.0806C351.591 95.0211 352.682 97.652 352.685 100.396V280.783C352.682 283.527 351.591 286.158 349.653 288.098C347.715 290.039 345.087 291.131 342.346 291.134ZM245.953 93.0694C244.012 93.0715 242.152 93.8441 240.78 95.2177C239.408 96.5913 238.636 98.4537 238.634 100.396V280.783C238.636 282.725 239.408 284.588 240.78 285.961C242.152 287.335 244.012 288.107 245.953 288.11H342.346C344.286 288.107 346.146 287.335 347.518 285.961C348.89 284.588 349.662 282.725 349.664 280.783V100.396C349.662 98.4537 348.89 96.5913 347.518 95.2177C346.146 93.8441 344.286 93.0715 342.345 93.0694H245.953Z" fill="#004381"/>
<path d="M317.5 103.323H270.797C269.597 103.323 268.42 102.99 267.398 102.36C266.375 101.731 265.547 100.83 265.006 99.7571L260.867 91.5574H327.429L323.29 99.7571C322.749 100.83 321.921 101.731 320.899 102.36C319.876 102.99 318.7 103.323 317.5 103.323Z" fill="#004381"/>
<path d="M350.53 98.2717C350.02 96.4014 348.909 94.751 347.37 93.5744C345.831 92.3977 343.948 91.7602 342.012 91.76H245.619C243.683 91.7603 241.8 92.3979 240.261 93.5745C238.722 94.7511 237.612 96.4015 237.102 98.2717H350.53ZM237.102 283.312C237.612 285.182 238.722 286.832 240.261 288.009C241.8 289.186 243.683 289.823 245.619 289.824H342.012C343.948 289.823 345.831 289.186 347.37 288.009C348.909 286.832 350.019 285.182 350.529 283.312H237.102Z" fill="#004381"/>
<path d="M293.21 98.0281H279.441C279.285 98.0281 279.136 97.9661 279.026 97.8558C278.915 97.7456 278.854 97.596 278.854 97.4401C278.854 97.2841 278.915 97.1346 279.026 97.0243C279.136 96.914 279.285 96.8521 279.441 96.8521H293.21C293.365 96.8521 293.515 96.914 293.625 97.0243C293.735 97.1346 293.797 97.2841 293.797 97.4401C293.797 97.596 293.735 97.7456 293.625 97.8558C293.515 97.9661 293.365 98.0281 293.21 98.0281Z" fill="white"/>
<path d="M300.285 98.2717C300.744 98.2717 301.116 97.8995 301.116 97.4404C301.116 96.9813 300.744 96.6091 300.285 96.6091C299.827 96.6091 299.455 96.9813 299.455 97.4404C299.455 97.8995 299.827 98.2717 300.285 98.2717Z" fill="white"/>
<path d="M308.857 97.4401C308.857 97.7624 308.762 98.0774 308.583 98.3454C308.404 98.6134 308.15 98.8223 307.852 98.9456C307.555 99.0689 307.228 99.1012 306.912 99.0383C306.596 98.9755 306.306 98.8203 306.078 98.5924C305.851 98.3645 305.696 98.0741 305.633 97.758C305.57 97.4419 305.602 97.1142 305.725 96.8164C305.849 96.5187 306.057 96.2642 306.325 96.0851C306.593 95.906 306.907 95.8105 307.229 95.8105C307.443 95.8105 307.655 95.8526 307.852 95.9345C308.05 96.0164 308.229 96.1364 308.38 96.2878C308.532 96.4391 308.651 96.6187 308.733 96.8164C308.815 97.0141 308.857 97.2261 308.857 97.4401Z" fill="white"/>
<path d="M208.837 185.94C208.837 185.94 206.697 173.134 206.323 172.872C205.737 172.461 203.604 174.762 203.14 175.596C201.866 177.889 199.876 184.298 198.917 187.959C198.247 189.653 197.846 194.674 197.052 198.451C196.933 199.018 197.56 204.033 197.56 204.033L198.39 204.12C198.39 204.12 202.081 200.773 203.191 200.022C203.548 199.779 203.825 199.435 203.985 199.034L208.721 187.134C208.871 186.755 208.912 186.341 208.837 185.94Z" fill="#00C18D"/>
<path d="M219.098 175.594C216.933 175.684 213.05 172.107 212.236 170.758C212.236 170.758 213.102 169.785 213.999 169.484C219.336 167.693 218.947 167.262 223.294 169.111C223.808 169.33 225.469 169.963 225.469 169.963C225.432 170.143 221.003 175.516 219.099 175.595L219.098 175.594Z" fill="#C2866E"/>
<path d="M219.412 173.854C219.987 173.786 220.542 173.602 221.042 173.312C221.543 173.023 221.98 172.633 222.325 172.169C222.671 171.704 222.918 171.174 223.052 170.611C223.185 170.047 223.203 169.463 223.103 168.892L222.194 163.701L214.322 164.518L214.673 169.903C214.71 170.48 214.864 171.043 215.126 171.557C215.388 172.072 215.751 172.528 216.195 172.898C216.638 173.268 217.152 173.543 217.705 173.707C218.259 173.872 218.839 173.922 219.412 173.854Z" fill="url(#paint1_linear_2042_8105)"/>
<path d="M229.517 274.38L228.405 286.813L224.69 286.97L224.24 281.075L225.611 277.124L229.517 274.38Z" fill="#00D89E"/>
<path d="M205.466 212.51L204.176 221.238L203.984 229.878H233.025L232.218 222.916L229.923 211.706L205.466 212.51Z" fill="#00649F"/>
<path d="M205.063 173.422C205.908 172.243 214.099 169.013 214.099 169.013C214.099 169.013 214.207 170.514 214.774 171.404C215.967 173.283 220.641 173.809 222.054 172.082C222.759 171.22 224.015 169.189 224.015 169.189C224.015 169.189 228.474 170.911 230.632 172.278C232.014 173.153 233.629 181.496 233.024 190.083C232.241 201.2 231.412 214.119 231.412 214.119L204.623 213.387L205.089 187.73C205.089 187.73 204.268 174.529 205.063 173.422Z" fill="url(#paint2_linear_2042_8105)"/>
<path d="M229.201 283.639C229.201 283.639 231.539 280.388 231.949 262.409C231.988 260.71 229.835 251.195 227.048 250.297C225.561 249.817 222.879 251.031 221.983 252.293C218.984 256.518 223.721 283.639 223.721 283.639H229.201Z" fill="#00649F"/>
<path d="M215.5 277.105L215.07 286.95L210.533 286.01L210.473 278.377L215.5 277.105Z" fill="#00D89E"/>
<path d="M208.007 251.846C207.168 255.327 207.528 264.65 207.528 264.65L210.058 282.858L216.252 283.168L217.639 259.347C217.639 259.347 216.761 252.738 215.92 251.446C215.122 250.22 208.722 248.881 208.007 251.846Z" fill="#00649F"/>
<path d="M209.253 284.32C202.926 287.993 202.645 285.944 200.768 287.396C200.479 287.667 200.279 288.019 200.194 288.407C200.102 288.745 200.767 290.413 200.767 290.413L216.129 289.541C216.421 289.054 216.468 287.665 216.41 287.258C216.312 286.569 215.607 284.003 215.607 284.003L215.383 284.008C215.283 284.01 215.186 284.033 215.095 284.074C215.005 284.116 214.924 284.175 214.857 284.249C213.643 285.594 211.588 284.755 210.787 284.127C210.477 283.884 210.969 283.338 210.113 283.453C209.86 283.487 209.463 284.198 209.253 284.32H209.253Z" fill="#004381"/>
<path d="M200.396 289.388C200.396 289.388 200.682 289.7 201.997 289.7C213.039 289.7 216.129 289.541 216.129 289.541L215.789 290.956L200.897 290.779L200.396 289.388Z" fill="#B4F1F4"/>
<path d="M209.857 285.303C209.837 285.303 209.817 285.299 209.798 285.29C209.78 285.282 209.763 285.27 209.749 285.254C209.438 284.94 209.071 284.687 208.666 284.507C208.649 284.5 208.633 284.489 208.62 284.476C208.606 284.462 208.596 284.446 208.589 284.428C208.582 284.411 208.578 284.392 208.579 284.373C208.579 284.354 208.583 284.335 208.59 284.318C208.598 284.3 208.608 284.284 208.622 284.271C208.635 284.258 208.652 284.247 208.669 284.24C208.687 284.233 208.706 284.229 208.725 284.23C208.744 284.23 208.762 284.234 208.78 284.241C209.224 284.437 209.626 284.715 209.965 285.062C209.984 285.083 209.996 285.109 210 285.137C210.005 285.164 210.001 285.192 209.989 285.218C209.978 285.243 209.959 285.265 209.936 285.28C209.913 285.295 209.885 285.303 209.857 285.303ZM209.049 286.154C209.025 286.154 209.001 286.148 208.98 286.137C208.521 285.832 208.136 285.427 207.854 284.952C207.844 284.936 207.838 284.918 207.835 284.899C207.832 284.88 207.833 284.861 207.838 284.843C207.843 284.824 207.851 284.807 207.862 284.792C207.874 284.777 207.888 284.764 207.904 284.754C207.92 284.744 207.938 284.738 207.957 284.735C207.976 284.732 207.995 284.733 208.014 284.738C208.032 284.743 208.049 284.751 208.064 284.762C208.08 284.774 208.092 284.788 208.102 284.804C208.359 285.233 208.705 285.601 209.118 285.883C209.146 285.898 209.169 285.922 209.181 285.952C209.194 285.981 209.197 286.014 209.189 286.045C209.181 286.076 209.163 286.104 209.138 286.124C209.113 286.143 209.081 286.154 209.049 286.154V286.154ZM207.737 286.67C207.702 286.669 207.669 286.657 207.643 286.634C207.324 286.291 207.107 285.865 207.018 285.405C207.015 285.386 207.015 285.367 207.018 285.348C207.022 285.33 207.029 285.312 207.04 285.296C207.051 285.28 207.064 285.267 207.08 285.256C207.096 285.246 207.113 285.238 207.132 285.235C207.151 285.231 207.17 285.231 207.188 285.235C207.207 285.238 207.225 285.246 207.24 285.256C207.256 285.267 207.27 285.281 207.28 285.296C207.291 285.312 207.298 285.33 207.302 285.348C207.379 285.745 207.562 286.114 207.831 286.415C207.853 286.434 207.869 286.46 207.877 286.489C207.884 286.517 207.883 286.548 207.872 286.575C207.862 286.603 207.844 286.627 207.819 286.644C207.795 286.661 207.766 286.67 207.737 286.67Z" fill="#8CEAE7"/>
<path d="M224.224 284.814L223.436 287.585C223.266 288.179 222.983 288.734 222.602 289.22C222.488 289.364 222.407 289.531 222.365 289.71C222.323 289.889 222.321 290.074 222.359 290.254L222.826 291.457L230.039 291.599L230.485 290.66C230.561 290.501 230.602 290.328 230.606 290.153C230.61 289.977 230.576 289.803 230.507 289.641L230.232 288.989C230.07 288.608 229.636 287.975 229.578 287.568C229.48 286.88 229.167 284.814 229.167 284.814L228.701 284.912C228.603 284.932 228.502 284.931 228.404 284.908C228.307 284.884 228.216 284.84 228.138 284.778C227.891 284.578 227.606 284.431 227.3 284.346C226.994 284.261 226.674 284.239 226.36 284.282C225.944 284.416 225.546 284.601 225.175 284.834C225.034 284.913 224.87 284.94 224.711 284.909L224.224 284.814Z" fill="#004381"/>
<path d="M222.33 290.042C222.33 290.042 222.795 290.713 223.165 290.72C224.411 290.746 224.81 290.312 226.467 290.312C227.755 290.312 229.177 290.79 229.878 290.816C230.11 290.754 230.331 290.658 230.536 290.533C230.364 291.012 230.154 291.478 229.908 291.924C229.715 292.087 229.466 292.169 229.214 292.154C228.551 292.154 227.083 292.146 226.42 292.154C225.777 292.161 224.805 292.228 223.64 292.154C223.474 292.143 223.313 292.09 223.172 292.001C223.032 291.912 222.916 291.789 222.835 291.643C222.314 290.464 222.33 290.042 222.33 290.042L222.33 290.042Z" fill="#B4F1F4"/>
<path d="M228.405 288.272C228.377 288.272 228.349 288.264 228.326 288.249C226.704 287.198 224.965 288.073 224.948 288.082C224.914 288.099 224.874 288.103 224.838 288.091C224.801 288.079 224.771 288.053 224.753 288.019C224.736 287.985 224.733 287.946 224.744 287.909C224.756 287.873 224.782 287.842 224.816 287.825C224.893 287.785 226.722 286.865 228.483 288.006C228.509 288.023 228.529 288.048 228.54 288.077C228.551 288.107 228.552 288.139 228.543 288.169C228.535 288.199 228.516 288.225 228.491 288.244C228.466 288.262 228.436 288.272 228.405 288.272ZM228.783 287.337C228.752 287.337 228.723 287.327 228.698 287.309C227.01 286.09 224.692 287.206 224.669 287.218C224.652 287.226 224.634 287.231 224.615 287.232C224.596 287.233 224.577 287.231 224.559 287.225C224.541 287.219 224.524 287.209 224.51 287.197C224.496 287.184 224.484 287.169 224.476 287.152C224.467 287.135 224.462 287.116 224.461 287.097C224.46 287.078 224.463 287.059 224.469 287.041C224.475 287.023 224.484 287.007 224.497 286.993C224.509 286.978 224.525 286.967 224.542 286.958C224.643 286.908 227.037 285.753 228.867 287.075C228.892 287.093 228.91 287.118 228.92 287.147C228.929 287.176 228.929 287.207 228.92 287.237C228.911 287.266 228.892 287.291 228.868 287.309C228.843 287.327 228.813 287.337 228.783 287.337ZM228.405 286.31C228.377 286.31 228.35 286.303 228.327 286.288C226.566 285.173 225.208 286.21 225.195 286.221C225.165 286.244 225.127 286.255 225.089 286.25C225.05 286.246 225.016 286.226 224.992 286.196C224.969 286.166 224.958 286.127 224.963 286.089C224.967 286.051 224.987 286.016 225.017 285.993C225.032 285.981 226.549 284.821 228.482 286.043C228.508 286.06 228.529 286.085 228.54 286.114C228.552 286.144 228.553 286.176 228.544 286.206C228.535 286.236 228.517 286.263 228.492 286.282C228.467 286.301 228.436 286.311 228.405 286.31Z" fill="#8CEAE7"/>
<path d="M230.435 255.686L233.025 229.878L232.218 222.916L217.848 229.878L220.422 251.005L219.895 253.945L222.114 259.347L230.435 255.686ZM216.569 254.089L217.848 229.878H203.984L207.009 251.406L206.483 254.347L208.701 259.749L216.569 254.089Z" fill="#00649F"/>
<path d="M211.744 159.175C211.675 158.503 211.97 157.936 212.658 157.864C212.983 157.826 213.311 157.919 213.568 158.123C213.825 158.327 213.991 158.624 214.029 158.95C214.099 159.622 213.973 160.16 213.285 160.231C212.597 160.302 211.814 159.846 211.744 159.175Z" fill="#C2866E"/>
<path d="M218.839 167.257C217.22 167.45 213.888 165.941 213.462 163.564L212.311 156.779C211.84 154.149 214.599 151.699 216.542 151.382L217.427 151.29C220.184 151.004 222.596 153.032 222.674 155.703L222.939 162.579C223.009 164.994 220.382 167.073 218.839 167.257Z" fill="#C2866E"/>
<path d="M223.953 158.054C223.978 158.406 223.867 158.753 223.644 159.025C223.421 159.297 223.102 159.473 222.754 159.517C222.401 159.539 222.511 157.142 222.621 157.105C223.278 156.881 223.859 157.385 223.953 158.054Z" fill="#C2866E"/>
<path d="M222.835 153.567C222.613 152.864 222.208 151.503 220.798 151.548C220.359 151.268 219.858 151.099 219.339 151.056C217.817 150.891 216.278 151.005 214.797 151.394C213.058 151.962 213.037 153.279 213.037 153.279C212.779 153.391 212.556 153.572 212.392 153.801C212.228 154.03 212.129 154.3 212.106 154.581C211.978 155.569 212.328 158.43 212.328 158.43L212.728 159.511L212.891 155.962C213.773 156.542 216.669 156.936 217.867 156.855C219.259 156.761 221.527 155.882 222.316 155.244L222.802 159.048C222.986 158.599 223.142 158.14 223.268 157.672C223.435 156.656 223.163 154.611 222.835 153.567Z" fill="#2E1709"/>
<path d="M237.346 217.946L233.639 213.147L236.911 199.766L243.211 200.172L237.346 217.946Z" fill="#C2866E"/>
<path d="M237.346 217.946L235.374 221.39C235.374 221.39 234.365 222.954 233.827 223.252C233.417 223.479 230.415 225.317 229.392 225.016C229.198 224.903 229.017 224.77 228.85 224.619C228.566 224.605 228.281 224.613 227.999 224.644C227.794 224.695 227.655 224.061 227.978 223.499C227.997 223.465 228.297 223.046 228.649 222.553C229.067 221.866 229.403 221.131 229.649 220.365C229.153 220.819 228.703 221.322 228.305 221.864C228.04 222.252 227.589 223.208 227.057 223.331C226.911 223.364 226.401 223.076 226.565 222.328C226.717 221.635 227.452 220.631 228.208 219.589C228.482 219.211 228.467 219.042 230.061 217.455C230.245 217.271 230.757 216.68 230.757 216.68L230.709 215.49L233.639 213.147L237.346 217.946Z" fill="#C2866E"/>
<path d="M219.602 196.582L214.642 197.382C214.524 197.401 214.403 197.396 214.286 197.369C214.17 197.341 214.06 197.29 213.963 197.22C213.866 197.15 213.783 197.061 213.72 196.959C213.658 196.857 213.615 196.743 213.596 196.625L211.914 186.163C211.876 185.923 211.934 185.679 212.075 185.483C212.217 185.286 212.431 185.154 212.67 185.116L217.63 184.316C217.748 184.297 217.869 184.302 217.985 184.329C218.102 184.357 218.212 184.407 218.309 184.478C218.406 184.548 218.489 184.637 218.551 184.739C218.614 184.841 218.656 184.954 218.675 185.073L220.358 195.535C220.377 195.654 220.372 195.775 220.345 195.891C220.317 196.008 220.267 196.118 220.196 196.215C220.126 196.313 220.038 196.395 219.936 196.458C219.834 196.521 219.72 196.563 219.602 196.582Z" fill="#005592"/>
<path d="M212.693 198.095L217.493 195.584C217.493 195.584 219.065 194.655 219.368 194.154C219.6 193.773 221.466 190.979 221.176 190.017C221.064 189.833 220.934 189.661 220.786 189.504C220.775 189.237 220.786 188.971 220.82 188.706C220.873 188.516 220.241 188.377 219.676 188.674C219.642 188.691 219.22 188.967 218.725 189.292C218.029 189.678 217.292 189.985 216.528 190.206C216.991 189.743 217.497 189.326 218.04 188.962C218.431 188.719 219.389 188.306 219.518 187.809C219.553 187.673 219.27 187.191 218.522 187.337C217.866 187.464 214.614 188.93 212.905 190.336C212.876 190.36 212.842 190.375 212.805 190.381C212.769 190.387 212.731 190.383 212.696 190.37C212.662 190.356 212.631 190.334 212.608 190.305C212.584 190.276 212.569 190.242 212.564 190.205L212.421 189.32C211.322 189.836 211.365 190.648 211.206 191.181C210.845 192.391 208.811 195.625 208.811 195.625L212.693 198.095Z" fill="#C2866E"/>
<path d="M214.334 198.47L209.226 194.022L204.799 195.499L197.229 201.135C197.229 201.135 197.524 204.599 197.842 205.076C198.213 205.63 199.508 206.66 200.203 206.312C204.076 204.378 214.334 198.47 214.334 198.47ZM229.987 184.211C230.39 187.107 235.479 198.984 235.479 198.984L233.258 212.632L238.97 215.767L244.363 199.326C244.363 199.326 240.809 181.46 234.239 174.803C233.161 173.795 231.947 172.945 230.633 172.278C230.633 172.278 229.602 181.439 229.987 184.211Z" fill="#00C18D"/>
<path d="M383.115 141.923C383.115 141.923 389.571 155.901 391.473 157.941C393.079 155.901 401.18 148.583 401.836 148.362C402.493 148.141 406.421 149.322 403.757 150.692C401.094 152.062 396.059 161.077 392.088 163.037C388.652 164.733 380.197 152.913 380.197 152.913L383.115 141.923Z" fill="#FFD0CE"/>
<path d="M364.687 132.801C365.017 132.176 365.16 131.47 365.101 130.765C365.041 130.061 364.78 129.389 364.349 128.829C363.347 127.512 362.736 125.938 362.587 124.289C362.173 120.172 365.356 115.685 368.59 115.358C371.824 115.032 376.262 117.112 376.676 121.229C377.252 126.941 369.868 133.558 369.524 136.42C368.424 145.546 374.239 145.433 370.548 145.216C368.357 145.088 364.82 142.782 363.764 138.645C363.249 136.629 363.838 134.347 364.687 132.801Z" fill="#0050B2"/>
<path d="M373.014 118.72C371.323 121.192 371.259 125.232 373.529 127.061C375.493 128.644 382.804 127.558 383.335 127.473C388.319 126.672 386.606 121.231 385.007 119.081C382.32 115.466 376.169 114.107 373.014 118.72Z" fill="#0050B2"/>
<path d="M375.685 145.056C378.117 145.131 381.878 142.638 382.78 141.229C382.78 141.229 380.602 137.685 379.977 137.495C375.883 136.25 376.12 136.645 371.254 138.603C370.678 138.835 370.709 141.535 370.709 141.535C370.752 141.721 373.547 144.989 375.685 145.056Z" fill="url(#paint3_linear_2042_8105)"/>
<path d="M374.757 128.069L380.041 132.398C380.074 132.395 380.108 132.399 380.14 132.409C380.171 132.42 380.201 132.436 380.226 132.458C380.252 132.48 380.273 132.507 380.288 132.537C380.303 132.566 380.312 132.599 380.314 132.632L380.23 138.689C380.348 140.246 379.631 140.335 378.075 140.453C376.519 140.572 374.77 139.435 374.652 137.877L374.522 128.343C374.52 128.309 374.524 128.276 374.534 128.244C374.545 128.212 374.561 128.183 374.583 128.157C374.605 128.132 374.632 128.111 374.661 128.096C374.691 128.081 374.723 128.072 374.757 128.069Z" fill="url(#paint4_linear_2042_8105)"/>
<path d="M373.241 127.687C373.307 127.934 373.445 128.155 373.637 128.323C373.828 128.49 374.066 128.598 374.318 128.631C374.571 128.664 374.827 128.622 375.056 128.51C375.285 128.397 375.475 128.219 375.603 127.999C375.731 127.778 375.791 127.525 375.775 127.27C375.759 127.016 375.669 126.771 375.515 126.568C375.361 126.365 375.15 126.212 374.909 126.129C374.668 126.045 374.409 126.035 374.162 126.099C373.997 126.143 373.843 126.219 373.707 126.322C373.572 126.426 373.458 126.555 373.373 126.702C373.287 126.85 373.231 127.013 373.209 127.182C373.186 127.351 373.197 127.523 373.241 127.687Z" fill="url(#paint5_linear_2042_8105)"/>
<path d="M385.821 126.592C386.396 131.004 383.68 134.444 381.894 134.352C378.167 134.16 375.436 131.868 374.861 127.456C374.286 123.045 376.318 119.711 379.329 119.317C382.339 118.924 385.246 122.181 385.821 126.592Z" fill="#FFD0CE"/>
<path d="M375.998 118.487C372.602 120.576 374.014 125.897 374.162 126.099C374.292 126.247 374.457 126.358 374.643 126.421C374.828 126.485 375.027 126.499 375.22 126.462C378.828 124.619 381.712 121.077 381.712 121.077C381.712 121.077 385.218 121.371 385.889 127.362C389.194 118.641 380.927 115.456 375.998 118.487Z" fill="#0050B2"/>
<path d="M411.796 189.926C411.936 181.024 387.035 172.631 387.035 172.631C385.608 168.339 384.088 164.475 384.088 164.475L364.966 166.425C364.966 166.425 361.19 176.141 363.081 182.748C364.763 188.628 395.109 193.401 395.109 193.401C395.109 193.401 392.025 204.76 393.271 219.861C393.71 225.31 393.855 230.779 393.705 236.244L398.189 234.867L399.388 224.649L403.813 191.217C403.813 191.217 402.493 207.345 405.513 223.977C405.987 226.584 404.458 229.736 404.458 229.736L406.801 230.535L409.432 229.193L409.855 218.765C409.855 218.765 411.686 196.965 411.796 189.926Z" fill="#FFD0CE"/>
<path d="M385.515 146.526C384.644 145.209 382.781 141.229 382.781 141.229C382.781 141.229 382.379 141.71 381.358 141.674C380.337 141.639 376.267 139.967 371.782 138.389C366.921 139.641 365.256 153.143 365.657 159.045C365.769 160.696 362.551 166.605 364.38 168.13C368.081 171.217 383.354 168.787 384.705 165.793C385.422 164.205 383.736 159.63 384.629 157.316C385.087 156.128 386.638 153.984 387.174 152.829C388.301 150.402 386.386 147.843 385.515 146.526Z" fill="url(#paint6_linear_2042_8105)"/>
<path d="M404.246 241.987L399.694 242.294C399.082 242.335 398.478 242.141 398.004 241.751L395.295 239.521L393.359 238.79L393.364 238.175C393.133 237.089 393.402 235.124 393.402 235.124C393.402 235.124 394.557 236.023 396.113 234.8C396.974 234.123 397.838 234.277 398.778 234.839L399.519 236.199L403.879 240.297C403.992 240.403 404.082 240.531 404.144 240.673C404.206 240.815 404.238 240.969 404.24 241.124L404.246 241.987ZM403.943 230.548L404.301 228.966L405.377 229.361C405.843 229.532 406.347 229.576 406.837 229.49C407.326 229.403 407.784 229.189 408.164 228.868L409.597 227.659L413.473 231.275C413.702 231.489 413.966 231.66 414.253 231.783L417.047 232.97C417.342 233.096 417.606 233.285 417.82 233.524C418.035 233.763 418.194 234.046 418.287 234.353C418.297 234.386 418.299 234.42 418.292 234.454C418.286 234.488 418.273 234.519 418.252 234.547C418.232 234.574 418.205 234.597 418.175 234.612C418.144 234.628 418.111 234.636 418.077 234.636L412.14 234.682C411.903 234.684 411.668 234.638 411.449 234.546L408.197 233.199L408.04 233.917L404.368 233.945C404.368 233.945 404.254 233.498 404.181 233.172C404.088 232.901 403.98 232.635 403.858 232.376C403.776 231.767 403.805 231.147 403.943 230.548ZM374.814 136.131L378.226 134.636C378.708 134.524 379.001 134.148 378.877 133.802L375.756 125.04C375.633 124.694 375.137 124.502 374.656 124.614L371.244 126.11C370.762 126.221 370.469 126.597 370.593 126.944L373.714 135.705C373.837 136.052 374.332 136.244 374.814 136.131Z" fill="#004381"/>
<path d="M364.379 168.13C364.379 168.13 357.966 183.489 366.581 189.089C372.444 192.901 395.109 193.401 395.109 193.401C395.109 193.401 399.416 184.329 407.382 182.947C400.087 176.993 387.035 172.631 387.035 172.631L384.704 165.793L364.379 168.13Z" fill="url(#paint7_linear_2042_8105)"/>
<path d="M365.657 147.985C365.657 147.985 363.588 161.345 365.98 163.513C368.371 165.681 372.216 149.458 372.216 149.458L365.657 147.985Z" fill="url(#paint8_linear_2042_8105)"/>
<path d="M371.255 138.603C371.255 138.603 364.826 140.462 364.826 150.617C368.518 152.969 371.782 150.449 371.782 150.449C371.782 150.449 375.816 142.437 371.255 138.603V138.603Z" fill="url(#paint9_linear_2042_8105)"/>
<path d="M373.798 128.783C373.798 128.783 372.178 130.976 372.234 133.513C372.289 136.05 373.183 139.057 372.695 140.893C372.282 142.444 361.427 163.597 367.496 164.771C373.566 165.945 375.173 142.266 375.919 140.63C376.644 139.041 377.773 136.115 376.637 134.793C375.335 133.279 375.236 129.231 375.046 128.681C374.681 127.627 373.798 128.783 373.798 128.783ZM410.197 146.836C410.154 146.785 410.111 146.79 410.1 146.775C410.076 146.744 410.145 146.675 410.132 146.638C410.098 146.573 410.042 146.523 409.974 146.497C409.907 146.47 409.832 146.469 409.763 146.493C409.385 146.596 409.041 146.8 408.77 147.084C408.445 147.242 408.107 147.375 407.761 147.48C408.243 147.019 408.805 146.652 409.419 146.396C409.644 146.323 409.871 146.004 409.205 145.983C408.326 145.955 406.89 147.073 406.034 147.295C404.83 147.608 402.882 147.165 402.149 147.995C400.744 149.582 400.911 150.047 400.846 150.869C400.885 150.967 400.904 151.071 400.901 151.177C400.898 151.282 400.874 151.386 400.83 151.481C400.736 151.711 402.609 151.608 403.756 150.692C403.907 150.547 404.297 150.782 405.697 150.525C406.655 150.349 407.089 149.819 407.42 149.725C408.69 149.366 409.033 148.693 409.314 148.561C409.607 148.423 409.552 148.16 409.263 148.206C408.917 148.3 408.599 148.475 408.334 148.718C408.334 148.718 409.117 148.181 409.345 148.067C409.489 147.994 409.823 147.477 410.036 147.316C410.087 147.278 410.311 146.975 410.197 146.836V146.836Z" fill="#FFD0CE"/>
<path d="M403.184 148.799C402.85 148.84 401.729 148.656 402.096 147.927C402.443 147.239 402.752 147.112 404.051 146.788C405.09 146.53 405.649 145.306 406.037 145.317C406.228 145.322 406.271 145.848 406.21 146.129C406.107 146.604 405.61 146.82 405.086 147.569C404.611 148.184 403.94 148.618 403.184 148.799Z" fill="url(#paint10_linear_2042_8105)"/>
<path d="M139.192 182.65L152.151 172.986L154.105 167.186L143.752 167.472L130.676 170.822L134.57 184.122L139.192 182.65Z" fill="#93E7F3"/>
<path d="M128.146 289.504L128.114 286.707L128.295 285.022L133.967 284.928C134.117 285.419 134.292 285.903 134.492 286.376C134.631 286.423 136.893 288.703 138.189 289.197C138.877 289.46 140.436 289.747 141.084 290.098C142.187 290.695 141.228 291.386 141.228 291.386L134.047 291.373L131.678 290.116L131.733 291.386H128.486L128.146 289.504ZM106.991 285.368L109.172 283.084C109.963 283.336 110.731 283.653 111.469 284.032C111.966 284.326 114.045 284.352 114.122 284.491C114.198 284.63 115.542 289.311 116.115 289.575C116.906 289.939 117.733 289.902 118.223 290.143C118.883 290.467 118.587 291.433 118.587 291.433L112.991 291.548L109.641 288.265L109.104 289.164L106.145 287.404L106.991 285.368Z" fill="#0096C6"/>
<path d="M127.956 178.13L119.726 175.687L119.418 165.019L127.057 167.221L128.955 174.211L127.956 178.13Z" fill="url(#paint11_linear_2042_8105)"/>
<path d="M120.15 175.558L127.646 176.331L132.792 172.3L129.947 189.151L120.15 175.558Z" fill="#93E7F3"/>
<path d="M106.898 220.499L98.1172 204.977L106.662 206.309L111.398 219.169L106.898 220.499Z" fill="#FFD0CE"/>
<path d="M114.884 215.971L111.621 229.311L114.562 255.779L112.089 261.562L107.9 283.669L111.94 285.262L114.59 285.225L122.933 259.796L124.169 258.164L126.771 240.915L128.053 253.322L128.281 257.092L127.151 263.853L127.509 285.738L132.859 286.128L134.608 285.859L136.783 260.769L138.603 257.765L138.146 213.501L114.884 215.971Z" fill="#00D0D3"/>
<path d="M107.684 178.876L118.878 173.012L123.793 175.513L130.788 183.239L128.607 172.504L129.224 170.591L132.356 170.429L138.081 190.605L138.606 214.697L133.502 216.515L114.007 217.732L111.943 203.843L111.926 197.913L107.684 178.876Z" fill="#1282C6"/>
<path d="M97.4512 205.314C97.4512 205.314 102.439 187.377 104.373 183.647C105.042 182.358 106.233 178.892 107.684 178.876C111.149 178.838 113.675 188.544 113.507 192.01C113.244 197.427 106.898 206.582 106.898 206.582L97.4512 205.314Z" fill="#93E7F3"/>
<path d="M119.711 164.641L123.917 169.518L129.996 167.886L130.11 167.113L129.243 166.62L128.868 163.474L130.339 162.427L127.733 159.731L125.681 155.602L120.876 157.709L118.812 158.612L118.102 159.572L119.711 164.641Z" fill="#FFD0CE"/>
<path d="M117.07 174.614L119.073 171.761L127.646 176.331L126.146 180.343L117.07 174.614ZM127.646 176.331L127.874 169.917L129.357 170.402L130.151 177.617L127.646 176.331Z" fill="#BCF1F7"/>
<path d="M111.188 218.99L113.94 220.561C113.94 220.561 115.631 222.647 115.811 223.179C115.877 223.377 115.505 223.857 115.5 224.838C115.483 225.05 115.41 225.252 115.288 225.426C115.166 225.599 115 225.736 114.808 225.824C114.531 226.009 114.411 226.257 113.883 226.785C113.395 226.889 112.894 226.911 112.399 226.85C112.257 226.803 111.065 226.386 110.862 226.037C110.701 225.72 110.628 225.365 110.65 225.011C110.636 224.619 110.784 224.513 110.98 224.487C111.229 224.453 111.475 224.733 111.674 225.446C111.674 225.446 112.23 225.689 112.284 225.494C112.399 225.082 111.291 224.44 110.813 224.184C110.019 223.758 108.875 224.078 108.301 223.477C107.442 222.578 106.898 220.499 106.898 220.499L111.188 218.99Z" fill="#FFD0CE"/>
<path d="M125.712 156.527C124.297 158.126 117.669 160.429 117.669 160.429C117.669 160.429 115.224 156.383 117.992 155.325C124.292 152.92 124.667 151.209 124.667 151.209C124.667 151.209 127.821 154.145 125.712 156.527Z" fill="#003977"/>
<path d="M119.866 164.962L119.477 167.058C119.477 167.058 116.919 165.413 115.903 164.221C114.017 162.011 113.72 159.517 116.62 156.549L117.263 157.22L120.102 161.666C120.545 162.613 120.462 163.773 119.866 164.962Z" fill="#003977"/>
<path d="M118.804 164.36C118.812 164.164 118.878 163.976 118.993 163.818C119.109 163.66 119.268 163.54 119.451 163.472C119.635 163.405 119.834 163.393 120.024 163.439C120.214 163.485 120.386 163.586 120.519 163.729C120.652 163.873 120.739 164.052 120.77 164.245C120.801 164.438 120.774 164.636 120.693 164.814C120.612 164.992 120.48 165.142 120.314 165.245C120.147 165.348 119.955 165.399 119.759 165.393C119.629 165.388 119.501 165.357 119.382 165.302C119.263 165.248 119.156 165.17 119.068 165.074C118.979 164.979 118.91 164.866 118.865 164.743C118.819 164.621 118.798 164.49 118.803 164.36H118.804Z" fill="url(#paint12_linear_2042_8105)"/>
<path d="M128.396 165.92L129.139 165.746L129.243 166.62L128.396 165.92Z" fill="#003977"/>
<path d="M136.744 158.736L144.344 167.909L153.589 167.224L146.078 159.884L138.832 155.454L136.744 158.736Z" fill="#FFD0CE"/>
<path d="M139.121 155.599C139.121 155.599 137.377 154.504 136.788 154.042C135.941 153.432 135.055 152.88 134.134 152.389C133.654 152.126 132.47 151.518 131.918 151.479C131.498 151.449 128.543 150.662 127.826 151.313C127.711 151.484 127.614 151.665 127.536 151.856C127.29 151.931 127.055 152.036 126.834 152.167C126.742 152.251 126.611 152.409 126.637 152.53C126.721 152.685 126.818 152.832 126.928 152.97C126.818 153.083 126.721 153.208 126.638 153.341C126.621 153.407 126.624 153.476 126.645 153.541C126.666 153.605 126.704 153.663 126.756 153.706C127.224 154.156 129.025 154.606 129.648 154.786C130.635 155.071 131.879 156.203 131.879 156.203C131.43 156.203 130.984 156.152 130.547 156.051C129.47 155.667 128.716 155.997 128.539 156.36C128.49 156.546 128.476 156.74 128.499 156.931C129.198 156.917 129.888 157.09 130.499 157.432C131.319 157.846 131.644 157.965 133 158.175C133.318 158.224 134.779 158.19 135.751 158.185C135.948 158.195 136.139 158.249 136.312 158.345C136.484 158.44 136.632 158.574 136.744 158.736L139.121 155.599Z" fill="#FFD0CE"/>
<path d="M69.209 291.013H469.05V294.382H69.209V291.013Z" fill="#E3EDF5"/>
<path d="M339.263 158.056C339.263 158.056 313.128 159.662 296.914 186.089C276.544 219.29 260.687 226.434 260.687 226.434C260.687 226.434 312.131 225.811 325.784 199.399C334.056 183.4 339.263 158.056 339.263 158.056ZM249.018 145.576C249.018 145.576 260.958 148.691 269.255 160.022C276.221 169.535 278.89 196.293 278.89 196.293C278.89 196.293 261.976 185.37 254.913 173.712C248.632 163.345 249.018 145.576 249.018 145.576Z" fill="#DCFAFB"/>
<defs>
<linearGradient id="paint0_linear_2042_8105" x1="366.029" y1="118.724" x2="366.029" y2="293.399" gradientUnits="userSpaceOnUse">
<stop stop-color="#BCF7E2"/>
<stop offset="1" stop-color="#A6EEE9"/>
</linearGradient>
<linearGradient id="paint1_linear_2042_8105" x1="218.745" y1="163.701" x2="218.745" y2="173.884" gradientUnits="userSpaceOnUse">
<stop stop-color="#B97663"/>
<stop offset="1" stop-color="#C2866E"/>
</linearGradient>
<linearGradient id="paint2_linear_2042_8105" x1="204.623" y1="191.566" x2="233.155" y2="191.566" gradientUnits="userSpaceOnUse">
<stop stop-color="#00D5AE"/>
<stop offset="1" stop-color="#00D89E"/>
</linearGradient>
<linearGradient id="paint3_linear_2042_8105" x1="373.796" y1="136.966" x2="391.92" y2="166.1" gradientUnits="userSpaceOnUse">
<stop stop-color="#FFD0CE"/>
<stop offset="1" stop-color="#F4AAA7"/>
</linearGradient>
<linearGradient id="paint4_linear_2042_8105" x1="375.213" y1="139.832" x2="378.314" y2="129.097" gradientUnits="userSpaceOnUse">
<stop stop-color="#FFD0CE"/>
<stop offset="1" stop-color="#F4AAA7"/>
</linearGradient>
<linearGradient id="paint5_linear_2042_8105" x1="375.71" y1="127.036" x2="373.211" y2="127.686" gradientUnits="userSpaceOnUse">
<stop stop-color="#FFD0CE"/>
<stop offset="1" stop-color="#F4AAA7"/>
</linearGradient>
<linearGradient id="paint6_linear_2042_8105" x1="387.54" y1="153.851" x2="363.72" y2="154.034" gradientUnits="userSpaceOnUse">
<stop stop-color="#00D5BA"/>
<stop offset="1" stop-color="#00D89E"/>
</linearGradient>
<linearGradient id="paint7_linear_2042_8105" x1="362.084" y1="179.597" x2="407.382" y2="179.597" gradientUnits="userSpaceOnUse">
<stop stop-color="#00ADD6"/>
<stop offset="1" stop-color="#00ADD6"/>
</linearGradient>
<linearGradient id="paint8_linear_2042_8105" x1="-519.818" y1="494.223" x2="-512.432" y2="493.984" gradientUnits="userSpaceOnUse">
<stop stop-color="#FFD0CE"/>
<stop offset="1" stop-color="#F4AAA7"/>
</linearGradient>
<linearGradient id="paint9_linear_2042_8105" x1="-1700.62" y1="235.865" x2="-1709.22" y2="235.931" gradientUnits="userSpaceOnUse">
<stop stop-color="#00D5BA"/>
<stop offset="1" stop-color="#00D89E"/>
</linearGradient>
<linearGradient id="paint10_linear_2042_8105" x1="406.145" y1="145.88" x2="399.167" y2="150.863" gradientUnits="userSpaceOnUse">
<stop stop-color="#FFD0CE"/>
<stop offset="1" stop-color="#F4AAA7"/>
</linearGradient>
<linearGradient id="paint11_linear_2042_8105" x1="125.679" y1="178.837" x2="121.215" y2="164.462" gradientUnits="userSpaceOnUse">
<stop stop-color="#FFD0CE"/>
<stop offset="1" stop-color="#F4AAA7"/>
</linearGradient>
<linearGradient id="paint12_linear_2042_8105" x1="120.721" y1="164.271" x2="118.743" y2="164.205" gradientUnits="userSpaceOnUse">
<stop stop-color="#FFD0CE"/>
<stop offset="1" stop-color="#F4AAA7"/>
</linearGradient>
</defs>
</svg>
