<svg width="39" height="30" viewBox="0 0 39 30" fill="none" xmlns="http://www.w3.org/2000/svg">
<path fill-rule="evenodd" clipRule="evenodd" d="M35.75 0C34.84 0 34.0275 0.3575 33.4425 0.9425L13 21.4175L5.5575 13.9425C4.9725 13.3575 4.16 13 3.25 13C1.4625 13 0 14.4625 0 16.25C0 17.16 0.3575 17.9725 0.9425 18.5575L10.6925 28.3075C11.2775 28.8925 12.09 29.25 13 29.25C13.91 29.25 14.7225 28.8925 15.3075 28.3075L38.0575 5.5575C38.6425 4.9725 39 4.16 39 3.25C39 1.4625 37.5375 0 35.75 0Z" fill="#5A9B48"/>
</svg>
