<svg width="18" height="18" viewBox="0 0 18 18" fill="none" xmlns="http://www.w3.org/2000/svg">
<path d="M13.2818 0.137756H4.71843C2.62194 0.137756 0.916016 1.84373 0.916016 3.94017V11.6465C0.916016 13.5274 2.28739 15.0941 4.08478 15.3957V16.5694C4.08478 17.0308 4.32044 17.444 4.71593 17.6797C4.92123 17.8013 5.14696 17.8623 5.37495 17.8623C5.58789 17.8623 5.79834 17.809 5.99349 17.7026L10.1256 15.4489H13.2816C15.3781 15.4489 17.084 13.743 17.084 11.6465V3.94021C17.084 1.84372 15.3782 0.137756 13.2818 0.137756Z" fill="#104651"/>
<path d="M10.8596 5.20963L9.00095 7.06522L7.14229 5.20963L6.04688 6.3048L7.90247 8.16364L6.04688 10.0223L7.14229 11.1175L9.00095 9.26211L10.8596 11.1175L11.955 10.0223L10.0994 8.16364L11.955 6.3048L10.8596 5.20963Z" fill="white"/>
</svg>
