  <svg
                                                                width="24"
                                                                height="24"
                                                                viewBox="0 0 24 24"
                                                                fill="none"
                                                                xmlns="http://www.w3.org/2000/svg"
                                                            >
                                                                <path
                                                                    d="M12.4171 0.290603C9.35851 0.290603 6.4253 1.50557 4.26246 3.6683C2.09973 5.83103 0.884766 8.7645 0.884766 11.8229C0.884766 14.8813 2.09973 17.8147 4.26246 19.9775C6.4252 22.1403 9.35866 23.3552 12.4171 23.3552C15.4755 23.3552 18.4089 22.1403 20.5717 19.9775C22.7344 17.8148 23.9494 14.8813 23.9494 11.8229C23.9494 9.79862 23.4165 7.80986 22.4045 6.05651C21.3922 4.30346 19.9363 2.84755 18.1833 1.83533C16.43 0.823255 14.4413 0.290405 12.4169 0.290405L12.4171 0.290603ZM17.3184 15.0869C17.5331 15.303 17.6538 15.5953 17.6538 15.8999C17.6538 16.2046 17.5331 16.4969 17.3184 16.7129C17.1018 16.9313 16.807 17.0541 16.4997 17.0541C16.1921 17.0541 15.8973 16.9313 15.6809 16.7129L12.4171 13.4491L9.16492 16.7129C8.94849 16.9313 8.65367 17.0541 8.34615 17.0541C8.03859 17.0541 7.74395 16.9313 7.52737 16.7129C7.31268 16.4969 7.19201 16.2046 7.19201 15.8999C7.19201 15.5953 7.31268 15.303 7.52737 15.0869L10.7911 11.8232L7.52737 8.55939C7.31268 8.34335 7.19201 8.05105 7.19201 7.7464C7.19201 7.44174 7.31268 7.14944 7.52737 6.93341C7.74399 6.71505 8.03862 6.59226 8.34615 6.59226C8.6537 6.59226 8.94854 6.71505 9.16492 6.93341L12.4171 10.1972L15.6693 6.93341C15.8858 6.71505 16.1806 6.59226 16.4881 6.59226C16.7957 6.59226 17.0903 6.71505 17.3069 6.93341C17.5216 7.14945 17.6422 7.44174 17.6422 7.7464C17.6422 8.05105 17.5216 8.34335 17.3069 8.55939L14.0547 11.8232L17.3184 15.0869Z"
                                                                    fill="#104651"
                                                                />
                                                            </svg>