<svg width="77" height="77" viewBox="0 0 77 77" fill="none" xmlns="http://www.w3.org/2000/svg">
<g opacity="0.1">
<circle cx="38.5" cy="38.5" r="38.5" fill="#EDD609"/>
</g>
<path d="M47.5061 55.176L47.0333 51.7326C46.5469 51.6181 46.0615 51.4108 45.5771 51.1108C45.0928 50.8108 44.6787 50.4754 44.335 50.1044L41.5958 50.7826L40.0754 48.0044L42.3927 45.6826C42.3084 45.4879 42.2707 45.1475 42.2796 44.6615C42.2884 44.1756 42.3261 43.8253 42.3927 43.6108L40.0958 41.2608L41.5958 38.5108L44.335 39.1608C44.6787 38.842 45.0913 38.5352 45.5729 38.2404C46.0544 37.9456 46.5412 37.7118 47.0333 37.5391L47.5061 34.0674H50.7772L51.2928 37.5391C51.748 37.7014 52.2243 37.9349 52.7218 38.2396C53.2193 38.5442 53.6403 38.8513 53.9851 39.1608L56.6773 38.5108L58.2507 41.2391L55.8805 43.6108C56.0136 43.8657 56.0714 44.2211 56.0537 44.677C56.036 45.1329 55.9783 45.4681 55.8805 45.6826L58.2303 48.0044L56.6773 50.7826L53.9851 50.1044C53.6413 50.4754 53.2205 50.8025 52.7225 51.0858C52.2245 51.3692 51.748 51.5848 51.2928 51.7326L50.7772 55.1761L47.5061 55.176ZM18.8268 53.3V47.6463C18.8268 46.2517 19.1678 45.0222 19.85 43.958C20.5322 42.8938 21.3955 42.1049 22.4402 41.5913C24.7772 40.4522 26.9633 39.6471 28.9986 39.176C31.034 38.705 32.9322 38.4695 34.6933 38.4695C34.9091 38.4695 35.1671 38.4742 35.4674 38.4836C35.7677 38.4931 36.036 38.4811 36.2725 38.4478C35.3145 40.5043 34.8736 43.0761 34.9497 46.163C35.0258 49.25 35.7548 51.629 37.1365 53.3H18.8268ZM49.171 48.5282C50.2649 48.5282 51.1413 48.174 51.8003 47.4655C52.4592 46.757 52.7887 45.8171 52.7887 44.6459C52.7887 43.4936 52.4566 42.554 51.7924 41.8271C51.1282 41.1003 50.2491 40.7369 49.1552 40.7369C48.0436 40.7369 47.1583 41.1031 46.4994 41.8355C45.8404 42.568 45.5109 43.5104 45.5109 44.6627C45.5109 45.8339 45.843 46.771 46.5072 47.4739C47.1715 48.1768 48.0594 48.5282 49.171 48.5282ZM34.7154 35.2804C32.3938 35.2804 30.5026 34.5013 29.0418 32.943C27.581 31.3848 26.8505 29.377 26.8505 26.9195C26.8505 24.4432 27.581 22.4307 29.0418 20.8819C30.5026 19.3331 32.3938 18.5586 34.7154 18.5586C37.0192 18.5586 38.906 19.3331 40.3757 20.8819C41.8453 22.4307 42.5802 24.4432 42.5802 26.9195C42.5802 29.377 41.8453 31.3848 40.3757 32.943C38.906 34.5013 37.0192 35.2804 34.7154 35.2804Z" fill="#EDD609"/>
</svg>
