<svg width="29" height="25" viewBox="0 0 29 25" fill="none" xmlns="http://www.w3.org/2000/svg">
<path d="M17.858 3.57143H15.1793V2.6788C15.1793 1.19666 13.9828 0 12.5005 0H9.82166C8.33951 0 7.14286 1.19643 7.14286 2.6788V3.57143H4.46406C1.9996 3.57143 0 5.57148 0 8.03549V8.44626C0 9.75873 0.946428 10.8748 2.24099 11.0892L7.20504 11.9196C7.46413 10.7231 8.53549 9.82138 9.82114 9.82138H12.4999C13.7857 9.82138 14.857 10.7233 15.116 11.9196L20.0801 11.0892C21.3747 10.8748 22.3211 9.75873 22.3211 8.44626V8.03549C22.3211 5.57103 20.321 3.57143 17.857 3.57143H17.858ZM13.394 3.57143H8.92993V2.6788C8.92993 2.18764 9.33185 1.78617 9.82256 1.78617H12.5014C12.9925 1.78617 13.394 2.18808 13.394 2.6788V3.57143Z" fill="#79A9F0"/>
<path d="M16.0728 19.6427C16.0728 16.646 17.9206 14.0841 20.5369 13.0243V12.8037C20.4833 12.8214 20.4299 12.8396 20.3763 12.8484L15.1532 13.7145C15.0015 15.0449 13.8763 16.0715 12.5014 16.0715H9.8226C8.44765 16.0715 7.32248 15.0449 7.17084 13.7145L1.94765 12.8484C1.89406 12.8396 1.8407 12.8219 1.78711 12.8037V16.9644C1.78711 19.4289 3.78717 21.4285 6.25117 21.4285H16.0726C16.1508 21.4285 16.2236 21.4094 16.3009 21.4052C16.1574 20.8406 16.0726 20.2519 16.0726 19.6428L16.0728 19.6427Z" fill="#79A9F0"/>
<path d="M23.2146 14.2856C20.2609 14.2856 17.8574 16.6892 17.8574 19.6428C17.8574 22.5964 20.2609 24.9999 23.2146 24.9999C26.1682 24.9999 28.5717 22.5964 28.5717 19.6428C28.5717 16.6892 26.1682 14.2856 23.2146 14.2856ZM25.6316 19.2621L23.2504 21.6431C23.0762 21.8173 22.8476 21.9046 22.6191 21.9046C22.3906 21.9046 22.1623 21.8173 21.9878 21.6431L20.7975 20.4528C20.4485 20.1038 20.4485 19.5392 20.7975 19.1904C21.1465 18.8414 21.7112 18.8414 22.06 19.1904L22.6191 19.7495L24.3689 17.9999C24.7179 17.6509 25.2826 17.6509 25.6314 17.9999C25.9804 18.3489 25.9804 18.9142 25.6314 19.2624L25.6316 19.2621Z" fill="#79A9F0"/>
<path d="M9.82232 11.6072H12.5011C12.994 11.6072 13.3937 12.1001 13.3937 12.4998V13.3931C13.3937 13.886 12.994 14.2857 12.5011 14.2857H9.82232C9.32939 14.2857 8.92969 13.7928 8.92969 13.3931V12.4998C8.92969 12.0069 9.32939 11.6072 9.82232 11.6072Z" fill="#79A9F0"/>
</svg>
