<svg width="8" height="8" viewBox="0 0 8 8" fill="none" xmlns="http://www.w3.org/2000/svg">
<path d="M4.83904 3.73992L7.2874 1.29514C7.38604 1.19657 7.42449 1.05283 7.38844 0.918141C7.35233 0.783517 7.24713 0.67831 7.11253 0.642198C6.97785 0.60615 6.83413 0.644605 6.73556 0.743247L4.29103 3.19186L1.84649 0.743247C1.74792 0.644605 1.6042 0.60615 1.46953 0.642198C1.33492 0.67831 1.22972 0.783524 1.19361 0.918141C1.15757 1.05283 1.19602 1.19657 1.29465 1.29514L3.74301 3.73992L1.29465 6.1847C1.22106 6.25771 1.17969 6.35707 1.17969 6.46065C1.17969 6.5643 1.22107 6.66366 1.29465 6.73659C1.36758 6.81018 1.46693 6.85156 1.57056 6.85156C1.67414 6.85156 1.7735 6.81018 1.84648 6.73659L4.29102 4.28798L6.73555 6.73659C6.80855 6.81018 6.9079 6.85156 7.01147 6.85156C7.11511 6.85156 7.21446 6.81018 7.28738 6.73659C7.36097 6.66365 7.40234 6.56429 7.40234 6.46065C7.40234 6.35706 7.36096 6.25769 7.28738 6.1847L4.83904 3.73992Z" fill="#104651" stroke="#104651"/>
</svg>
