<svg width="22" height="22" viewBox="0 0 22 22" fill="none" xmlns="http://www.w3.org/2000/svg">
<path d="M4.56442 0C4.31332 0 4.09375 0.219794 4.09375 0.470669V3.95428C4.09375 4.20538 4.31354 4.42495 4.56442 4.42495H5.22359C5.47469 4.42495 5.69426 4.20516 5.69426 3.95428V0.470893C5.69426 0.219794 5.47447 0.000224048 5.22359 0.000224048L4.56442 0Z" fill="#104651"/>
<path d="M16.8047 0C16.5536 0 16.334 0.219794 16.334 0.470669V3.95428C16.334 4.20538 16.5538 4.42495 16.8047 4.42495H17.4638C17.7149 4.42495 17.9345 4.20516 17.9345 3.95428V0.470893C17.9345 0.219794 17.7147 0.000224048 17.4638 0.000224048L16.8047 0Z" fill="#104651"/>
<path fill-rule="evenodd" clip-rule="evenodd" d="M19.709 1.86914H18.5478V3.90898C18.5478 4.50533 18.0771 5.00753 17.4492 5.00753H16.7901C16.1937 5.00753 15.6915 4.53686 15.6915 3.90898L15.692 1.86914H6.30817V3.90898C6.30817 4.50533 5.8375 5.00753 5.20962 5.00753H4.55045C3.9541 5.00753 3.4519 4.53686 3.4519 3.90898L3.45212 1.86914H2.29097C1.03572 1.86914 0 2.90481 0 4.16011V19.3813C0 20.6365 1.03567 21.6723 2.29097 21.6723H19.709C20.9643 21.6723 22 20.6366 22 19.3813V4.16011C22 2.90487 20.9643 1.86914 19.709 1.86914ZM13.0813 8.19564C12.4477 7.89485 11.7389 7.72656 10.9909 7.72656C8.29544 7.72656 6.11035 9.91165 6.11035 12.6071C6.11035 14.2199 6.89265 15.65 8.09849 16.5386L13.0813 8.19564ZM9.28202 17.1801L14.2062 8.9353C15.2269 9.82985 15.8714 11.1432 15.8714 12.6071C15.8714 15.3025 13.6863 17.4876 10.9909 17.4876C10.3897 17.4876 9.81386 17.3789 9.28202 17.1801ZM16.9388 12.6077C16.9388 15.8924 14.276 18.5552 10.9912 18.5552C7.7065 18.5552 5.0437 15.8924 5.0437 12.6077C5.0437 9.32296 7.7065 6.66016 10.9912 6.66016C14.276 6.66016 16.9388 9.32296 16.9388 12.6077Z" fill="#104651"/>
</svg>
