<svg width="78" height="77" viewBox="0 0 78 77" fill="none" xmlns="http://www.w3.org/2000/svg">
<g opacity="0.1">
<circle cx="39.458" cy="38.4998" r="38.5" fill="#FE5253"/>
</g>
<circle cx="39.4583" cy="38.6248" r="25.093" stroke="#FE5253" stroke-width="4"/>
<path fill-rule="evenodd" clip-rule="evenodd" d="M28.916 49.0412C29.2308 49.3559 29.5453 49.5131 30.0175 49.5131C30.4894 49.5131 30.8042 49.3557 31.1189 49.0412L39.4577 40.7024L47.7965 49.0412C48.1113 49.3559 48.5832 49.5131 48.898 49.5131C49.2128 49.5131 49.6847 49.3557 49.9995 49.0412C50.6287 48.4119 50.6287 47.4678 49.9995 46.8385L41.6607 38.4997L49.9995 30.1609C50.6287 29.5317 50.6287 28.5876 49.9995 27.9583C49.3702 27.329 48.4261 27.329 47.7968 27.9583L39.458 36.2971L31.1192 27.9583C30.4899 27.329 29.5459 27.329 28.9166 27.9583C28.2873 28.5876 28.2873 29.5317 28.9166 30.1609L37.2554 38.4997L28.9166 46.8385C28.2873 47.468 28.2867 48.4117 28.916 49.0412Z" fill="#FE5253" stroke="#FE5253" stroke-width="2"/>
</svg>
