<svg width="14" height="17" viewBox="0 0 14 17" fill="none" xmlns="http://www.w3.org/2000/svg">
<path d="M12.0929 5.04944H1.02535C1.02095 5.14411 1.01306 5.23879 1.01306 5.32557V8.00986C1.01306 9.96044 1.00901 11.9122 1.01498 13.8629V13.8628C1.0125 14.3694 1.1793 14.8623 1.48903 15.2631C1.79885 15.664 2.23357 15.9498 2.72438 16.0753C2.8452 16.1068 2.96827 16.1308 3.09046 16.1577H10.0318C10.0653 16.1442 10.0998 16.1338 10.135 16.1261C10.6797 16.0536 11.1798 15.7861 11.5425 15.3731C11.905 14.9602 12.1058 14.4298 12.1074 13.8801C12.112 11.0202 12.112 8.15807 12.1074 5.29417C12.1086 5.21663 12.0985 5.14405 12.0928 5.04938L12.0929 5.04944ZM4.04073 9.74086V13.4931C4.04332 13.5664 4.03757 13.6398 4.02371 13.7118C3.95868 13.9898 3.73247 14.1659 3.48215 14.1406C3.23194 14.1154 3.0302 13.8822 3.02365 13.601C3.01768 13.3485 3.0214 13.0961 3.0214 12.8436V10.6049V7.64092C3.0214 7.2938 3.26754 7.04134 3.57017 7.0641C3.83458 7.08394 4.03724 7.32727 4.03879 7.64317C4.04263 8.34319 4.04071 9.04217 4.04071 9.74084L4.04073 9.74086ZM7.07024 10.621V13.5218C7.07238 13.5795 7.06889 13.6373 7.05987 13.6944C7.00374 13.9749 6.76987 14.1649 6.51551 14.1412C6.26688 14.1179 6.05794 13.886 6.05321 13.6047C6.04599 13.1686 6.05073 12.7325 6.05073 12.2963V7.72466L6.05061 7.72478C6.04757 7.65648 6.05073 7.58818 6.06008 7.52055C6.11283 7.23846 6.34162 7.0472 6.59812 7.06546C6.85475 7.08384 7.06551 7.32176 7.06868 7.61017C7.07375 8.1356 7.07093 8.66104 7.07093 9.18806C7.07105 9.66525 7.07105 10.1429 7.07093 10.6211L7.07024 10.621ZM10.0998 10.6036V13.5195C10.1021 13.5822 10.0978 13.6451 10.0868 13.7069C10.0237 13.9909 9.79048 14.1708 9.53421 14.1405C9.27792 14.1101 9.08293 13.8722 9.08203 13.5781C9.07922 12.7686 9.08203 11.9595 9.08203 11.1501V7.7446V7.74471C9.08 7.68149 9.08158 7.61837 9.08677 7.55537C9.11833 7.2682 9.34621 7.05709 9.60937 7.06534C9.86183 7.07289 10.0802 7.29661 10.0985 7.57464C10.108 7.72105 10.102 7.86972 10.102 8.01643C10.1004 8.87886 10.1004 9.75142 10.1004 10.6035L10.0998 10.6036Z" fill="#FE5253"/>
<path d="M13.1188 2.98624C13.1213 2.37561 12.7745 2.02499 12.1649 2.02464H9.42535V2.02476C9.45037 1.94609 9.46311 1.86404 9.46322 1.78143V0.806644C9.46311 0.592616 9.3779 0.387504 9.22654 0.23623C9.07518 0.0849562 8.86995 0 8.65604 0H4.46377C4.24985 0 4.04463 0.0849793 3.89327 0.23623C3.74191 0.387481 3.6567 0.592616 3.65659 0.806644V1.78108C3.65659 1.86381 3.66944 1.94597 3.69446 2.02475H0.893744C0.437413 2.02475 0.0883552 2.30877 0.0129636 2.74707C-0.00563268 2.85471 0.0012423 2.96797 0.0012423 3.07717C0.0012423 3.6887 0.345886 4.03369 0.957761 4.03369H7.55171H12.2368C12.6963 4.03369 13.0434 3.73513 13.1097 3.28511C13.1197 3.18582 13.1228 3.08596 13.1188 2.98623L13.1188 2.98624Z" fill="#FE5253"/>
</svg>
