<svg width="22" height="24" viewBox="0 0 22 24" fill="none" xmlns="http://www.w3.org/2000/svg">
<path d="M10.064 7.26544C10.0188 7.21766 9.96228 7.18383 9.90134 7.16077V10.445H13.1868C13.1625 10.3849 13.1274 10.3287 13.0797 10.281L10.064 7.26544Z" fill="#104651"/>
<path d="M8.95303 10.9191V7.12787H1.36809C1.10256 7.12787 0.893936 7.3365 0.893936 7.60202V22.7749C0.893936 23.0357 1.10256 23.2491 1.36809 23.2491H12.7478C13.0085 23.2491 13.2219 23.0357 13.2219 22.7749V11.3932H9.42718C9.1651 11.3932 8.95303 11.1809 8.95303 10.9191ZM10.3755 19.9421H3.73735C3.47527 19.9421 3.26319 19.7298 3.26319 19.468C3.26319 19.2061 3.47527 18.9938 3.73735 18.9938H10.3755C10.6376 18.9938 10.8496 19.2061 10.8496 19.468C10.8496 19.7298 10.6376 19.9421 10.3755 19.9421ZM10.3755 17.0972H3.73735C3.47527 17.0972 3.26319 16.8849 3.26319 16.623C3.26319 16.3612 3.47527 16.1489 3.73735 16.1489H10.3755C10.6376 16.1489 10.8496 16.3612 10.8496 16.623C10.8496 16.8849 10.6376 17.0972 10.3755 17.0972ZM10.8496 13.7781C10.8496 14.04 10.6376 14.2523 10.3755 14.2523H3.73735C3.47527 14.2523 3.26319 14.04 3.26319 13.7781C3.26319 13.5163 3.47527 13.304 3.73735 13.304H10.3755C10.6376 13.304 10.8496 13.5163 10.8496 13.7781Z" fill="#104651"/>
<path d="M13.6946 7.60006V3.80884H6.10962C5.8441 3.80884 5.63547 4.01747 5.63547 4.28299V6.17969H9.73233C10.1204 6.17969 10.4926 6.33828 10.7538 6.61471L13.7501 9.61058C14.0205 9.8803 14.1701 10.2366 14.1701 10.6128V19.93H17.4893C17.7501 19.93 17.9634 19.7167 17.9634 19.4559V8.07422H14.1687C13.9066 8.07422 13.6946 7.86191 13.6946 7.60006Z" fill="#104651"/>
<path d="M14.8056 3.94635C14.7603 3.89857 14.7038 3.86474 14.6429 3.84167V7.1259H17.9283C17.904 7.06579 17.8689 7.00965 17.8212 6.96195L14.8056 3.94635Z" fill="#104651"/>
<path d="M17.9619 4.75512C17.6998 4.75512 17.4878 4.54282 17.4878 4.28097V0.489746H9.90283C9.63731 0.489746 9.42868 0.698374 9.42868 0.963899V2.8606H13.5255H14.4738C14.8614 2.8606 15.2332 3.01872 15.4944 3.2947L18.4916 6.29149C18.7621 6.56121 18.9116 6.91752 18.9116 7.29397V16.6109H21.2825C21.5433 16.6109 21.7566 16.3976 21.7566 16.1368V4.75512H17.9619Z" fill="#104651"/>
<path d="M21.6144 3.64286L18.5988 0.627259C18.5535 0.579479 18.497 0.545648 18.4361 0.522583V3.80681H21.7215C21.6972 3.7467 21.6621 3.69056 21.6144 3.64286Z" fill="#104651"/>
</svg>
