<svg width="21" height="13" viewBox="0 0 21 13" fill="none" xmlns="http://www.w3.org/2000/svg">
<path d="M0.497773 0.987971C0.179144 1.30122 0 1.72604 0 2.16913C0 2.61222 0.179144 3.03708 0.497773 3.3503L9.30571 12.0119C9.62375 12.3244 10.0552 12.5 10.5048 12.5C10.9545 12.5 11.3859 12.3244 11.704 12.0119L20.5119 3.34731C20.9351 2.9248 21.0985 2.31307 20.9412 1.7403C20.7838 1.16778 20.3294 0.720219 19.7476 0.564754C19.1656 0.409294 18.5435 0.569412 18.1134 0.985134L10.5051 8.47267L2.89666 0.988115C2.57842 0.675641 2.14713 0.5 1.69752 0.5C1.24769 0.5 0.816422 0.675646 0.498177 0.988115L0.497773 0.987971Z" fill="white"/>
</svg>
