<svg width="13" height="16" viewBox="0 0 13 16" fill="none" xmlns="http://www.w3.org/2000/svg">
<path d="M0.871094 9.72982C0.998871 9.72982 1.08725 9.71108 1.17562 9.71108H4.37431C4.60684 9.71108 4.64624 9.63401 4.64624 9.42138V0.815285C4.64624 0.502282 4.64624 0.5 4.9391 0.5H8.80293C9.09124 0.5 9.09351 0.5 9.09351 0.79671V9.37235C9.09351 9.69709 9.09351 9.69709 9.40971 9.69709H12.5666C12.6502 9.69709 12.7339 9.69709 12.8711 9.71338C12.7874 9.80218 12.7409 9.85824 12.6898 9.90728L8.12184 14.3454C7.7638 14.6957 7.39895 15.0462 7.05017 15.3965C7.01239 15.4606 6.94396 15.5 6.86985 15.5C6.79591 15.5 6.72748 15.4607 6.6897 15.3967C5.63277 14.3565 4.57277 13.3209 3.50953 12.29L0.95232 9.80224C0.933996 9.8068 0.920063 9.78831 0.871094 9.72982Z" fill="white"/>
</svg>
