<svg width="18" height="10" viewBox="0 0 18 10" fill="none" xmlns="http://www.w3.org/2000/svg">
<path d="M0.426662 0.406643C0.153552 0.667684 0 1.0217 0 1.39094C0 1.76019 0.153552 2.11423 0.426662 2.37525L7.97632 9.59324C8.24893 9.85363 8.61877 10 9.00416 10C9.38954 10 9.75938 9.85363 10.032 9.59324L17.5816 2.37276C17.9444 2.02066 18.0844 1.51089 17.9496 1.03358C17.8147 0.556484 17.4252 0.183516 16.9265 0.0539618C16.4277 -0.0755882 15.8944 0.0578432 15.5258 0.404279L9.00433 6.64389L2.48285 0.406762C2.21008 0.146367 1.8404 0 1.45502 0C1.06945 0 0.69979 0.146372 0.427009 0.406762L0.426662 0.406643Z" fill="#104651"/>
</svg>
