<svg width="30" height="30" viewBox="0 0 30 30" fill="none" xmlns="http://www.w3.org/2000/svg">
<path d="M9.21788 22.6777C9.52367 22.9835 10.0433 22.9835 10.3796 22.6777L22.5463 10.511C22.8521 10.2052 22.8521 9.68555 22.5463 9.34928L20.9261 7.72909C20.6203 7.42331 20.1007 7.42331 19.7644 7.72909L7.62826 19.8652C7.32248 20.171 7.32248 20.6907 7.62826 21.0269L9.21788 22.6777Z" fill="white"/>
<path d="M20.9869 18.9797L26.0003 13.9663C26.3061 13.6605 26.3061 13.1408 26.0003 12.8046L24.5636 11.3678C24.2578 11.062 23.7381 11.062 23.4019 11.3678L11.1129 23.6568C10.8378 23.9318 10.8071 24.3293 10.9907 24.6351L11.2454 25.0774C11.4378 25.4116 11.3725 25.8646 10.9907 25.919L9.38862 26.1901C8.00998 26.4234 6.7099 25.5741 5.7212 24.5854C4.73248 23.5967 3.88318 22.2966 4.1165 20.9179L4.3876 19.3159C4.44198 18.9341 4.89494 18.8687 5.22915 19.0612L5.67147 19.3159C6.00775 19.4993 6.4052 19.4381 6.64981 19.1937L18.9388 6.90471C19.2446 6.59893 19.2446 6.07928 18.9388 5.74301L17.502 4.30624C17.1962 4.00046 16.6766 4.00046 16.3403 4.30624L3.31767 17.3289C2.85921 17.7874 2.55343 18.3682 2.46172 19.0103L0.933236 28.2117C0.872638 28.5447 0.992049 28.8777 1.20204 29.0918C1.20604 29.0959 1.20831 29.1014 1.20831 29.1071C1.20831 29.119 1.21797 29.1286 1.22988 29.1286C1.23559 29.1286 1.24108 29.1309 1.24516 29.1349C1.42782 29.3141 1.66958 29.4037 1.91134 29.4037C2.03584 29.4037 2.15716 29.3629 2.27998 29.3424L11.2962 27.8447C11.9382 27.753 12.5189 27.4473 12.9776 26.9888L20.9869 18.9797Z" fill="white"/>
<path d="M29.8507 8.9517C28.2917 5.09999 25.204 2.0124 21.3523 0.453351C20.8631 0.23926 20.2823 0.361659 19.885 0.759135L18.326 2.31813C18.0202 2.62391 18.0202 3.14356 18.326 3.47983L26.8244 11.9782C27.1302 12.284 27.6498 12.284 27.9861 11.9782L29.5451 10.4192C29.9118 10.0522 30.0645 9.47139 29.8507 8.9517Z" fill="white"/>
</svg>
