<svg width="23" height="28" viewBox="0 0 23 28" fill="none" xmlns="http://www.w3.org/2000/svg">
<path d="M2.7918 10.0195L1.18066 11.7398H2.7918V10.0195Z" fill="#104651"/>
<path d="M15.6252 4.59982C15.6268 4.04651 15.7921 3.50889 16.0954 3.07031H3.24997C2.88535 3.07031 2.53545 3.23146 2.27768 3.51824C2.01991 3.80503 1.875 4.19426 1.875 4.59979V6.12931H15.625L15.6252 4.59982Z" fill="#104651"/>
<path d="M11.5 0.71875L10.2515 2.05138H12.7486L11.5 0.71875Z" fill="#104651"/>
<path d="M3.70801 7.14899V14.5559L11.4997 20.7963L19.2913 14.5559V4.5998C19.2913 4.05332 19.0292 3.54849 18.6038 3.27516C18.1784 3.00203 17.6542 3.00203 17.2288 3.27516C16.8034 3.54851 16.5413 4.05332 16.5413 4.5998V6.63915C16.5413 6.77435 16.4931 6.90409 16.4071 6.99968C16.3212 7.09527 16.2045 7.14899 16.083 7.14899H3.70801ZM15.6247 14.7965H6.45801V13.7769H15.6247V14.7965ZM15.6247 12.7572H6.45801V11.7375H15.6247V12.7572ZM15.6247 10.7179H6.45801V9.69818H15.6247V10.7179Z" fill="#104651"/>
<path d="M13.6367 20.3415L22.5001 26.6133V13.2422L13.6367 20.3415Z" fill="#104651"/>
<path d="M2.79157 12.7578H1.4624L2.79157 13.8224V12.7578Z" fill="#104651"/>
<path d="M20.2085 12.7578V13.8224L21.5377 12.7578H20.2085Z" fill="#104651"/>
<path d="M11.7676 21.8393C11.6078 21.9672 11.3921 21.9672 11.2323 21.8393L10.1653 20.9844L1.6167 27.0337H21.3837L12.8351 20.9844L11.7676 21.8393Z" fill="#104651"/>
<path d="M0.5 13.2441V26.6153L9.36338 20.3434L0.5 13.2441Z" fill="#104651"/>
<path d="M20.2085 10.0195V11.7398H21.8196L20.2085 10.0195Z" fill="#104651"/>
</svg>
