<svg width="26" height="18" viewBox="0 0 26 18" fill="none" xmlns="http://www.w3.org/2000/svg">
<g opacity="0.7">
<path d="M25.0078 16.5238C25.2029 16.1507 25.3061 15.7362 25.3091 15.3151V2.7992C25.3075 2.40089 25.2159 2.00819 25.0409 1.65039L17.1978 9.49354L25.0078 16.5238Z" fill="#104651"/>
<path d="M12.1612 10.7368C12.331 10.8999 12.5575 10.9911 12.7932 10.9911C13.0288 10.9911 13.2553 10.8999 13.4251 10.7368L23.7761 0.385386C23.4183 0.210378 23.0256 0.118781 22.6273 0.117188H2.95936C2.56105 0.118784 2.16835 0.210378 1.81055 0.385386L12.1612 10.7368Z" fill="#104651"/>
<path d="M0.545543 1.65039C0.370534 2.00819 0.278938 2.40089 0.277344 2.7992V15.3151C0.280337 15.7362 0.383504 16.1506 0.578666 16.5238L8.38964 9.49344L0.545543 1.65039Z" fill="#104651"/>
<path d="M15.9316 10.7559L14.6898 11.9977C14.1869 12.5008 13.5047 12.7833 12.7933 12.7833C12.0818 12.7833 11.3996 12.5008 10.8965 11.9977L9.65569 10.7559L1.87793 17.7592C2.21777 17.9136 2.58633 17.9948 2.95972 17.997H22.6276C23.0018 17.9964 23.3717 17.9166 23.713 17.7628L15.9316 10.7559Z" fill="#104651"/>
</g>
</svg>
