<svg width="26" height="19" viewBox="0 0 26 19" fill="none" xmlns="http://www.w3.org/2000/svg">
<g opacity="0.7">
<path d="M24.7304 16.6466C24.9256 16.2734 25.0288 15.859 25.0318 15.4379V2.92197C25.0302 2.52367 24.9386 2.13097 24.7636 1.77316L16.9204 9.61632L24.7304 16.6466Z" fill="#104651"/>
<path d="M11.8838 10.8596C12.0537 11.0227 12.2801 11.1139 12.5158 11.1139C12.7515 11.1139 12.978 11.0227 13.1478 10.8596L23.4987 0.508189C23.1409 0.33318 22.7482 0.241584 22.3499 0.23999H2.68201C2.2837 0.241587 1.89101 0.33318 1.5332 0.508189L11.8838 10.8596Z" fill="#104651"/>
<path d="M0.268199 1.77295C0.0931901 2.13075 0.00159387 2.52345 0 2.92176V15.4377C0.0029933 15.8588 0.106161 16.2732 0.301323 16.6464L8.11229 9.616L0.268199 1.77295Z" fill="#104651"/>
<path d="M15.6543 10.8786L14.4125 12.1205C13.9096 12.6235 13.2273 12.9061 12.5159 12.9061C11.8045 12.9061 11.1223 12.6235 10.6192 12.1205L9.37835 10.8786L1.60059 17.8819C1.94042 18.0364 2.30899 18.1176 2.68237 18.1198H22.3503C22.7244 18.1192 23.0944 18.0394 23.4356 17.8855L15.6543 10.8786Z" fill="#104651"/>
</g>
</svg>
