<svg width="20" height="13" viewBox="0 0 20 13" fill="none" xmlns="http://www.w3.org/2000/svg">
<path d="M19.1725 5.75469C18.9945 5.51742 14.9009 0 9.66041 0C4.41988 0 0.326339 5.51738 0.148359 5.75469C-0.049453 6.03154 -0.049453 6.40728 0.148359 6.68414C0.326307 6.92154 4.41988 12.4586 9.66041 12.4586C14.9009 12.4586 18.9945 6.94122 19.1725 6.70392C19.3703 6.4272 19.3703 6.03158 19.1725 5.75472V5.75469ZM9.66041 10.8766C6.04148 10.8766 2.85761 7.49487 1.78973 6.2293C2.85754 4.96367 6.0217 1.58205 9.66041 1.58205C13.2991 1.58205 16.4632 4.96374 17.5311 6.2293C16.4633 7.49494 13.2793 10.8766 9.66041 10.8766Z" fill="white"/>
<path d="M9.6601 1.99805C7.32666 1.99805 5.42813 3.89657 5.42813 6.23002C5.42813 8.56346 7.32666 10.462 9.6601 10.462C11.9935 10.462 13.8921 8.56346 13.8921 6.23002C13.8921 3.89657 11.9935 1.99805 9.6601 1.99805Z" fill="white"/>
</svg>
