<svg width="22" height="19" viewBox="0 0 22 19" fill="none" xmlns="http://www.w3.org/2000/svg">
<path fill-rule="evenodd" clip-rule="evenodd" d="M20.3108 2.07111C17.8094 -0.595259 13.5942 -0.664216 11.0234 1.91013C8.96209 -0.135584 5.76593 -0.618199 3.26458 0.852878C-0.580117 3.08248 -1.02013 8.07035 1.89815 10.9665L9.26322 18.276C10.236 19.2413 11.811 19.2413 12.7837 18.276L20.0329 11.0585C22.5112 8.62205 22.6965 4.59953 20.311 2.07111L20.3108 2.07111ZM11 14C13.7614 14 16 11.7614 16 9C16 6.23858 13.7614 4 11 4C8.23858 4 6 6.23858 6 9C6 11.7614 8.23858 14 11 14ZM11 12C12.6569 12 14 10.6569 14 9C14 8.51841 13.8865 8.06333 13.6849 7.66003L9.75339 11.7295C10.133 11.9032 10.5552 12 11 12ZM8.31508 10.3398L12.2465 6.2704C11.8669 6.09677 11.4447 6 11 6C9.34315 6 8 7.34315 8 9C8 9.48153 8.11345 9.93657 8.31508 10.3398Z" fill="#104651"/>
</svg>
