<svg width="20" height="20" viewBox="0 0 20 20" fill="none" xmlns="http://www.w3.org/2000/svg">
<path d="M11.6711 9.99932L19.1382 2.54391C19.439 2.2433 19.5563 1.80498 19.4464 1.39424C19.3362 0.983697 19.0154 0.662866 18.6049 0.552739C18.1941 0.44281 17.7558 0.560081 17.4552 0.860891L9.99979 8.32798L2.54438 0.860891C2.24376 0.560079 1.80544 0.44281 1.3947 0.552739C0.984161 0.662866 0.66333 0.983718 0.553203 1.39424C0.443274 1.80497 0.560545 2.2433 0.861355 2.54391L8.32845 9.99932L0.861355 17.4547C0.636936 17.6774 0.510742 17.9804 0.510742 18.2962C0.510742 18.6123 0.636941 18.9153 0.861355 19.1377C1.08379 19.3621 1.38679 19.4883 1.70285 19.4883C2.01874 19.4883 2.32176 19.3621 2.54435 19.1377L9.99976 11.6706L17.4552 19.1377C17.6778 19.3621 17.9808 19.4883 18.2967 19.4883C18.6128 19.4883 18.9158 19.3621 19.1382 19.1377C19.3626 18.9153 19.4888 18.6123 19.4888 18.2962C19.4888 17.9803 19.3626 17.6773 19.1382 17.4547L11.6711 9.99932Z" fill="white" stroke="white"/>
</svg>
