<svg width="22" height="22" viewBox="0 0 22 22" fill="none" xmlns="http://www.w3.org/2000/svg">
<path d="M21.2147 0.987305H0.786045C0.701593 0.987305 0.625291 1.03734 0.591709 1.11481C0.558128 1.19211 0.573754 1.28205 0.631274 1.34373L8.73049 10.0111V10.0113C8.84054 10.1291 8.90188 10.2842 8.90222 10.4456V20.8013C8.90239 20.8849 8.95176 20.9605 9.02806 20.9945C9.10454 21.0284 9.19381 21.0142 9.25598 20.9582L13.0285 17.5371C13.0728 17.4969 13.098 17.4399 13.098 17.3802V10.4458C13.0984 10.2844 13.1595 10.1293 13.2698 10.0114L21.369 1.34402V1.34386C21.4265 1.28235 21.4419 1.19258 21.4085 1.11511C21.3751 1.03781 21.299 0.9876 21.2147 0.987434L21.2147 0.987305Z" fill="white"/>
</svg>
