<svg width="15" height="16" viewBox="0 0 15 16" fill="none" xmlns="http://www.w3.org/2000/svg">
<path d="M10.9962 1.12584C10.8152 1.03135 10.6115 0.989035 10.4078 1.00376C10.2042 1.01848 10.0086 1.08944 9.84309 1.20885C9.70606 1.31714 9.53457 1.37244 9.36011 1.36467C9.15351 1.36699 8.95421 1.28873 8.8043 1.14659C8.47215 0.877736 8.05779 0.730957 7.63043 0.730957C7.20319 0.730957 6.78874 0.877733 6.45668 1.14659C6.30445 1.28676 6.10515 1.36467 5.89834 1.36467C5.69139 1.36467 5.49208 1.28676 5.34 1.14659C5.00878 0.877736 4.59522 0.731076 4.16869 0.731076C3.74216 0.731076 3.3286 0.877736 2.99749 1.14659C2.84619 1.28978 2.6448 1.36803 2.43648 1.36467C2.26513 1.37279 2.09691 1.31725 1.96392 1.20885C1.79732 1.08909 1.60058 1.01825 1.39581 1.00446C1.19119 0.990661 0.986678 1.03448 0.805571 1.13094C0.61868 1.22717 0.461937 1.37314 0.352953 1.55284C0.243856 1.73243 0.186582 1.9388 0.187511 2.14899V13.0929C0.187511 13.394 0.306462 13.6832 0.518501 13.8972C0.730549 14.1111 1.01855 14.2328 1.31974 14.2355H8.24851C7.73318 13.5637 7.45549 12.7397 7.45896 11.893C7.45896 10.8599 7.86938 9.869 8.59989 9.13845C9.3304 8.40794 10.3213 7.99753 11.3544 7.99753C11.4413 7.99753 11.528 8.00275 11.6141 8.01307V2.14387C11.6147 1.93379 11.5572 1.72767 11.4482 1.54808C11.3391 1.36838 11.1827 1.2224 10.9961 1.12594L10.9962 1.12584ZM3.096 10.8021C2.93067 10.8021 2.77219 10.7365 2.65531 10.6195C2.53833 10.5026 2.47271 10.3441 2.47271 10.1788C2.47271 10.0135 2.53833 9.85498 2.65531 9.7381C2.77217 9.62112 2.93066 9.5555 3.096 9.5555C3.26133 9.5555 3.4198 9.62112 3.53668 9.7381C3.65366 9.85497 3.71928 10.0135 3.71928 10.1788C3.71928 10.3441 3.65366 10.5026 3.53668 10.6195C3.41982 10.7365 3.26133 10.8021 3.096 10.8021ZM3.096 8.20509C2.93067 8.20509 2.77219 8.13947 2.65531 8.02249C2.53833 7.90562 2.47271 7.74714 2.47271 7.5818C2.47271 7.41646 2.53833 7.25799 2.65531 7.14111C2.77217 7.02413 2.93066 6.95851 3.096 6.95851C3.26133 6.95851 3.4198 7.02413 3.53668 7.14111C3.65366 7.25798 3.71928 7.41646 3.71928 7.5818C3.71928 7.74714 3.65366 7.90561 3.53668 8.02249C3.41982 8.13947 3.26133 8.20509 3.096 8.20509ZM3.096 5.50422C2.93044 5.50422 2.7716 5.43825 2.65463 5.32104C2.53776 5.20382 2.47226 5.04476 2.47272 4.87919C2.47319 4.71363 2.5395 4.55503 2.65718 4.43839C2.77474 4.32175 2.93392 4.25671 3.09947 4.25764C3.26502 4.25857 3.42351 4.32535 3.5398 4.44326C3.65608 4.56117 3.72066 4.72046 3.71927 4.88614C3.71857 5.05077 3.65249 5.20831 3.53562 5.32427C3.41876 5.44023 3.26061 5.50491 3.096 5.50422ZM6.42014 10.6982H4.96583C4.78021 10.6982 4.60875 10.5992 4.516 10.4385C4.42325 10.2778 4.42325 10.0798 4.516 9.9191C4.60875 9.75841 4.78022 9.6594 4.96583 9.6594H6.42014C6.60576 9.6594 6.77722 9.75841 6.86997 9.9191C6.96272 10.0798 6.96272 10.2778 6.86997 10.4385C6.77722 10.5992 6.60575 10.6982 6.42014 10.6982ZM8.80937 8.10121H4.96583C4.78021 8.10121 4.60875 8.0022 4.516 7.84151C4.42325 7.68082 4.42325 7.4828 4.516 7.32211C4.60875 7.16142 4.78022 7.06241 4.96583 7.06241H8.80937C8.99499 7.06241 9.16645 7.16142 9.2592 7.32211C9.35195 7.4828 9.35195 7.68082 9.2592 7.84151C9.16645 8.00219 8.99498 8.10121 8.80937 8.10121ZM8.80937 5.40556H4.96583C4.78021 5.40556 4.60875 5.30655 4.516 5.14586C4.42325 4.98517 4.42325 4.78715 4.516 4.62646C4.60875 4.46578 4.78022 4.36677 4.96583 4.36677H8.80937C8.99499 4.36677 9.16645 4.46578 9.2592 4.62646C9.35195 4.78715 9.35195 4.98518 9.2592 5.14586C9.16645 5.30655 8.99498 5.40556 8.80937 5.40556Z" fill="white"/>
<path d="M11.3546 8.51685C10.4592 8.51685 9.60046 8.87253 8.96733 9.50566C8.3342 10.1388 7.97852 10.9975 7.97852 11.8929C7.97852 12.7883 8.3342 13.6471 8.96733 14.2802C9.60046 14.9133 10.4592 15.269 11.3546 15.269C12.25 15.269 13.1087 14.9133 13.7419 14.2802C14.375 13.6471 14.7307 12.7883 14.7307 11.8929C14.7296 10.9979 14.3735 10.1399 13.7406 9.50694C13.1077 8.87401 12.2497 8.51788 11.3546 8.51685Z" fill="white"/>
<path d="M10.9593 13.1188C10.9057 13.1109 10.8562 13.0858 10.8183 13.0471L9.88709 12.0984C9.84098 12.0514 9.81542 11.988 9.81604 11.9223C9.81666 11.8564 9.8434 11.7936 9.89035 11.7475C9.9373 11.7014 10.0007 11.6758 10.0665 11.6764C10.1323 11.677 10.1951 11.7037 10.2412 11.7507L10.9876 12.5114L12.575 10.7513C12.619 10.7021 12.6807 10.6723 12.7467 10.6687C12.8126 10.6652 12.8772 10.688 12.9262 10.7323C12.9753 10.7764 13.0046 10.8384 13.0079 10.9043C13.0111 10.9703 12.9879 11.0348 12.9434 11.0836L11.1795 13.0395C11.1239 13.1011 11.0413 13.1308 10.9593 13.1188Z" fill="#5A9B48" stroke="#5A9B48" stroke-width="0.5"/>
</svg>
