<svg width="1920" height="818" viewBox="0 0 1920 818" fill="none" xmlns="http://www.w3.org/2000/svg">
<g clip-path="url(#clip0_500_3329)">
<path d="M1350.36 798.074C529.128 792.608 -94.2599 588.211 -212.387 531.025L1788.62 40.2385C1920.08 95.5796 2152.08 256.682 2028.41 458.363C1873.82 710.465 1600.77 799.741 1350.36 798.074Z" fill="#256A78"/>
<mask id="mask0_500_3329" style="mask-type:alpha" maskUnits="userSpaceOnUse" x="-239" y="-662" width="2281" height="1377">
<path d="M1469.93 696.416C1907.4 636.796 1970.28 449.198 2041.79 319.392L1916.85 -661.608L-238.871 -316.179L-186.1 13.1483C-148.491 203.135 -65.0131 589.674 -31.9727 615.939C9.32786 648.77 1032.47 756.036 1469.93 696.416Z" fill="#D9D9D9"/>
</mask>
<g mask="url(#mask0_500_3329)">
<ellipse cx="989.294" cy="38.0764" rx="1498.26" ry="680.447" transform="rotate(-9.10361 989.294 38.0764)" fill="#104651"/>
<rect x="4.625" y="-74.1216" width="1947.61" height="1004.24" transform="rotate(-9.10361 4.625 -74.1216)" fill="#104651"/>
<g opacity="0.5">
<path d="M2079.42 610.464C2082.19 609.095 2083.19 609.86 2086.57 609.318L2075.34 539.209C2062.2 547.827 2047.03 558.032 2028 570.073C2044.71 555.678 2058.77 542.495 2073.54 528.004L2050.37 383.393C2042.49 389.207 2036.01 394.054 2028.26 399.848C2006.65 415.998 1984.33 432.105 1961.3 448.076C1968.43 439.069 1974.99 430.31 1980.96 421.962C2005.18 388.132 2023.75 354.847 2040.4 321.014L2011.21 138.855C1984.35 172.116 1972.5 204.864 1957.84 238.898C1935.87 289.899 1912.94 341.122 1882.09 392.329C1851.66 442.839 1808.38 493.267 1749.74 541.782C1714.17 571.234 1669.28 597.176 1624.5 623.304C1565.21 644.568 1502.62 663.589 1438.34 681.123C1366.95 700.584 1293.5 717.852 1219.86 733.551C1196.2 738.581 1172.75 744.209 1149.35 749.987C1142.02 748.727 1133.62 747.956 1124.11 747.744C1091.31 747.051 1053.68 752.135 1019.7 753.433C968.675 755.389 920.262 755.575 871.732 753.391C776.633 749.114 681.976 741.522 592.616 731.21C472.739 717.383 375.037 686.031 296.405 646.981C255.086 626.448 217.648 604.368 180.846 581.984C157.243 567.625 114.316 514.246 91.1128 465.615L115.271 616.379C119.272 619.027 123.057 621.643 126.499 624.247C160.762 650.148 193.972 676.375 230.872 701.335C234.293 703.649 237.682 705.922 241.1 708.214C200.707 698.709 161.25 688.153 124.887 676.223L139.659 768.412C156.511 773.959 173.72 779.269 191.147 784.296C188.38 783.771 185.54 783.279 182.773 782.754C168.961 780.099 154.778 777.257 140.588 774.212L152.632 849.374C181.862 855.845 211.726 861.516 241.129 866.449C286.456 874.082 333.552 879.132 382.228 882.397L1695.62 671.94C1715.68 664.964 1735.49 657.8 1754.89 650.365C1745.94 655.878 1736.82 661.328 1727.75 666.792L2079.44 610.438L2079.42 610.464Z" fill="#0A3C46"/>
<path d="M469.995 -258.387L-2.3071 -182.706C-6.05158 -180.799 -7.9941 -177.987 -11.7094 -176.062L52.5514 224.97C55.0702 214.922 68.4156 116.356 72.7991 105.964C83.1034 81.6428 118.453 33.4101 147.704 10.3119C205.67 -35.4604 249.679 -52.1348 330.717 -90.9676C466.094 -155.86 622.121 -230.573 789.875 -283.143C794.261 -283.013 799.163 -283.28 804.536 -284.05C878.544 -294.535 951.971 -308.487 1026 -318.839C1106.62 -330.112 1193.06 -327.85 1269.22 -327.323C1408.87 -326.332 1542.5 -315.159 1677.65 -308.241C1767.76 -303.615 1857.42 -296.98 1937.22 -282.364C1937.42 -281.743 1937.83 -281.155 1937.93 -280.54C1938.86 -275.372 1940.97 -271.089 1945.95 -268.259L1921.47 -421.043C1844.19 -432.435 1763.89 -443.613 1684.49 -452.997L1331.63 -396.454C1332.13 -396.444 1339.51 -396.342 1340.01 -396.332C1394.83 -395.764 1447.06 -392.979 1496.79 -387.698C1433.52 -389.66 1374.22 -392.891 1309.8 -392.979L575.631 -275.337C461.38 -232.219 350.414 -183.542 244.949 -135.815C209.786 -119.905 175.434 -103.358 142.43 -86.2837C170.805 -105.005 200.875 -123.322 231.755 -141.182C302.56 -182.161 386.431 -222.35 469.995 -258.387Z" fill="#0A3C46"/>
<path d="M430.015 -106.924C363.622 -94.2125 300.304 -56.236 252.779 -30.3223C192.699 2.42554 164.707 38.7978 129.044 75.3853C125.092 79.4438 136.747 81.6099 142.258 77.5945C183.677 47.3861 220.178 16.1855 268.616 -12.3984C318.256 -41.6931 411.228 -67.9258 441.091 -100.992C444.463 -104.733 438.999 -108.634 429.99 -106.92L430.015 -106.924Z" fill="#0A3C46"/>
<path d="M989.077 723.839C919.61 698.982 800.499 703.894 709.48 696.845C607.089 688.915 498.204 669.833 441.731 632.686C437.146 629.68 423.716 634.491 427.248 637.824C466.428 674.88 543.971 698.105 630.32 710.634C732.206 725.429 861.914 737.906 979.873 733.359C991.373 732.913 995.967 726.296 989.103 723.835L989.077 723.839Z" fill="#0A3C46"/>
<path d="M1330.75 676.886C1272.23 676.055 1200.46 690.283 1138.98 695.583C1120.56 697.181 1073.22 699.291 1072.45 712.215C1072.43 712.578 1073.21 712.859 1073.99 712.802C1156.2 706.863 1251.02 714.812 1332.45 687.678C1344.54 683.646 1343.03 677.059 1330.73 676.89L1330.75 676.886Z" fill="#0A3C46"/>
<path d="M1675.7 564.825C1673.59 562.864 1669.06 562.643 1663.92 563.851C1652.28 566.55 1645.12 569.995 1635.52 574.374C1620.22 581.331 1602.15 586.706 1584.49 591.88C1555.67 600.305 1525.59 608.055 1499.67 618.947C1491.07 622.556 1498.25 627.129 1507.47 624.795C1540.6 616.377 1702.35 589.828 1675.65 564.877L1675.7 564.825Z" fill="#0A3C46"/>
<path d="M1761.86 461.013C1731.19 467.844 1720.31 485.272 1701.97 497.404C1689.37 505.755 1710.77 510.799 1724.58 503.224C1735.38 497.279 1743.75 490.935 1752.28 484.43C1761.78 477.207 1768.9 471.288 1772.15 463.669C1773.43 460.647 1767.48 459.776 1761.86 461.013Z" fill="#0A3C46"/>
<path d="M700.602 -44.0985C661.067 -43.4874 631.867 -23.8452 608.922 -9.14897C595.827 -0.763491 583.004 8.16445 567.192 15.6783C560.472 18.8734 544.68 23.8827 551.343 28.0432C565.689 36.9892 604.33 15.0455 614.823 8.96989C641.318 -6.38529 666.647 -26.0607 701.605 -37.8368C708.268 -40.0763 708.13 -44.2231 700.602 -44.0985Z" fill="#0A3C46"/>
<path d="M748.573 -40.3149C734.51 -37.9714 723.532 -30.4886 713.769 -25.1156C699.561 -17.273 686.281 -9.06057 673.316 -0.853541C666.677 3.34259 677.861 6.01236 684.89 2.11435C697.254 -4.75692 709.903 -11.4935 722.968 -18.094C733.378 -23.3678 751.233 -29.9471 755.793 -36.4467C757.551 -38.9368 754.796 -41.3573 748.547 -40.3108L748.573 -40.3149Z" fill="#0A3C46"/>
<path d="M532.439 160.851C503.551 162.911 487.686 179.447 466.898 188.57C453.138 194.605 467.182 201.662 481.422 196.158C492.591 191.844 502.09 186.784 511.504 181.692C520.46 176.855 530.749 172.299 537.564 166.903C541.09 164.129 540.057 160.306 532.439 160.851Z" fill="#0A3C46"/>
<path d="M488.098 406.375C471.877 406.901 459.149 415.768 448.804 421.617C434.573 429.644 421.831 437.928 406.242 445.519C394.995 450.994 406.559 457.344 419.011 452.171C435.088 445.494 449.64 438.159 464.129 430.767C476.141 424.651 495.427 416.828 495.344 409.089C495.319 407.291 491.864 406.244 488.094 406.353L488.098 406.375Z" fill="#0A3C46"/>
<path d="M511.666 423.15C504.434 422.326 494.728 425.436 488.056 427.947C480.243 430.889 474.866 435.739 471.851 439.738C469.379 443.019 470.904 446.132 477.761 446.746C483.631 447.27 492.785 445.15 495.254 441.847C497.184 439.284 499.535 437.218 503.461 434.966C505.147 433.997 506.284 432.891 508.157 431.937C511.101 430.452 513.76 429.485 515.433 427.617C517.375 425.458 515.736 423.602 511.637 423.132L511.666 423.15Z" fill="#0A3C46"/>
<path d="M767.788 520.767C746.307 525.561 729.387 537.151 713.33 545.267C692.431 555.827 670.882 566.266 648.253 576.044C637.235 580.807 648.388 586.073 659.647 581.993C684.001 573.133 706.964 563.639 729.086 553.492C747.534 545.037 772.946 534.903 778.762 523.605C780.448 520.338 773.556 519.504 767.791 520.789L767.788 520.767Z" fill="#0A3C46"/>
<path d="M810.754 525.983C791.108 530.573 774.968 541.452 762.427 549.681C752.716 556.037 770.302 560.588 780.036 554.206C786.319 550.089 793.023 546.131 800.08 542.251C807.813 537.992 815.181 534.242 819.512 529.267C822.177 526.203 816.79 524.587 810.732 526.009L810.754 525.983Z" fill="#0A3C46"/>
<path d="M1452.35 413.934C1438.93 416.355 1429.62 421.926 1419.47 426.843C1406.9 432.935 1393.77 438.645 1379.42 443.762C1368.6 447.614 1377.88 454.194 1388.95 450.888C1403.38 446.57 1417 441.638 1430.2 436.346C1442.92 431.242 1458.59 424.81 1461.87 417.503C1463.05 414.879 1458.2 412.862 1452.35 413.912L1452.35 413.934Z" fill="#0A3C46"/>
<path d="M1543.73 414.819C1521.73 419.516 1502.76 427.355 1482.39 433.955C1466.91 438.959 1475.34 448.92 1491.19 443.925C1513.62 436.86 1537.28 429.87 1551.15 418.769C1554.2 416.319 1549.14 413.659 1543.75 414.815L1543.73 414.819Z" fill="#0A3C46"/>
<path d="M1826.29 209.206C1812.13 211.272 1800.04 217.085 1788.8 222.065C1772.44 229.283 1756.28 236.626 1738.22 242.857C1728.97 246.051 1733.65 252.085 1743.65 249.017C1759.77 244.091 1774.77 238.419 1789.64 232.566C1803.71 227.021 1822.66 221.032 1832.14 213.722C1835.63 211.044 1832.92 208.256 1826.27 209.232L1826.29 209.206Z" fill="#0A3C46"/>
<path d="M1867.73 215.253C1856.69 218.217 1848.38 222.298 1839.61 226.655C1830.69 231.081 1840.78 236.472 1849.82 231.982C1859.13 227.358 1867.9 223.045 1873.75 217.489C1875.87 215.481 1871.67 214.216 1867.76 215.249L1867.73 215.253Z" fill="#0A3C46"/>
<path d="M1522.95 0.555132C1489.79 6.00353 1462.44 21.6083 1436.07 33.1134C1426.43 37.3165 1436.38 42.4601 1446.28 38.4397C1473.24 27.4717 1504.76 16.6758 1527.12 3.74106C1530.27 1.90656 1527.15 -0.118696 1522.95 0.577091L1522.95 0.555132Z" fill="#0A3C46"/>
<path d="M1614.88 -18.8852C1605.47 -17.8731 1599.61 -14.8835 1592.04 -11.7327C1584.52 -8.61206 1576.86 -5.53679 1568.78 -2.7775C1555.84 1.66181 1562.94 10.1916 1576.3 5.75244C1585.24 2.76557 1593.8 -0.431544 1602.21 -3.7619C1610.64 -7.11834 1618.95 -9.91461 1622.79 -14.6323C1625.3 -17.6932 1621.24 -19.5444 1614.89 -18.8413L1614.88 -18.8852Z" fill="#0A3C46"/>
<path d="M149.06 98.2062C149.06 98.2062 78.2182 171.619 96.1053 249.765C113.992 327.912 137.667 364.05 152.535 361.645C167.381 359.267 166.535 322.805 164.689 304.555C162.843 286.305 125.586 232.692 129.098 215.386C132.611 198.08 174.443 123.84 191.173 105.317C207.9 86.7722 167.265 75.5936 149.086 98.2021L149.06 98.2062Z" fill="#0A3C46"/>
<path d="M110.492 384.201C110.492 384.201 115.958 466.073 135.965 500.005C155.972 533.937 236.174 587.383 263.504 601.527C290.833 615.671 346.633 650.583 370.972 646.232C395.312 641.881 368.542 614.329 341.579 605.422C314.641 596.51 249.712 571.422 227.751 546.141C205.791 520.861 159.738 479.317 151.283 448.875C142.829 418.433 156.717 348.693 110.47 384.227L110.492 384.201Z" fill="#0A3C46"/>
<path d="M1783.64 -209.418C1783.64 -209.418 1899.13 -154.55 1927.75 -110.033C1956.37 -65.5152 1975.35 -14.2022 1972.17 10.7797C1969.02 35.7794 1905.22 25.5868 1879.17 -20.9206C1853.12 -67.45 1774.32 -141.717 1742.47 -171.903C1710.63 -202.09 1749.34 -227.064 1783.62 -209.414L1783.64 -209.418Z" fill="#0A3C46"/>
<path d="M1932.98 62.2651C1932.98 62.2651 1926.23 105.803 1918.65 124.662C1911.07 143.52 1887.5 202.531 1892.36 210.857C1897.21 219.182 1921.16 223.232 1951.71 179.193C1982.27 135.177 1998.78 112.835 1986.18 84.4102C1973.6 55.9808 1923.38 44.3562 1932.97 62.2431L1932.98 62.2651Z" fill="#0A3C46"/>
</g>
</g>
</g>
<defs>
<clipPath id="clip0_500_3329">
<rect width="1920" height="817" fill="white" transform="translate(0 0.5)"/>
</clipPath>
</defs>
</svg>
