 <svg 
    width="26"
    height="26"
    viewBox="0 0 26 26"
    fill="none"
    xmlns="http://www.w3.org/2000/svg"
>
    <path
        fill-rule="evenodd"
        clipRule="evenodd"
        d="M12.8428 25.0869C19.5628 25.0869 25.0107 19.639 25.0107 12.9189C25.0107 6.19891 19.5628 0.750977 12.8428 0.750977C6.12274 0.750977 0.674805 6.19891 0.674805 12.9189C0.674805 19.639 6.12274 25.0869 12.8428 25.0869ZM12.8428 22.8747C18.3411 22.8747 22.7984 18.4173 22.7984 12.9191C22.7984 7.42089 18.341 2.96348 12.8428 2.96348C7.34457 2.96348 2.88716 7.42089 2.88716 12.9191C2.88716 18.4173 7.34457 22.8747 12.8428 22.8747ZM14.7785 7.6682C14.7785 8.12634 14.6211 8.51754 14.3048 8.83932C13.989 9.16243 13.6084 9.3237 13.1638 9.3237C12.7174 9.3237 12.3362 9.16243 12.0168 8.83932C11.6981 8.51756 11.5384 8.12633 11.5384 7.6682C11.5384 7.21064 11.6981 6.81866 12.0168 6.49303C12.3354 6.16722 12.7174 6.00518 13.1638 6.00518C13.6084 6.00518 13.989 6.16799 14.3048 6.49303C14.6211 6.81866 14.7785 7.21062 14.7785 7.6682ZM14.6202 18.5789C14.1452 18.8071 13.7654 18.9807 13.4826 19.1003C13.1998 19.2201 12.8707 19.2795 12.4961 19.2795C11.9207 19.2795 11.4729 19.1082 11.1537 18.7676C10.8344 18.4259 10.6747 17.9923 10.6747 17.4668C10.6747 17.2631 10.6865 17.0538 10.7106 16.8406C10.7347 16.6275 10.7733 16.3865 10.8259 16.1178L11.4203 13.5609C11.4729 13.3159 11.5179 13.0837 11.5537 12.8642C11.5902 12.6462 11.608 12.4458 11.608 12.265C11.608 11.9384 11.5524 11.7102 11.4417 11.5817C11.3309 11.4533 11.1199 11.3885 10.8065 11.3885C10.6527 11.3885 10.4949 11.4186 10.334 11.4764C10.1724 11.5343 10.0773 10.8541 10.0773 10.8541C10.4664 10.6616 10.8383 10.4966 11.1942 10.3595C11.5499 10.2223 11.8861 10.1535 12.204 10.1535C12.7756 10.1535 13.2166 10.3215 13.5261 10.6575C13.8356 10.9935 13.9907 11.4295 13.9907 11.9669C13.9907 12.0779 13.9802 12.2737 13.9588 12.5534C13.9372 12.834 13.8975 13.0908 13.8396 13.3246L13.248 15.8721C13.1998 16.0765 13.156 16.3103 13.1182 16.5734C13.0792 16.835 13.0603 17.0349 13.0603 17.1688C13.0603 17.5073 13.1222 17.7378 13.2466 17.8607C13.3716 17.9836 13.5873 18.0445 13.8937 18.0445C14.0378 18.0445 14.2012 18.0137 14.3831 17.9527C14.5648 17.8916 14.6202 18.5789 14.6202 18.5789Z"
        fill="#FC5252"
    />
</svg>