<svg width="23" height="20" viewBox="0 0 23 20" fill="none" xmlns="http://www.w3.org/2000/svg">
<path fill-rule="evenodd" clip-rule="evenodd" d="M22.441 19.7472L13.8813 12.7666L12.8517 13.6063C12.4733 13.919 11.9946 14.0905 11.4999 14.0905C11.0053 14.0905 10.5265 13.919 10.1482 13.6063L9.11851 12.7666L0.558803 19.7472C0.788273 19.9116 1.06517 20.0002 1.34914 20H21.6507C21.9347 20.0002 22.2114 19.9116 22.4409 19.7472H22.441ZM14.4783 12.2794L22.9084 5.40477C22.9692 5.55736 23.0002 5.71975 23 5.88365V18.6759C23.0002 18.8398 22.9692 19.0024 22.9084 19.1551L14.4783 12.2794ZM0.0914525 19.1553C0.0306579 19.0024 -0.000335411 18.8396 2.74611e-06 18.6756V5.88335C-0.000335931 5.71946 0.0306549 5.55707 0.0914525 5.40448L8.52153 12.2795L0.0914525 19.1553ZM0.558846 4.81161C0.788485 4.64755 1.06521 4.55912 1.34918 4.55929H4.42506V5.78213V5.78197C4.42506 5.98974 4.59678 6.15828 4.80847 6.15828H10.4522V9.07374C10.4521 9.21237 10.5301 9.33969 10.6549 9.40468C10.7799 9.46967 10.9312 9.46136 11.0478 9.3834L18.3056 4.55891L21.6508 4.55908C21.9348 4.55891 22.2115 4.64751 22.441 4.81189L12.3635 13.0303C12.1213 13.2293 11.8158 13.3383 11.5 13.3383C11.1843 13.3383 10.8786 13.2293 10.6366 13.0303L0.558846 4.81161ZM5.1916 5.40601H10.8354C11.0472 5.40601 11.2188 5.57455 11.2188 5.78232V8.36584L17.5106 4.18332L11.2188 0V2.58351C11.2188 2.79129 11.0472 2.95966 10.8354 2.95966H5.1916V5.40601Z" fill="#104651"/>
</svg>
