<svg width="25" height="27" viewBox="0 0 25 27" fill="none" xmlns="http://www.w3.org/2000/svg">
<path d="M9.05928 5.25801C9.05928 6.68643 7.90132 7.84419 6.4729 7.84419C5.04448 7.84419 3.88672 6.68643 3.88672 5.25801C3.88672 3.82959 5.04448 2.67163 6.4729 2.67163C7.90132 2.67163 9.05928 3.82959 9.05928 5.25801Z" fill="#F37467"/>
<path d="M14.6014 14.1254C14.8004 13.5002 14.4592 12.8465 13.8625 12.6475L11.7878 11.9653L10.0824 9.8621C9.48545 9.1232 8.57608 8.69678 7.60981 8.69678H5.33606C2.66441 8.69678 0.618085 13.2726 0.0781324 14.6937C-0.149263 15.2906 0.135031 15.9726 0.73177 16.2C0.873917 16.2569 1.01606 16.2852 1.15801 16.2852C1.61279 16.2852 2.06759 16.0009 2.23806 15.5463C2.7212 14.3526 3.37481 13.159 3.97176 12.3063L3.80126 16.8538L1.95398 25.437C1.81184 26.1475 2.23828 26.8297 2.94883 26.9717C3.03408 27 3.11932 27 3.23312 27C3.83007 27 4.36987 26.5738 4.51203 25.9768L6.33098 17.5073H6.84246V25.6926C6.84246 26.4032 7.41084 27.0001 8.14994 27.0001C8.86047 27.0001 9.45742 26.4317 9.45742 25.6926V16.9673L9.31527 12.5906L10.2249 13.699C10.367 13.8695 10.5658 14.0116 10.7649 14.0685L13.1808 14.8643C13.749 15.0634 14.4026 14.7222 14.6015 14.1254L14.6014 14.1254Z" fill="#F37467"/>
<path d="M19.0075 14.4949C18.7232 14.1254 18.098 14.1254 17.8138 14.4949L15.4549 17.6781C15.2844 17.9054 15.2558 18.1895 15.398 18.4455C15.5116 18.7012 15.7675 18.8434 16.0516 18.8434H17.5296V19.6961C17.5296 21.4866 16.0801 22.9361 14.2896 22.9361H12.5275C12.0444 22.9361 11.6465 23.334 11.6465 23.8171C11.6465 24.3002 12.0444 24.6981 12.5275 24.6981H14.2896C17.0748 24.6981 19.3202 22.4529 19.3202 19.6675V18.8148H20.7981C21.0824 18.8148 21.3382 18.6443 21.4518 18.4169C21.5654 18.1612 21.5654 17.8768 21.3949 17.6495L19.0075 14.4949Z" fill="#F37467"/>
<path d="M18.8644 7.9011H17.9833C17.3012 7.9011 16.7328 7.36104 16.7044 6.67909C15.4824 6.62219 14.3738 6.50859 13.3223 6.33809V9.49285C13.3223 10.0898 13.8054 10.5444 14.3738 10.5444H22.4739C23.0708 10.5444 23.5254 10.0612 23.5254 9.49285V6.33789C22.5022 6.50839 21.3654 6.62218 20.1432 6.67888C20.1434 7.36104 19.5748 7.9011 18.8643 7.9011H18.8644Z" fill="#F37467"/>
<path d="M23.2127 2.27375H20.8821L20.8823 1.50632C20.8823 0.682211 20.2001 0 19.3759 0H17.4434C16.6193 0 15.9371 0.68216 15.9371 1.50632V2.27375H13.6064C13.0095 2.27375 12.5549 2.72853 12.5549 3.32528L12.5547 4.97371C12.5547 5.11586 12.6683 5.25801 12.8104 5.28636C13.8336 5.4854 15.1125 5.65589 16.7041 5.71259C16.7041 5.00206 17.2725 4.43369 17.983 4.43369H18.864C19.5745 4.43369 20.1429 5.00206 20.1429 5.71259C21.7344 5.62735 23.0134 5.4852 24.0082 5.25781C24.1503 5.22946 24.2639 5.11566 24.2639 4.94517V3.29673C24.2643 2.75688 23.8095 2.27377 23.2126 2.27377L23.2127 2.27375ZM19.6034 2.1885H17.216L17.2158 1.50634C17.2158 1.39274 17.3011 1.27894 17.4432 1.27894H19.3758C19.4894 1.27894 19.6032 1.36419 19.6032 1.50634L19.6034 2.1885Z" fill="#F37467"/>
<path d="M18.8646 6.96314C19.0636 6.96314 19.2056 6.82099 19.2056 6.62215V5.74114C19.2056 5.5421 19.0634 5.40015 18.8646 5.40015H17.9836C17.7845 5.40015 17.6426 5.54229 17.6426 5.74114V6.62215C17.6426 6.82119 17.7847 6.96314 17.9836 6.96314H18.8646Z" fill="#F37467"/>
</svg>
