<svg width="15" height="18" viewBox="0 0 15 18" fill="none" xmlns="http://www.w3.org/2000/svg">
<path d="M10.8263 2.55726C10.3373 1.87403 9.66523 1.35697 8.87564 1.06762C7.30575 0.488941 5.44824 0.994815 4.38803 2.28846C3.84482 2.94926 3.52188 3.74636 3.45655 4.60132C3.39308 5.43013 3.60028 6.28321 4.03335 6.99258C4.45149 7.67765 5.0787 8.24889 5.81231 8.57555C6.60194 8.92836 7.46993 9.03104 8.31929 8.86302C9.93213 8.54382 11.2519 7.18113 11.5039 5.55522C11.5375 5.33495 11.5599 5.11469 11.5599 4.89067V4.88693C11.5618 4.05812 11.3079 3.23116 10.8263 2.55728L10.8263 2.55726Z" fill="white"/>
<path d="M14.511 12.3822C14.5128 12.371 14.5128 12.3579 14.5128 12.3449C14.5091 10.9523 13.908 9.59147 12.8589 8.67135C12.592 8.43802 12.3027 8.23082 11.9947 8.05534C11.8621 7.98067 11.6475 7.98627 11.5429 8.1132C11.3469 8.35214 11.1323 8.57613 10.8989 8.7796C10.8429 8.82814 10.7851 8.87667 10.7272 8.92521C10.7216 8.93081 10.7067 8.94201 10.6917 8.95321C10.6899 8.95321 10.6899 8.95507 10.688 8.95507C10.6563 8.98121 10.6227 9.00361 10.5891 9.02787C10.464 9.11934 10.3352 9.20521 10.2027 9.28735C10.0739 9.36575 9.94133 9.43855 9.80691 9.50762C9.73971 9.54122 9.67064 9.57482 9.60157 9.60469C9.57731 9.61589 9.55304 9.62709 9.52877 9.63642C9.53064 9.63642 9.53437 9.63456 9.53624 9.63456C9.53251 9.63642 9.52131 9.64016 9.50264 9.64762C9.51011 9.64389 9.51757 9.64202 9.52317 9.63829C9.51757 9.64016 9.51011 9.64389 9.50637 9.64576C9.48024 9.65696 9.45411 9.66629 9.4261 9.67749C9.1349 9.79136 8.83435 9.87909 8.5282 9.94256C8.45167 9.9575 8.37513 9.97243 8.2986 9.98363C8.27993 9.98736 8.2594 9.98923 8.24073 9.99296H8.23513C8.24073 9.99296 8.23886 9.99296 8.21646 9.99483C8.21273 9.99483 8.209 9.9967 8.20526 9.9967C8.20713 9.9967 8.209 9.9967 8.21086 9.99483C8.2034 9.99483 8.19593 9.9967 8.1922 9.9967C8.16793 10.0004 8.14366 10.0023 8.1194 10.006C7.95513 10.0228 7.79086 10.034 7.62657 10.0378C7.46043 10.0415 7.29616 10.0359 7.13002 10.0247C7.05162 10.0191 6.97135 10.0116 6.89295 10.0023C6.88361 10.0023 6.84815 9.9967 6.82761 9.99483C6.83321 9.99483 6.84068 9.9967 6.84255 9.9967C6.83881 9.9967 6.83321 9.99483 6.82388 9.99483C6.81828 9.99483 6.81454 9.99296 6.81268 9.99296C6.80894 9.99296 6.80334 9.9911 6.80148 9.9911C6.77721 9.98736 6.75294 9.98363 6.72868 9.9799C6.41507 9.92949 6.10518 9.85109 5.80467 9.74656C5.73373 9.72229 5.66093 9.69429 5.58999 9.66629C5.56759 9.65696 5.54332 9.64949 5.52093 9.63829C5.51719 9.63642 5.51159 9.63269 5.49479 9.62709C5.47239 9.61776 5.45186 9.60842 5.42946 9.59909C5.28759 9.53562 5.14758 9.46469 5.01319 9.38815C4.86572 9.30602 4.72199 9.21641 4.58197 9.12121C4.50917 9.07081 4.43824 9.01854 4.3673 8.96627C4.36917 8.96814 4.3729 8.97001 4.37477 8.97187C4.38224 8.97747 4.3841 8.97934 4.38597 8.98121C4.38224 8.97934 4.3617 8.96254 4.3561 8.95881C4.35797 8.96067 4.3617 8.96254 4.36544 8.96627C4.3505 8.95321 4.3337 8.94201 4.31877 8.92894C4.28143 8.89907 4.24597 8.8692 4.2105 8.83934C3.94543 8.61533 3.70463 8.36706 3.48621 8.09825C3.38354 7.97131 3.167 7.96198 3.03447 8.04038C2.37367 8.42494 1.80991 8.91773 1.3675 9.54495C0.893345 10.2188 0.6115 11.0084 0.518143 11.8242C0.478943 12.1714 0.488276 12.5223 0.488276 12.8714V14.3293V15.3523C0.490142 16.0392 0.872831 16.7075 1.50936 16.9969C1.8043 17.1294 2.10671 17.1705 2.42405 17.1705H12.665C13.1783 17.1705 13.6823 16.9801 14.0314 16.5955C14.3151 16.2819 14.4775 15.8918 14.5037 15.4699C14.5093 15.3747 14.5055 15.2795 14.5055 15.1843V12.3823L14.511 12.3822ZM8.93142 14.2601H8.07086V15.1132C8.07086 15.4268 7.81326 15.6601 7.51086 15.6732C7.20845 15.6863 6.95086 15.4063 6.95086 15.1132V14.2601H6.0903C5.77669 14.2601 5.54337 14.0025 5.5303 13.7001C5.51723 13.3977 5.79724 13.1401 6.0903 13.1401H6.95086V12.2702C6.95086 11.9566 7.20846 11.7233 7.51086 11.7102C7.81326 11.6972 8.07086 11.9772 8.07086 12.2702V13.1401H8.93142C9.24503 13.1401 9.47835 13.3977 9.49142 13.7001C9.50449 14.0025 9.22448 14.2601 8.93142 14.2601Z" fill="white"/>
</svg>
