<svg width="12" height="15" viewBox="0 0 12 15" fill="none" xmlns="http://www.w3.org/2000/svg">
<path fill-rule="evenodd" clip-rule="evenodd" d="M11.7168 15H0V0H6.62142V5.09176C6.70424 5.09176 11.7168 5.09655 11.7168 5.09655V15ZM7.5768 2.34955V0.676565L11.0413 4.14106H7.5768V2.34955ZM6.26871 9.39138V7.42106C6.26871 7.15731 6.05562 6.94332 5.79098 6.94332C5.52723 6.94332 5.31324 7.15731 5.31324 7.42106V9.39138H3.34402C3.07938 9.39138 2.86628 9.60536 2.86628 9.86912C2.86628 10.1327 3.07938 10.3469 3.34402 10.3469H5.31324V12.317C5.31324 12.5807 5.52723 12.7947 5.79098 12.7947C6.05562 12.7947 6.26871 12.5807 6.26871 12.317V10.3469H8.23885C8.5026 10.3469 8.71659 10.1327 8.71659 9.86912C8.71659 9.60536 8.5026 9.39138 8.23885 9.39138H6.26871Z" fill="#104651"/>
</svg>
