<svg width="17" height="24" viewBox="0 0 17 24" fill="none" xmlns="http://www.w3.org/2000/svg">
<path d="M14.9974 0H5.2457V2.66069C5.24501 3.34627 4.97232 4.00333 4.48765 4.48787C4.0028 4.97255 3.34569 5.24508 2.66033 5.24575H0V21.215C0.000693882 21.7458 0.211806 22.2548 0.587213 22.63C0.962429 23.0054 1.47139 23.2165 2.0022 23.2172H14.9974C15.5283 23.2167 16.0372 23.0056 16.4126 22.6302C16.7882 22.255 16.9993 21.746 17 21.215V2.0026C16.9995 1.47179 16.7884 0.962642 16.4128 0.587257C16.0374 0.211695 15.5283 0.000577286 14.9974 4.43841e-05L14.9974 0ZM6.29463 3.99068C6.4773 2.97554 7.40449 2.23916 8.49978 2.23916C9.59507 2.23916 10.5223 2.97554 10.7049 3.99068C10.7257 4.12113 10.6381 4.24429 10.508 4.26771C10.3779 4.29113 10.253 4.2063 10.227 4.07655C10.0856 3.29314 9.35949 2.72484 8.49975 2.72484C7.64 2.72484 6.91334 3.29314 6.77248 4.07655C6.75184 4.19242 6.65122 4.27673 6.53361 4.27673C6.51904 4.27673 6.50447 4.27517 6.49024 4.27239C6.35858 4.24845 6.27098 4.12251 6.29457 3.99067L6.29463 3.99068ZM4.31917 5.21089V5.21071C4.31899 4.97566 4.41215 4.74998 4.57816 4.58345C4.74417 4.41709 4.96951 4.32324 5.20472 4.32289H11.7945C12.0294 4.32307 12.2547 4.41657 12.4207 4.58275C12.5869 4.74876 12.6802 4.97393 12.6806 5.20882V6.2677H4.31937L4.31917 5.21089ZM4.45898 20.892H4.45916C4.45916 21.2318 4.18351 21.5072 3.8437 21.5072H2.95433C2.6145 21.5072 2.33905 21.2318 2.33905 20.892V20.0026C2.33922 19.6628 2.6147 19.3874 2.95433 19.3871H3.8437C4.18353 19.3875 4.45884 19.6628 4.45916 20.0026L4.45898 20.892ZM4.45898 17.3589L4.45916 17.3587C4.45916 17.6987 4.18351 17.9741 3.8437 17.9741H2.95433C2.6145 17.9741 2.33905 17.6987 2.33905 17.3587V16.4698C2.33905 16.13 2.61452 15.8545 2.95433 15.8545H3.8437C4.00694 15.8545 4.1634 15.9194 4.27894 16.0348C4.3943 16.1501 4.45917 16.3068 4.45917 16.4698L4.45898 17.3589ZM4.45898 13.8263L4.45916 13.8261C4.45881 14.1658 4.18334 14.4411 3.8437 14.4411H2.95433C2.61468 14.4411 2.33918 14.1658 2.33905 13.8261V12.9368C2.33905 12.5969 2.61452 12.3215 2.95433 12.3215H3.8437C4.00694 12.3215 4.1634 12.3862 4.27894 12.5017C4.3943 12.6171 4.45917 12.7736 4.45917 12.9368L4.45898 13.8263ZM4.31917 9.33528V6.85258H5.44221V7.44756C5.44221 7.5886 5.49824 7.72391 5.59799 7.82347C5.69773 7.92322 5.83304 7.97908 5.97407 7.97908H6.32865C6.62216 7.97908 6.86 7.74107 6.86 7.44755V6.85257H10.14V7.44755H10.1401C10.1401 7.74106 10.378 7.97908 10.6715 7.97908H11.0255C11.1669 7.97977 11.3029 7.92409 11.4032 7.82434C11.5034 7.72459 11.5598 7.58911 11.5598 7.44756V6.85258H12.6829V9.3351C12.6825 9.56998 12.5892 9.79512 12.423 9.96135C12.257 10.1274 12.0317 10.2209 11.7968 10.221H5.20477C4.96989 10.2207 4.74492 10.1272 4.57888 9.96117C4.41286 9.79516 4.31954 9.57 4.31919 9.3351L4.31917 9.33528ZM14.6601 20.8917C14.6601 21.2315 14.3846 21.507 14.0448 21.507H7.37069C7.03087 21.507 6.75524 21.2315 6.75524 20.8917V20.0023C6.75558 19.6625 7.03088 19.3872 7.37069 19.3869H14.0448C14.2081 19.3869 14.3645 19.4517 14.4799 19.5671C14.5954 19.6826 14.6601 19.8391 14.6601 20.0023L14.6601 20.8917ZM14.6601 17.3586V17.3584C14.6601 17.6984 14.3846 17.9739 14.0448 17.9739H7.37069C7.03087 17.9739 6.75524 17.6984 6.75524 17.3584V16.4695C6.75524 16.1297 7.03088 15.8543 7.37069 15.8543H14.0448C14.2081 15.8543 14.3645 15.9191 14.4799 16.0345C14.5954 16.1499 14.6601 16.3065 14.6601 16.4696L14.6601 17.3586ZM14.6601 13.826V13.8259C14.6601 13.9891 14.5954 14.1456 14.4799 14.2609C14.3645 14.3761 14.2079 14.441 14.0448 14.4408H7.37067C7.03102 14.4408 6.75552 14.1655 6.75521 13.8259V12.9365C6.75521 12.5967 7.03086 12.3212 7.37067 12.3212H14.0448C14.2081 12.3212 14.3645 12.3859 14.4799 12.5014C14.5954 12.6168 14.6601 12.7733 14.6601 12.9365V13.826Z" fill="#104651"/>
</svg>
