<svg width="18" height="19" viewBox="0 0 18 19" fill="none" xmlns="http://www.w3.org/2000/svg">
<path id="Vector" d="M0 18.3368C0.00220489 18.5119 0.0723224 18.6791 0.195356 18.8029C0.318389 18.9268 0.484495 18.9973 0.658552 18.9995C1.21714 19.0049 1.75703 18.7964 2.16878 18.4164C2.34503 18.2236 2.5933 18.114 2.85362 18.114C3.11395 18.114 3.36224 18.2236 3.53847 18.4164C3.95154 18.7914 4.48804 18.9991 5.04429 18.9991C5.60066 18.9991 6.1372 18.7914 6.55028 18.4164C6.72652 18.2236 6.97479 18.114 7.23512 18.114C7.49544 18.114 7.74373 18.2236 7.91996 18.4164C8.3345 18.792 8.87246 19 9.43019 19C9.98803 19 10.526 18.792 10.9404 18.4164C11.1196 18.2255 11.3689 18.1174 11.6297 18.1174C11.8906 18.1174 12.1399 18.2255 12.3191 18.4164C12.7308 18.7964 13.2705 19.0049 13.8293 18.9995C14.0032 18.9973 14.1694 18.9268 14.2923 18.8029C14.4154 18.6791 14.4855 18.5119 14.4878 18.3368V12.8137H17.3414C17.5153 12.8115 17.6816 12.7409 17.8046 12.6171C17.9277 12.4933 17.9978 12.326 18 12.1509V2.43008C18 1.78564 17.7456 1.16755 17.2928 0.711747C16.8399 0.255946 16.2258 0 15.5853 0H4.1708C3.06465 0 2.0038 0.442205 1.22165 1.2294C0.439492 2.01659 0.000116562 3.0843 0.000116562 4.19754L0 18.3368ZM16.6828 2.4301V11.4882H14.4877V2.4301C14.4877 2.03554 14.6969 1.67086 15.0365 1.4735C15.376 1.27615 15.7944 1.27615 16.1341 1.4735C16.4736 1.67085 16.6828 2.03554 16.6828 2.4301ZM6.04085 5.30223H10.4312C10.6664 5.30223 10.8838 5.42857 11.0016 5.63362C11.1192 5.83867 11.1192 6.09136 11.0016 6.2964C10.8838 6.50145 10.6664 6.62779 10.4312 6.62779H6.04085C5.80566 6.62779 5.58827 6.50145 5.47052 6.2964C5.35293 6.09135 5.35293 5.83867 5.47052 5.63362C5.58827 5.42857 5.80567 5.30223 6.04085 5.30223ZM6.04085 8.83699H10.4312C10.6664 8.83699 10.8838 8.96334 11.0016 9.16838C11.1192 9.37343 11.1192 9.62612 11.0016 9.83116C10.8838 10.0362 10.6664 10.1625 10.4312 10.1625H6.04085C5.80566 10.1625 5.58827 10.0362 5.47052 9.83116C5.35293 9.62611 5.35293 9.37343 5.47052 9.16838C5.58827 8.96334 5.80567 8.83699 6.04085 8.83699ZM6.04085 12.3718H10.4312C10.6664 12.3718 10.8838 12.4981 11.0016 12.7031C11.1192 12.9082 11.1192 13.1609 11.0016 13.3659C10.8838 13.571 10.6664 13.6973 10.4312 13.6973H6.04085C5.80566 13.6973 5.58827 13.571 5.47052 13.3659C5.35293 13.1609 5.35293 12.9082 5.47052 12.7031C5.58827 12.4981 5.80567 12.3718 6.04085 12.3718ZM3.84578 5.30215C4.02041 5.30215 4.18799 5.37198 4.31146 5.49625C4.43493 5.62052 4.50432 5.78903 4.50432 5.96493C4.50432 6.14068 4.43493 6.30919 4.31146 6.43361C4.18799 6.55788 4.02041 6.62771 3.84578 6.62771C3.67115 6.62771 3.50357 6.55788 3.3801 6.43361C3.25663 6.30919 3.18724 6.14068 3.18724 5.96493C3.18945 5.78977 3.25957 5.62259 3.3826 5.49875C3.50563 5.37493 3.67187 5.30437 3.84578 5.30215ZM3.84578 8.83692C4.02041 8.83692 4.18799 8.90675 4.31146 9.03102C4.43493 9.15528 4.50432 9.32394 4.50432 9.49969C4.50432 9.67545 4.43493 9.8441 4.31146 9.96837C4.18799 10.0926 4.02041 10.1625 3.84578 10.1625C3.67115 10.1625 3.50357 10.0926 3.3801 9.96837C3.25663 9.8441 3.18724 9.67545 3.18724 9.49969C3.18945 9.32468 3.25957 9.15736 3.3826 9.03352C3.50563 8.90969 3.67187 8.83914 3.84578 8.83692ZM3.84578 12.3717C4.02041 12.3717 4.18799 12.4415 4.31146 12.5658C4.43493 12.6902 4.50432 12.8587 4.50432 13.0345C4.50432 13.2104 4.43493 13.3789 4.31146 13.5031C4.18799 13.6274 4.02041 13.6972 3.84578 13.6972C3.67115 13.6972 3.50357 13.6274 3.3801 13.5031C3.25663 13.3789 3.18724 13.2104 3.18724 13.0345C3.18945 12.8594 3.25957 12.6921 3.3826 12.5684C3.50563 12.4446 3.67187 12.374 3.84578 12.3717Z" fill="#104651"/>
</svg>
