<svg width="20" height="27" viewBox="0 0 20 27" fill="none" xmlns="http://www.w3.org/2000/svg">
<path opacity="0.7" fill-rule="evenodd" clipRule="evenodd" d="M18.4617 15.4285L10.0002 27L1.53863 15.4285H1.57699C0.57706 13.8858 0 12.0341 0 10.0286C0 4.47424 4.46161 0 10 0C15.5384 0 20 4.47438 20 10.0286C19.9997 12.0344 19.4229 13.8858 18.4614 15.4285H18.4617ZM10.0002 6.17132C7.88471 6.17132 6.15401 7.90698 6.15401 10.0285C6.15401 12.15 7.88471 13.8856 10.0002 13.8856C12.1156 13.8856 13.8463 12.15 13.8463 10.0285C13.8463 7.90698 12.1156 6.17132 10.0002 6.17132Z" fill="#104651"/>
</svg>
