<svg width="86" height="71" viewBox="0 0 86 71" fill="none" xmlns="http://www.w3.org/2000/svg">
<g opacity="0.6">
<path fill-rule="evenodd" clipRule="evenodd" d="M50.0438 20.7786C54.535 23.767 58.4475 25.9592 58.9807 31.4132H24.0633C24.5969 25.9592 28.5089 23.7665 33.0002 20.7786C33.2248 20.8317 33.4587 20.8598 33.6992 20.8598H49.3442C49.5847 20.8598 49.819 20.8317 50.0441 20.7786H50.0438ZM46.1845 58.6089L53.8128 54.2045C56.0512 58.0819 57.9315 61.3379 60.456 65.7111L52.8277 70.1155C49.6678 71.9396 45.5767 70.8435 43.7526 67.6836C41.9258 64.5193 43.0203 60.4354 46.1845 58.6085V58.6089ZM56.6427 52.5708L70.1309 60.1109C70.6211 59.7867 71.0564 59.4053 71.4311 58.9806L58.2766 51.6274L56.6427 52.5708ZM60.2524 50.4864L72.4982 57.3315C72.7277 56.8269 72.8931 56.2955 72.9923 55.7505L61.8869 49.543L60.2524 50.4864ZM63.9218 48.4345C66.9834 47.1677 70.5597 48.3814 72.2167 51.2508C72.6335 51.9722 72.8977 52.7415 73.0201 53.5207L63.9218 48.4345ZM68.1677 61.2588L56.332 54.6432L57.9153 57.3849L66.5331 62.2026L68.1677 61.2588ZM64.5571 63.3436L59.8298 60.7007L62.156 64.7294L64.5571 63.3436ZM60.2849 68.0806V71H69.0915C72.7454 71 75.7347 68.0104 75.7347 64.3568C75.7347 62.4164 74.8913 60.6637 73.5538 59.446C72.8508 60.4763 71.9144 61.3672 70.7682 62.0293L60.2849 68.0806ZM55.2289 71H58.3181V69.2162L55.2289 71ZM33.6997 12H49.3447C49.9507 12 50.4461 12.4959 50.4461 13.1014V17.7906C50.4461 18.3966 49.9503 18.892 49.3447 18.892L33.6997 18.8924C33.0937 18.8924 32.5983 18.3966 32.5983 17.791V13.1014C32.5983 12.4963 33.0937 12 33.6997 12ZM24.0006 33.3798V59.2586H42.5787C43.2615 58.3253 44.1418 57.517 45.2023 56.9049L59.0432 48.9136L59.0437 33.3798H24.0005H24.0006ZM40.3691 39.2726H42.675C43.3521 39.2726 43.9041 39.8251 43.9041 40.5017V43.9376H47.34C48.0171 43.9376 48.569 44.49 48.569 45.1666V47.4726C48.569 48.1497 48.0166 48.7016 47.34 48.7016H43.9041V52.1375C43.9041 52.8146 43.3516 53.3666 42.675 53.3666H40.3691C39.692 53.3666 39.14 52.8141 39.14 52.1375V48.7016H35.7041C35.027 48.7016 34.475 48.1492 34.475 47.4726V45.1666C34.475 44.4896 35.0275 43.9376 35.7041 43.9376H39.14V40.5017C39.14 39.825 39.6925 39.2726 40.3691 39.2726ZM41.9348 68.4586C40.6904 66.1597 40.6091 63.5123 41.5008 61.2247H24V61.4599C24 65.3093 27.1493 68.4577 30.9977 68.4577H41.9342L41.9348 68.4586Z" fill="white"/>
</g>
<path opacity="0.1" d="M74.4476 30.7131C76.4111 26.2438 77.9527 24.7902 82.6951 22.9381C82.8795 22.8662 83 22.6927 83 22.5C83 22.3073 82.8792 22.1338 82.6951 22.0619C77.9527 20.21 76.4113 18.7565 74.4476 14.2869C74.3712 14.113 74.1948 14 74 14C73.8052 14 73.6291 14.113 73.5524 14.2869C71.5889 18.7562 70.0473 20.2098 65.3049 22.0619C65.1205 22.1338 65 22.3073 65 22.5C65 22.6927 65.1208 22.8662 65.3049 22.9381C70.0473 24.79 71.5887 26.2435 73.5524 30.7131C73.6288 30.887 73.8052 31 74 31C74.1948 31 74.3709 30.887 74.4476 30.7131ZM74 15.6379C75.7344 19.2796 77.4102 20.8664 81.2539 22.5004C77.41 24.1341 75.7345 25.7209 74 29.3628C72.2656 25.7211 70.5898 24.1343 66.7455 22.5004C70.5897 20.8666 72.2652 19.2799 74 15.6379Z" fill="white"/>
<path opacity="0.1" d="M54.2487 8.84811C55.3395 6.48199 56.1959 5.71246 58.8306 4.73191C58.933 4.69386 59 4.60201 59 4.5C59 4.39799 58.9329 4.30614 58.8306 4.26809C56.1959 3.28765 55.3396 2.51813 54.2487 0.151894C54.2062 0.0598186 54.1082 0 54 0C53.8918 0 53.7939 0.0598215 53.7513 0.151894C52.6605 2.51801 51.8041 3.28754 49.1694 4.26809C49.067 4.30614 49 4.39799 49 4.5C49 4.60201 49.0671 4.69386 49.1694 4.73191C51.8041 5.71235 52.6604 6.48187 53.7513 8.84811C53.7938 8.94018 53.8918 9 54 9C54.1082 9 54.2061 8.94018 54.2487 8.84811ZM54 0.867146C54.9636 2.7951 55.8945 3.63517 58.03 4.50021C55.8945 5.36513 54.9636 6.20519 54 8.13327C53.0364 6.20531 52.1055 5.36524 49.9697 4.50021C52.1054 3.63528 53.0362 2.79522 54 0.867146Z" fill="white"/>
<path opacity="0.1" d="M8.39788 45.73C10.1432 41.5235 11.5135 40.1555 15.729 38.4123C15.8929 38.3446 16 38.1813 16 38C16 37.8187 15.8927 37.6554 15.729 37.5877C11.5135 35.8447 10.1434 34.4767 8.39788 30.27C8.32992 30.1063 8.17317 30 8 30C7.82684 30 7.67027 30.1063 7.60213 30.27C5.85678 34.4765 4.48649 35.8445 0.271044 37.5877C0.107145 37.6554 0 37.8187 0 38C0 38.1813 0.107338 38.3446 0.271044 38.4123C4.48649 40.1553 5.85658 41.5233 7.60213 45.73C7.67008 45.8937 7.82684 46 8 46C8.17317 46 8.32973 45.8937 8.39788 45.73ZM8 31.5416C9.54168 34.9691 11.0313 36.4625 14.4479 38.0004C11.0311 39.538 9.54178 41.0315 8 44.4591C6.45832 41.0317 4.96873 39.5382 1.55158 38.0004C4.96858 36.4627 6.45792 34.9693 8 31.5416Z" fill="white"/>
<path opacity="0.1" d="M13.8 17.6H12.6C12.2687 17.6 12 17.3316 12 17C12 16.6684 12.2687 16.4 12.6 16.4H13.8C14.1313 16.4 14.4 16.6684 14.4 17C14.4 17.3316 14.1313 17.6 13.8 17.6ZM18 17C18 16.6684 17.7313 16.4 17.4 16.4H16.2C15.8687 16.4 15.6 16.6684 15.6 17C15.6 17.3316 15.8687 17.6 16.2 17.6H17.4C17.7313 17.6 18 17.3316 18 17ZM15.6 15.8V14.6C15.6 14.2684 15.3313 14 15 14C14.6687 14 14.4 14.2684 14.4 14.6V15.8C14.4 16.1316 14.6687 16.4 15 16.4C15.3313 16.4 15.6 16.1316 15.6 15.8ZM15.6 19.4V18.2C15.6 17.8684 15.3313 17.6 15 17.6C14.6687 17.6 14.4 17.8684 14.4 18.2V19.4C14.4 19.7316 14.6687 20 15 20C15.3313 20 15.6 19.7316 15.6 19.4Z" fill="white"/>
<path opacity="0.1" d="M86 38C86 36.897 85.103 36 84 36C82.897 36 82 36.897 82 38C82 39.103 82.897 40 84 40C85.103 40 86 39.103 86 38ZM84.6667 38C84.6667 38.3679 84.3676 38.6667 84 38.6667C83.6324 38.6667 83.3333 38.3679 83.3333 38C83.3333 37.6321 83.6324 37.3333 84 37.3333C84.3676 37.3333 84.6667 37.6321 84.6667 38Z" fill="white"/>
<path opacity="0.1" d="M33 2C33 0.89699 32.103 0 31 0C29.897 0 29 0.89699 29 2C29 3.10301 29.897 4 31 4C32.103 4 33 3.10301 33 2ZM31.6667 2C31.6667 2.36786 31.3676 2.66667 31 2.66667C30.6324 2.66667 30.3333 2.36786 30.3333 2C30.3333 1.63214 30.6324 1.33333 31 1.33333C31.3676 1.33333 31.6667 1.63214 31.6667 2Z" fill="white"/>
</svg>
