<svg width="95" height="74" viewBox="0 0 95 74" fill="none" xmlns="http://www.w3.org/2000/svg">
<g opacity="0.6">
<path d="M59.6916 46.9368C62.075 48.3664 63.7357 50.8756 63.9846 53.7887C65.8988 54.2175 67.3344 55.9274 67.3344 57.9694C67.3344 60.3336 65.4111 62.257 63.0469 62.257C60.6828 62.257 58.7594 60.3336 58.7594 57.9694C58.7594 55.9655 60.1435 54.2828 62.0048 53.8158C61.6712 50.6785 59.227 48.1698 56.1233 47.7259C55.1556 50.4204 50.8423 52.4543 45.6519 52.4543C40.087 52.4543 35.5275 50.1158 35.0269 47.1314C31.9597 47.7641 29.6369 50.4407 29.5338 53.6685C29.9152 53.8903 30.224 54.2331 30.4131 54.6486C31.8221 55.313 33.0667 56.7127 34.0201 58.7061C34.1798 59.042 34.2009 59.4206 34.0836 59.7662C34.6546 61.2363 34.9813 62.8436 34.9813 64.1932C34.9813 66.0844 34.9813 67.8729 32.9199 68.3317C32.6968 68.5176 32.4175 68.6193 32.1239 68.6193H30.7467C30.0561 68.6193 29.4942 68.0565 29.4942 67.3667L29.4956 67.318C29.5218 66.6522 30.0795 66.1142 30.7472 66.1142H32.1243C32.2656 66.1142 32.4032 66.1382 32.5366 66.1846C32.6199 66.1607 32.6461 66.1418 32.6466 66.1409C32.7998 65.869 32.7998 64.737 32.7998 64.1936C32.7998 63.0971 32.5256 61.7733 32.0447 60.5429C31.7953 60.4012 31.5933 60.1868 31.4695 59.9273C30.6344 58.1787 29.4984 57.0491 28.5763 57.0491C27.633 57.0491 26.4403 58.2703 25.6084 60.0859C25.4727 60.3814 25.2343 60.6229 24.9417 60.7665C24.5068 61.944 24.268 63.1555 24.268 64.1922C24.268 64.6487 24.268 65.8606 24.442 66.1445C24.4438 66.1445 24.4829 66.1685 24.5924 66.1951C24.7351 66.1404 24.8878 66.1119 25.0411 66.1119H26.421C27.0643 66.1119 27.6017 66.6019 27.6666 67.2378L27.673 67.3156C27.673 68.055 27.1112 68.6178 26.421 68.6178H25.041C24.7672 68.6178 24.5027 68.5267 24.285 68.3597C23.4968 68.211 22.9414 67.8636 22.5898 67.2977C22.1637 66.6135 22.086 65.7152 22.086 64.1913C22.086 62.8541 22.3947 61.3155 22.9552 59.8449C22.8728 59.5302 22.9004 59.2016 23.0375 58.9058C23.6215 57.6289 24.3641 56.5351 25.1846 55.7441C25.636 55.3093 26.1205 54.9596 26.6281 54.7047C26.8186 54.2579 27.1503 53.8935 27.5557 53.6616C27.6238 50.9822 28.8763 48.5937 30.8172 47.0089C23.9382 47.6889 19 49.4811 19 64.1775C19 72.9375 25.4019 73.3691 33.7845 73.3691C34.6983 73.3691 35.637 73.3627 36.5932 73.3627H54.7136C55.667 73.3627 56.6061 73.3691 57.5209 73.3691C65.9032 73.3691 72.3065 72.9389 72.3065 64.1775C72.306 48.9207 66.9827 47.5707 59.6918 46.937L59.6916 46.9368Z" fill="white"/>
<path d="M45.6563 48.9545C53.7593 48.9545 60.3265 36.7698 60.3265 28.6702C60.3265 20.5677 53.7599 14 45.6563 14C37.5547 14 30.9873 20.568 30.9873 28.6702C30.9873 36.7713 37.5563 48.9545 45.6563 48.9545Z" fill="white"/>
<path d="M65.0265 57.9681C65.0265 59.0609 64.1403 59.9472 63.0474 59.9472C61.9542 59.9472 61.0684 59.0609 61.0684 57.9681C61.0684 56.8753 61.9541 55.989 63.0474 55.989C64.1403 55.989 65.0265 56.8752 65.0265 57.9681Z" fill="white"/>
</g>
<path opacity="0.1" d="M20.2984 22.8144C21.6074 19.9224 22.6351 18.9819 25.7967 17.7835C25.9196 17.7369 26 17.6247 26 17.5C26 17.3753 25.9195 17.2631 25.7967 17.2165C22.6351 16.0182 21.6076 15.0777 20.2984 12.1856C20.2474 12.0731 20.1299 12 20 12C19.8701 12 19.7527 12.0731 19.7016 12.1856C18.3926 15.0776 17.3649 16.0181 14.2033 17.2165C14.0804 17.2631 14 17.3753 14 17.5C14 17.6247 14.0805 17.7369 14.2033 17.7835C17.3649 18.9818 18.3924 19.9223 19.7016 22.8144C19.7526 22.9269 19.8701 23 20 23C20.1299 23 20.2473 22.9269 20.2984 22.8144ZM20 13.0598C21.1563 15.4162 22.2735 16.443 24.8359 17.5003C22.2733 18.5574 21.1563 19.5841 20 21.9407C18.8437 19.5843 17.7265 18.5575 15.1637 17.5003C17.7264 16.4431 18.8434 15.4164 20 13.0598Z" fill="white"/>
<path opacity="0.1" d="M64.2487 13.8481C65.3395 11.482 66.1959 10.7125 68.8306 9.73191C68.933 9.69386 69 9.60201 69 9.5C69 9.39799 68.9329 9.30614 68.8306 9.26809C66.1959 8.28765 65.3396 7.51813 64.2487 5.15189C64.2062 5.05982 64.1082 5 64 5C63.8918 5 63.7939 5.05982 63.7513 5.15189C62.6605 7.51801 61.8041 8.28754 59.1694 9.26809C59.067 9.30614 59 9.39799 59 9.5C59 9.60201 59.0671 9.69386 59.1694 9.73191C61.8041 10.7123 62.6604 11.4819 63.7513 13.8481C63.7938 13.9402 63.8918 14 64 14C64.1082 14 64.2061 13.9402 64.2487 13.8481ZM64 5.86715C64.9636 7.7951 65.8945 8.63517 68.03 9.50021C65.8945 10.3651 64.9636 11.2052 64 13.1333C63.0364 11.2053 62.1055 10.3652 59.9697 9.50021C62.1054 8.63528 63.0362 7.79522 64 5.86715Z" fill="white"/>
<path opacity="0.1" d="M88.3481 52.7637C89.8753 49.0831 91.0743 47.8861 94.7628 46.3608C94.9063 46.3016 95 46.1587 95 46C95 45.8413 94.9061 45.6984 94.7628 45.6392C91.0743 44.1141 89.8755 42.9171 88.3481 39.2363C88.2887 39.0931 88.1515 39 88 39C87.8485 39 87.7115 39.0931 87.6519 39.2363C86.1247 42.9169 84.9257 44.1139 81.2372 45.6392C81.0938 45.6984 81 45.8413 81 46C81 46.1587 81.0939 46.3016 81.2372 46.3608C84.9257 47.8859 86.1245 49.0829 87.6519 52.7637C87.7113 52.9069 87.8485 53 88 53C88.1515 53 88.2885 52.9069 88.3481 52.7637ZM88 40.3489C89.349 43.3479 90.6524 44.6547 93.6419 46.0003C90.6522 47.3458 89.3491 48.6525 88 51.6517C86.651 48.6527 85.3476 47.3459 82.3576 46.0003C85.3475 44.6549 86.6507 43.3481 88 40.3489Z" fill="white"/>
<path opacity="0.1" d="M8.39788 49.73C10.1432 45.5235 11.5135 44.1555 15.729 42.4123C15.8929 42.3446 16 42.1813 16 42C16 41.8187 15.8927 41.6554 15.729 41.5877C11.5135 39.8447 10.1434 38.4767 8.39788 34.27C8.32992 34.1063 8.17317 34 8 34C7.82684 34 7.67027 34.1063 7.60213 34.27C5.85678 38.4765 4.48649 39.8445 0.271044 41.5877C0.107145 41.6554 0 41.8187 0 42C0 42.1813 0.107338 42.3446 0.271044 42.4123C4.48649 44.1553 5.85658 45.5233 7.60213 49.73C7.67008 49.8937 7.82684 50 8 50C8.17317 50 8.32973 49.8937 8.39788 49.73ZM8 35.5416C9.54168 38.9691 11.0313 40.4625 14.4479 42.0004C11.0311 43.538 9.54178 45.0315 8 48.4591C6.45832 45.0317 4.96873 43.5382 1.55158 42.0004C4.96858 40.4627 6.45792 38.9693 8 35.5416Z" fill="white"/>
<path opacity="0.1" d="M77.8 25.6H76.6C76.2687 25.6 76 25.3316 76 25C76 24.6684 76.2687 24.4 76.6 24.4H77.8C78.1313 24.4 78.4 24.6684 78.4 25C78.4 25.3316 78.1313 25.6 77.8 25.6ZM82 25C82 24.6684 81.7313 24.4 81.4 24.4H80.2C79.8687 24.4 79.6 24.6684 79.6 25C79.6 25.3316 79.8687 25.6 80.2 25.6H81.4C81.7313 25.6 82 25.3316 82 25ZM79.6 23.8V22.6C79.6 22.2684 79.3313 22 79 22C78.6687 22 78.4 22.2684 78.4 22.6V23.8C78.4 24.1316 78.6687 24.4 79 24.4C79.3313 24.4 79.6 24.1316 79.6 23.8ZM79.6 27.4V26.2C79.6 25.8684 79.3313 25.6 79 25.6C78.6687 25.6 78.4 25.8684 78.4 26.2V27.4C78.4 27.7316 78.6687 28 79 28C79.3313 28 79.6 27.7316 79.6 27.4Z" fill="white"/>
<path opacity="0.1" d="M43 2C43 0.89699 42.103 0 41 0C39.897 0 39 0.89699 39 2C39 3.10301 39.897 4 41 4C42.103 4 43 3.10301 43 2ZM41.6667 2C41.6667 2.36786 41.3676 2.66667 41 2.66667C40.6324 2.66667 40.3333 2.36786 40.3333 2C40.3333 1.63214 40.6324 1.33333 41 1.33333C41.3676 1.33333 41.6667 1.63214 41.6667 2Z" fill="white"/>
</svg>
