<svg width="28" height="25" viewBox="0 0 28 25" fill="none" xmlns="http://www.w3.org/2000/svg">
<path d="M0 0V25H5.96977V20.1053H10.0302V25H16V0H0ZM4.81346 18.0263H2.68918V15.5264H4.81346V18.0263ZM4.81346 13.4211H2.68918V10.9209H4.81346V13.4211ZM9.08906 18.0263H6.93793V15.5264L9.08906 15.5262V18.0263ZM9.08906 13.4211H6.93793V10.9209H9.08906V13.4211ZM8.01352 8.68421C6.18504 8.68421 4.70599 7.2368 4.70599 5.44742C4.70599 3.65804 6.18504 2.21062 8.01352 2.21062C9.842 2.21062 11.321 3.65804 11.321 5.44742C11.321 7.2368 9.842 8.68421 8.01352 8.68421ZM13.3379 18.0263H11.2136V15.5264H13.3379V18.0263ZM13.3379 13.4211H11.2136V10.9209H13.3379V13.4211Z" fill="#104651"/>
<path d="M17 8V25H21.1042V21.6716H23.8958V25H28V8H17ZM20.3093 20.2579H18.8488V18.5579H20.3093V20.2579ZM20.3093 17.1263H18.8488V15.4262H20.3093V17.1263ZM23.2487 20.2579H21.7698V18.5579L23.2487 18.5578V20.2579ZM23.2487 17.1263H21.7698V15.4262H23.2487V17.1263ZM22.5093 13.9053C21.2522 13.9053 20.2354 12.921 20.2354 11.7042C20.2354 10.4875 21.2522 9.50322 22.5093 9.50322C23.7664 9.50322 24.7832 10.4875 24.7832 11.7042C24.7832 12.921 23.7664 13.9053 22.5093 13.9053ZM26.1698 20.2579H24.7094V18.5579H26.1698V20.2579ZM26.1698 17.1263H24.7094V15.4262H26.1698V17.1263Z" fill="#104651"/>
</svg>
