<svg width="30" height="17" viewBox="0 0 30 17" fill="none" xmlns="http://www.w3.org/2000/svg">
<path d="M8.66231 11.3548C8.72559 10.6909 8.97849 10.0588 9.29444 9.45814C8.78864 8.92081 8.12496 8.50981 7.39778 8.35171L5.91215 12.0184L5.59597 9.36331H5.81734C5.94368 9.36331 6.03872 9.2685 6.03872 9.11041V8.41501C6.03872 8.28867 5.9439 8.16211 5.81734 8.16211H4.64787C4.52152 8.16211 4.39496 8.25692 4.39496 8.41501V9.11041C4.39496 9.23675 4.48977 9.36331 4.64787 9.36331H4.86924L4.55305 12.0184L3.06743 8.35171C1.5818 8.69942 0.443875 9.93216 0.254221 11.5126L0.00132024 15.4007C-0.0302092 16.0646 0.507116 16.6335 1.1708 16.6335H8.75698C8.53561 16.2225 8.4408 15.78 8.4408 15.3374L8.66217 11.4496L8.66231 11.3548Z" fill="#104651"/>
<path d="M8.50486 4.24231C8.50486 6.0578 7.03312 7.52977 5.21741 7.52977C3.40192 7.52977 1.93018 6.0578 1.93018 4.24231C1.93018 2.42682 3.40192 0.955078 5.21741 0.955078C7.03312 0.955078 8.50486 2.42682 8.50486 4.24231Z" fill="#104651"/>
<path d="M29.8091 11.5126C29.6195 9.93216 28.4501 8.69941 26.9644 8.35171L25.4788 12.0184L25.1626 9.36331H25.384C25.5103 9.36331 25.6054 9.2685 25.6054 9.11041V8.41501C25.6054 8.28867 25.5106 8.16211 25.384 8.16211H24.2145C24.0882 8.16211 23.9932 8.25692 23.9932 8.41501V9.11041C23.9932 9.23675 24.088 9.36331 24.2145 9.36331H24.4359L24.1197 12.0184L22.6341 8.35171C21.9071 8.54133 21.2432 8.92056 20.7374 9.45814C21.0536 10.027 21.2748 10.6593 21.3696 11.3548V11.4179L21.5909 15.3057C21.5909 15.7482 21.5276 16.2223 21.2747 16.6017H28.8293C29.4932 16.6017 30.0305 16.0329 29.9988 15.369L29.8091 11.5126Z" fill="#104651"/>
<path d="M28.102 4.24231C28.102 6.0578 26.6303 7.52977 24.8148 7.52977C22.9991 7.52977 21.5273 6.0578 21.5273 4.24231C21.5273 2.42682 22.9991 0.955078 24.8148 0.955078C26.6303 0.955078 28.102 2.42682 28.102 4.24231Z" fill="#104651"/>
<path d="M17.1963 8.35115L15.7107 12.0494L15.3945 9.3943H15.6159C15.7422 9.3943 15.8373 9.29949 15.8373 9.17293V8.44598C15.8373 8.31964 15.7425 8.22461 15.6159 8.22461H14.4464C14.3201 8.22461 14.225 8.31942 14.225 8.44598V9.17293C14.225 9.29927 14.3199 9.3943 14.4464 9.3943H14.6678L14.3516 12.0494L12.866 8.35115C11.3804 8.69886 10.2109 9.9316 10.0213 11.5121L9.7999 15.3999C9.76837 16.0638 10.3057 16.6327 10.9694 16.6327H19.0613C19.7252 16.6327 20.2625 16.0638 20.2308 15.3999L20.0094 11.5121C19.82 9.9316 18.6821 8.69885 17.1964 8.35115H17.1963Z" fill="#104651"/>
<path d="M18.3032 4.24231C18.3032 6.0578 16.8315 7.52977 15.016 7.52977C13.2005 7.52977 11.7288 6.0578 11.7288 4.24231C11.7288 2.42682 13.2005 0.955078 15.016 0.955078C16.8315 0.955078 18.3032 2.42682 18.3032 4.24231Z" fill="#104651"/>
</svg>
