<svg width="25" height="26" viewBox="0 0 25 26" fill="none" xmlns="http://www.w3.org/2000/svg">
<path d="M24.587 10.0356L22.7648 9.71875C22.5271 8.84724 22.1838 8.02856 21.7348 7.26278L22.8176 5.75736C22.9761 5.51972 22.9497 5.22922 22.7648 5.0179L20.0446 2.29775C19.8333 2.08645 19.5428 2.06011 19.3051 2.24488L17.7997 3.3277C17.034 2.87877 16.2151 2.53538 15.3438 2.29774L15.0269 0.475457C14.974 0.211288 14.7364 0.000184216 14.4722 0.000184216L10.5901 0C10.2995 0 10.0619 0.211298 10.0354 0.475272L9.71851 2.29756C8.84701 2.5352 8.02832 2.87856 7.26255 3.32752L5.73062 2.21852C5.49298 2.06009 5.20249 2.08643 4.99116 2.27139L2.29756 4.99135C2.08627 5.20265 2.05992 5.49318 2.24469 5.73081L3.32752 7.23623C2.87858 8.00201 2.53519 8.82088 2.29756 9.6922L0.475272 10.0091C0.211104 10.0619 0 10.2996 0 10.5637V14.393C0 14.6836 0.211298 14.9212 0.475272 14.9477L2.29756 15.2646C2.5352 16.1361 2.87856 16.9548 3.32752 17.7205L2.21833 19.3053C2.0599 19.543 2.08625 19.8335 2.2712 20.0448L4.99135 22.765C5.20265 22.9763 5.49318 23.0026 5.73081 22.8178L7.23623 21.735C8.00201 22.1839 8.82088 22.5273 9.6922 22.765L10.0091 24.5872C10.0619 24.8514 10.2996 25.0625 10.5637 25.0625H14.393C14.6835 25.0625 14.9212 24.8512 14.9477 24.5872L15.2646 22.765C16.1361 22.5273 16.9548 22.184 17.7205 21.735L19.226 22.8178C19.4636 22.9762 19.7541 22.9499 19.9654 22.765L22.6856 20.0448C22.8969 19.8335 22.9232 19.543 22.7385 19.3053L21.6556 17.7999C22.1046 17.0341 22.4479 16.2153 22.6856 15.344L24.5079 15.0271C24.772 14.9742 24.9831 14.7366 24.9831 14.4724V10.5902C25.0624 10.3261 24.8511 10.0884 24.5871 10.0356L24.587 10.0356ZM12.518 20.7314C8.00195 20.7314 4.30475 17.0605 4.30475 12.5181C4.30475 8.002 7.97563 4.30479 12.518 4.30479C17.0341 4.30479 20.7313 7.97568 20.7313 12.5181C20.7313 17.0341 17.0341 20.7314 12.518 20.7314Z" fill="#104651"/>
<path d="M15.2646 14.4453C14.5251 15.1584 13.5744 15.581 12.5181 15.581C11.4619 15.581 10.5111 15.1584 9.77166 14.4455C8.50406 14.9208 7.52678 16.0036 7.20996 17.3506C8.53042 18.8032 10.4319 19.701 12.5182 19.701C14.631 19.701 16.5325 18.8032 17.8265 17.3506C17.5096 16.0036 16.5325 14.9208 15.2648 14.4454L15.2646 14.4453Z" fill="#104651"/>
<path d="M9.32233 11.2499C9.32233 13.1514 10.7483 14.7095 12.5179 14.7095C14.2874 14.7095 15.7136 13.1514 15.7136 11.2499C15.7136 11.065 15.7136 10.8802 15.6872 10.6952C16.189 9.18981 15.9514 6.44334 14.9741 6.86594C14.1289 7.23566 9.45459 6.0473 9.74509 8.02799C8.6359 8.05434 9.21695 10.22 9.34903 10.6953C9.32232 10.8802 9.32232 11.065 9.32232 11.25L9.32233 11.2499ZM10.2996 11.3555C10.4052 11.3555 10.5109 11.2763 10.5109 11.1442C10.458 10.6424 10.3525 9.32189 10.8014 9.45399C11.3561 9.61242 11.9898 9.77084 12.5179 9.77084C13.0726 9.77084 13.68 9.61242 14.261 9.45399C14.7099 9.34843 14.6044 10.6424 14.5515 11.1442C14.5515 11.2497 14.6307 11.3555 14.7628 11.3555L14.9478 11.3291C14.8947 12.7817 13.8121 13.9436 12.518 13.9436C11.2239 13.9436 10.1412 12.7815 10.1147 11.3555L10.2996 11.3555Z" fill="#104651"/>
</svg>
