<svg width="22" height="21" viewBox="0 0 22 21" fill="none" xmlns="http://www.w3.org/2000/svg">
<path d="M15.8502 9.52016e-05H1.93797C1.42478 0.00279721 0.933524 0.204907 0.570742 0.562826C0.207739 0.920571 0.00273981 1.40496 2.72463e-05 1.91093V10.4637C-0.00271305 10.9751 0.201351 11.4665 0.566907 11.8289C0.93265 12.1915 1.42992 12.3954 1.94858 12.3954H3.38381L2.80763 14.5441V14.5439C2.74606 14.7736 2.7667 15.0169 2.8659 15.2333C2.9651 15.4496 3.13702 15.6258 3.35239 15.7319C3.49927 15.8019 3.66058 15.8374 3.82372 15.8351C3.95032 15.8316 4.07492 15.8035 4.19037 15.7524C4.3621 15.689 4.51374 15.582 4.63047 15.4426L7.09241 12.3437H15.8507H15.8505C16.3637 12.3464 16.8573 12.1495 17.2242 11.7956C17.591 11.4416 17.8013 10.9594 17.8097 10.4534V1.90063C17.8041 1.39282 17.5949 0.907926 17.2279 0.551786C16.8609 0.195647 16.3656 -0.00282861 15.8506 3.04662e-05L15.8502 9.52016e-05ZM13.4617 6.02214C13.3667 6.12212 13.2339 6.17868 13.095 6.17868C12.956 6.17868 12.8234 6.12211 12.7284 6.02214C12.6599 5.98449 12.6049 5.92685 12.5713 5.85696C12.5563 5.7923 12.5563 5.72528 12.5713 5.66062C12.5694 5.52371 12.6266 5.3924 12.7284 5.29909C12.9321 5.10221 13.258 5.10221 13.4617 5.29909C13.5629 5.39294 13.6205 5.52372 13.6205 5.66062C13.6205 5.7977 13.5629 5.92848 13.4617 6.02214ZM9.4283 5.16488C9.49571 5.18884 9.55655 5.22775 9.60642 5.27854C9.70123 5.37546 9.75403 5.50515 9.75312 5.64007C9.74892 5.77373 9.69703 5.9018 9.60642 6.00159C9.55655 6.05221 9.49571 6.09112 9.4283 6.11508C9.3629 6.13057 9.29475 6.13057 9.22935 6.11508C9.09032 6.11688 8.95733 6.0605 8.86269 5.96016C8.81282 5.91387 8.77355 5.85748 8.74742 5.79498C8.73262 5.73031 8.73262 5.6633 8.74742 5.59864C8.74578 5.46173 8.80278 5.33042 8.90453 5.23711C8.99058 5.18865 9.08832 5.16361 9.18734 5.16488C9.26589 5.14092 9.34993 5.14092 9.4283 5.16488ZM4.75604 5.47471C4.80519 5.33871 4.90676 5.22739 5.03885 5.16488C5.16637 5.11318 5.30941 5.11318 5.43693 5.16488C5.48022 5.17515 5.52005 5.1964 5.5522 5.22685C5.60518 5.27044 5.64519 5.32772 5.66748 5.39203C5.67716 5.45724 5.67716 5.52335 5.66748 5.58837C5.67844 5.6534 5.67844 5.71969 5.66748 5.78454C5.64519 5.84903 5.60518 5.90631 5.5522 5.9499C5.4572 6.0497 5.32439 6.10643 5.18555 6.10643C5.0467 6.10643 4.91389 6.04969 4.81889 5.9499C4.73559 5.88001 4.68626 5.77878 4.68279 5.67105C4.67383 5.64764 4.67383 5.62206 4.68279 5.59864C4.70014 5.55379 4.72499 5.51182 4.75604 5.47471ZM21.9995 7.05518V15.608C22.0109 16.1219 21.8117 16.6185 21.4469 16.986C21.0823 17.3533 20.5828 17.5603 20.0616 17.5603H18.6262L19.2024 19.7089V19.7087C19.264 19.9384 19.2433 20.1818 19.1441 20.3981C19.0449 20.6144 18.8732 20.7906 18.6577 20.8967C18.511 20.9667 18.3495 21.0022 18.1863 20.9999C17.8694 21.001 17.5688 20.8605 17.3691 20.6176L14.8968 17.5188H6.14927C5.51168 17.5217 4.91299 17.2169 4.54638 16.7028C4.90627 16.5748 5.22213 16.3492 5.4578 16.052L7.6055 13.4284H15.8606C16.6587 13.4284 17.424 13.1142 17.9865 12.5558C18.549 11.9972 18.8624 11.2405 18.8567 10.4534V5.16461H20.0509C20.5623 5.16443 21.0533 5.36276 21.4178 5.71636C21.7823 6.06997 21.9913 6.55075 21.9995 7.05492L21.9995 7.05518Z" fill="#104651"/>
</svg>
