<svg width="30" height="31" viewBox="0 0 30 31" fill="none" xmlns="http://www.w3.org/2000/svg">
<rect x="0.490234" y="0.853516" width="29.3809" height="29.3809" rx="5" fill="#939EAE"/>
<path opacity="0.7" d="M18.1066 12.0414C17.6633 12.0414 17.3382 11.6867 17.3382 11.2729L17.3383 8.43555H10.0675C9.77192 8.43555 9.50586 8.67202 9.50586 8.99714V22.0905C9.50586 22.386 9.74233 22.6521 10.0675 22.6521H20.2939C20.5894 22.6521 20.8555 22.4156 20.8555 22.0905V12.0414H18.1066ZM10.7767 9.79513C10.7767 9.61782 10.895 9.49959 11.0723 9.49959H15.5648C15.7126 9.49959 15.8603 9.61783 15.8603 9.79513V10.9182C15.8603 11.0661 15.7125 11.2138 15.5648 11.2138L11.0723 11.2139C10.895 11.2139 10.7767 11.066 10.7767 10.9183V9.79513ZM10.3629 13.135C10.3629 12.9871 10.5108 12.8394 10.6585 12.8394H19.5253C19.6731 12.8394 19.8208 12.9873 19.8208 13.135C19.8208 13.2828 19.673 13.4305 19.5253 13.4305H10.6585C10.5106 13.4305 10.3629 13.3123 10.3629 13.135ZM10.3629 14.7901C10.3629 14.6128 10.5108 14.4946 10.6585 14.4946H19.5253C19.6731 14.4946 19.8208 14.6128 19.8208 14.7901C19.8208 14.9379 19.673 15.0856 19.5253 15.0856H10.6585C10.5106 15.0856 10.3629 14.9674 10.3629 14.7901ZM15.8013 16.4748C15.8013 16.6226 15.683 16.7703 15.5057 16.7703H10.6585C10.5107 16.7703 10.363 16.6225 10.363 16.4748C10.363 16.2975 10.5108 16.1792 10.6585 16.1792H15.5057C15.683 16.1497 15.8013 16.2975 15.8013 16.4748ZM19.5549 20.7604L19.2594 21.5584L18.5203 19.3714C18.2544 19.4304 18.0179 19.4304 17.7814 19.3714L17.0425 21.5881L16.747 20.7901L16.0081 21.2335L16.8356 18.8099C16.5697 18.5143 16.4219 18.13 16.4219 17.6868C16.4219 16.7114 17.1903 15.943 18.1656 15.943C19.141 15.943 19.9094 16.7115 19.9094 17.6868C19.9094 18.1301 19.7616 18.5143 19.4956 18.8099L20.3231 21.2335L19.5549 20.7604Z" fill="white"/>
<path d="M16.4614 22.9222C16.4614 23.8198 15.7337 24.5475 14.8361 24.5475C13.9385 24.5475 13.2109 23.8198 13.2109 22.9222C13.2109 22.0246 13.9385 21.2969 14.8361 21.2969C15.7337 21.2969 16.4614 22.0246 16.4614 22.9222Z" fill="#104651"/>
<path d="M16.7645 18.4724C18.8571 17.6394 20.1775 15.5469 20.0354 13.2918C19.8728 10.6711 17.7803 8.57847 15.1595 8.41594C13.6968 8.33474 12.3154 8.82223 11.2588 9.81779C10.2228 10.7929 9.61328 12.1948 9.61328 13.6169C9.61328 14.4092 10.243 15.039 11.0354 15.039C11.8277 15.039 12.4575 14.4092 12.4575 13.6169C12.4575 12.9465 12.7216 12.3369 13.2091 11.89C13.6967 11.443 14.3265 11.2195 14.997 11.2602C16.1753 11.3414 17.1302 12.2963 17.2114 13.4746C17.2723 14.4904 16.6628 15.4453 15.708 15.8313C14.3061 16.3799 13.4122 17.6801 13.4122 19.1631C13.4122 19.9555 14.042 20.5852 14.8343 20.5852C15.6266 20.5852 16.2564 19.9555 16.2564 19.1631C16.2565 18.8585 16.4596 18.5943 16.7644 18.4724L16.7645 18.4724Z" fill="#104651"/>
</svg>
