<svg width="30" height="30" viewBox="0 0 30 30" fill="none" xmlns="http://www.w3.org/2000/svg">
<path d="M8.30138 22.3283C8.60716 22.6341 9.12681 22.6341 9.46308 22.3283L21.6298 10.1616C21.9356 9.85583 21.9356 9.33618 21.6298 8.99992L20.0096 7.37973C19.7038 7.07394 19.1842 7.07394 18.8479 7.37973L6.71176 19.5159C6.40598 19.8217 6.40598 20.3413 6.71176 20.6776L8.30138 22.3283Z" fill="#104651"/>
<path d="M20.0694 18.6305L25.0829 13.6171C25.3886 13.3113 25.3886 12.7917 25.0829 12.4554L23.6461 11.0187C23.3403 10.7129 22.8206 10.7129 22.4844 11.0187L10.1954 23.3076C9.92032 23.5827 9.88961 23.9802 10.0732 24.286L10.3279 24.7283C10.5203 25.0625 10.455 25.5155 10.0732 25.5699L8.47114 25.841C7.0925 26.0743 5.79242 25.225 4.80372 24.2363C3.815 23.2475 2.9657 21.9474 3.19902 20.5688L3.47012 18.9668C3.5245 18.585 3.97746 18.5196 4.31167 18.7121L4.75399 18.9668C5.09027 19.1501 5.48772 19.0889 5.73233 18.8446L18.0213 6.55559C18.3271 6.24981 18.3271 5.73016 18.0213 5.39389L16.5845 3.95712C16.2788 3.65134 15.7591 3.65134 15.4228 3.95712L2.40019 16.9798C1.94173 17.4382 1.63595 18.0191 1.54424 18.6612L0.0157555 27.8626C-0.0448427 28.1956 0.0745685 28.5285 0.284558 28.7427C0.288562 28.7468 0.290833 28.7522 0.290833 28.758C0.290833 28.7699 0.300487 28.7795 0.312395 28.7795C0.318113 28.7795 0.323599 28.7818 0.327682 28.7858C0.51034 28.965 0.752104 29.0546 0.993858 29.0546C1.11836 29.0546 1.23968 29.0137 1.3625 28.9933L10.3787 27.4956C11.0208 27.4039 11.6014 27.0981 12.0601 26.6397L20.0694 18.6305Z" fill="#104651"/>
<path d="M28.9337 8.60258C27.3747 4.75087 24.287 1.66328 20.4353 0.10423C19.9461 -0.109861 19.3653 0.0125375 18.968 0.410013L17.409 1.96901C17.1032 2.27479 17.1032 2.79444 17.409 3.13071L25.9074 11.6291C26.2132 11.9348 26.7328 11.9348 27.0691 11.6291L28.6281 10.0701C28.9948 9.70308 29.1475 9.12226 28.9337 8.60258Z" fill="#104651"/>
</svg>
