<svg width="23" height="22" viewBox="0 0 23 22" fill="none" xmlns="http://www.w3.org/2000/svg">
<path d="M11.5 0C7.8707 0 4.92857 2.95487 4.92857 6.6H0V22H9.03571V14.3H13.9643V22H23V6.6H18.0714C18.0714 2.95492 15.1293 0 11.5 0ZM10.4049 1.375H12.5954V3.29995H14.512V5.5H12.5954V7.42495H10.4049V5.5H8.48824V3.29995H10.4049V1.375ZM2.19057 8.8H7.11915V12.0999H2.19057V8.8ZM9.03581 8.8H13.9644V12.0999H9.03581V8.8ZM15.881 8.8H20.8096V12.0999H15.881V8.8ZM2.19057 14.3H7.11915V17.5999H2.19057V14.3ZM15.881 14.3H20.8096V17.5999H15.881V14.3Z" fill="#104651"/>
</svg>
