<svg width="24" height="25" viewBox="0 0 24 25" fill="none" xmlns="http://www.w3.org/2000/svg">
<path fill-rule="evenodd" clip-rule="evenodd" d="M0.424969 12.5764C0.424969 6.12532 5.71308 0.876953 12.213 0.876953C18.7124 0.876953 24 6.12532 24 12.5764C24 19.0268 18.7124 24.2746 12.2131 24.2746C10.2638 24.2746 8.33773 23.7939 6.63357 22.8834L0.406034 24.8623C0.375021 24.8722 0.343229 24.877 0.31167 24.877C0.229307 24.877 0.148657 24.8442 0.0892028 24.7835C0.00683905 24.6997 -0.0212129 24.5766 0.0165014 24.4652L2.04115 18.4929C0.983359 16.7054 0.424969 14.6629 0.424969 12.5764ZM17.7001 14.6389C17.7337 14.6554 17.7542 14.6655 17.7588 14.6677L17.7589 14.6677C17.988 14.7777 18.169 14.8646 18.274 15.0372C18.4273 15.2912 18.3666 15.9909 18.1361 16.6314C17.8435 17.4445 16.5571 18.111 15.9718 18.1629L15.8859 18.1711C15.7506 18.1844 15.5971 18.1995 15.4054 18.1995H15.4054C14.9492 18.1995 14.1468 18.1213 12.4524 17.4444C10.6924 16.7413 8.95621 15.234 7.56351 13.2001C7.55946 13.1942 7.55562 13.1885 7.552 13.1832C7.53406 13.157 7.52132 13.1383 7.5138 13.1282C7.15013 12.6489 6.30312 11.3887 6.30312 10.054C6.30312 8.57096 7.01299 7.72769 7.4326 7.46314C7.82829 7.21371 8.72323 7.09589 8.88756 7.08896C8.98503 7.08485 8.99532 7.08371 9.00564 7.08339C9.00961 7.08327 9.01358 7.08327 9.02252 7.08327C9.36936 7.08327 9.61894 7.29374 9.80782 7.74576C9.82668 7.79073 9.88358 7.92766 9.95975 8.11094C10.2009 8.69116 10.6351 9.73597 10.6665 9.79886C10.7169 9.89774 10.8729 10.204 10.6903 10.5669L10.6511 10.6456L10.6509 10.6461C10.5762 10.7975 10.5116 10.9283 10.3668 11.0968C10.3203 11.1506 10.2729 11.2076 10.2256 11.2646L10.2253 11.2649C10.1255 11.3851 10.0224 11.5092 9.9272 11.6034C9.89463 11.636 9.83151 11.6993 9.82466 11.7245C9.82468 11.7245 9.82471 11.7247 9.82477 11.7251C9.82536 11.7289 9.82875 11.7506 9.85395 11.7936C10.0493 12.1242 11.474 14.0848 13.3509 14.9001C13.4328 14.9357 13.7036 15.0472 13.7193 15.0472C13.7367 15.0472 13.7659 15.0181 13.7872 14.9937C13.9507 14.8089 14.4798 14.1905 14.6546 13.9307C14.8092 13.6994 15.0076 13.5817 15.2439 13.5817C15.3885 13.5817 15.5245 13.6262 15.6514 13.6717C15.9322 13.7728 17.3864 14.4853 17.7001 14.6389Z" fill="#587D85"/>
</svg>
