<svg width="19" height="20" viewBox="0 0 19 20" fill="none" xmlns="http://www.w3.org/2000/svg">
<path d="M18 14.25H17.328C17.241 13.864 17.087 13.504 16.881 13.18L17.357 12.703C17.65 12.41 17.65 11.935 17.357 11.642C17.064 11.349 16.589 11.349 16.296 11.642L15.82 12.119C15.495 11.913 15.136 11.759 14.75 11.672V11C14.75 10.586 14.414 10.25 14 10.25C13.586 10.25 13.25 10.586 13.25 11V11.672C12.864 11.759 12.505 11.913 12.18 12.119L11.704 11.642C11.411 11.349 10.936 11.349 10.643 11.642C10.35 11.935 10.35 12.41 10.643 12.703L11.119 13.18C10.913 13.505 10.759 13.864 10.672 14.25H10C9.586 14.25 9.25 14.586 9.25 15C9.25 15.414 9.586 15.75 10 15.75H10.672C10.759 16.136 10.913 16.496 11.119 16.82L10.643 17.297C10.35 17.59 10.35 18.065 10.643 18.358C10.789 18.504 10.981 18.578 11.173 18.578C11.365 18.578 11.557 18.505 11.703 18.358L12.179 17.881C12.504 18.087 12.863 18.241 13.249 18.328V19C13.249 19.414 13.585 19.75 13.999 19.75C14.413 19.75 14.749 19.414 14.749 19V18.328C15.135 18.241 15.494 18.087 15.819 17.881L16.295 18.358C16.441 18.504 16.633 18.578 16.825 18.578C17.017 18.578 17.209 18.505 17.355 18.358C17.648 18.065 17.648 17.59 17.355 17.297L16.879 16.82C17.085 16.495 17.239 16.136 17.326 15.75H17.998C18.412 15.75 18.748 15.414 18.748 15C18.748 14.586 18.412 14.25 17.998 14.25H18ZM15.37 16.336C15.364 16.342 15.356 16.343 15.35 16.349C15.344 16.355 15.342 16.363 15.337 16.369C14.991 16.706 14.521 16.916 14.001 16.916C13.481 16.916 13.01 16.706 12.665 16.369C12.659 16.363 12.657 16.355 12.652 16.349C12.647 16.343 12.638 16.341 12.632 16.336C12.295 15.99 12.085 15.519 12.085 15C12.085 14.481 12.295 14.01 12.632 13.664C12.638 13.658 12.646 13.657 12.652 13.651C12.658 13.645 12.66 13.637 12.665 13.631C13.011 13.294 13.481 13.084 14.001 13.084C14.521 13.084 14.992 13.294 15.337 13.631C15.343 13.637 15.345 13.645 15.35 13.651C15.355 13.657 15.364 13.659 15.37 13.664C15.707 14.01 15.917 14.48 15.917 15C15.917 15.52 15.707 15.991 15.37 16.336ZM4.25 5C4.25 2.381 6.381 0.25 9 0.25C11.619 0.25 13.75 2.381 13.75 5C13.75 7.619 11.619 9.75 9 9.75C6.381 9.75 4.25 7.619 4.25 5ZM9.58 19.42C9.71 19.55 9.85 19.66 10.01 19.75H3C1.48 19.75 0.25 18.52 0.25 17C0.25 13.83 2.83 11.25 6 11.25H9.12C8.88 11.79 8.86 12.4 9.06 12.95C8.29 13.31 7.75 14.09 7.75 15C7.75 15.91 8.29 16.69 9.06 17.04C8.97 17.29 8.92 17.56 8.92 17.83C8.92 18.43 9.16 18.99 9.58 19.42Z" fill="black"/>
</svg>
