<svg width="12" height="18" viewBox="0 0 12 18" fill="none" xmlns="http://www.w3.org/2000/svg">
<path d="M7.85126 16.2847C7.85126 17.2318 7.08344 17.9996 6.13637 17.9996C5.1893 17.9996 4.42163 17.2318 4.42163 16.2847C4.42163 15.3376 5.1893 14.5698 6.13637 14.5698C7.08344 14.5698 7.85126 15.3376 7.85126 16.2847Z" fill="#104651"/>
<path d="M8.17276 11.5906C10.3806 10.7117 11.7739 8.50378 11.6239 6.12446C11.4524 3.35934 9.24454 1.15139 6.47934 0.979902C4.93597 0.894224 3.47842 1.40858 2.36369 2.459C1.27051 3.48787 0.627441 4.96697 0.627441 6.46747C0.627441 7.30346 1.29191 7.96793 2.1279 7.96793C2.96389 7.96793 3.62836 7.30346 3.62836 6.46747C3.62836 5.76009 3.90707 5.11699 4.42144 4.64536C4.93593 4.17378 5.60044 3.93799 6.30782 3.9809C7.55109 4.06657 8.5586 5.07408 8.64427 6.31734C8.70856 7.38913 8.06546 8.3966 7.05799 8.80392C5.57889 9.38272 4.63572 10.7546 4.63572 12.3194C4.63572 13.1554 5.30019 13.8198 6.13618 13.8198C6.97217 13.8198 7.63664 13.1554 7.63664 12.3194C7.63679 11.9979 7.85105 11.7192 8.17268 11.5906L8.17276 11.5906Z" fill="#104651"/>
</svg>
