<svg width="28" height="28" viewBox="0 0 28 28" fill="none" xmlns="http://www.w3.org/2000/svg">
<path d="M6.31784 22.4215C6.31784 23.0523 5.8065 23.5637 5.17564 23.5637C4.54479 23.5637 4.03345 23.0523 4.03345 22.4215C4.03345 21.7908 4.54479 21.2793 5.17564 21.2793C5.8065 21.2793 6.31784 21.7908 6.31784 22.4215Z" fill="#104651"/>
<path d="M5.17603 24.7056C3.84946 24.7056 2.66179 25.3119 1.87549 26.262C3.74133 27.9955 6.61292 27.9933 8.47646 26.262C7.69016 25.312 6.50249 24.7056 5.17592 24.7056H5.17603Z" fill="#104651"/>
<path d="M23.4511 22.4215C23.4511 23.0523 22.9398 23.5637 22.3089 23.5637C21.6781 23.5637 21.1667 23.0523 21.1667 22.4215C21.1667 21.7908 21.6781 21.2793 22.3089 21.2793C22.9398 21.2793 23.4511 21.7908 23.4511 22.4215Z" fill="#104651"/>
<path d="M22.3088 24.7056C20.9823 24.7056 19.7946 25.3119 19.0083 26.262C19.8752 27.0673 21.0351 27.5611 22.3088 27.5611C23.5826 27.5611 24.7425 27.0673 25.6094 26.262C24.8231 25.312 23.6354 24.7056 22.3088 24.7056Z" fill="#104651"/>
<path d="M22.8799 17.8874V16.1394C22.8799 15.8241 22.6242 15.5683 22.3088 15.5683L14.3137 15.5681V13.8548H15.1703C15.4857 13.8548 15.7415 13.599 15.7415 13.2837V12.3524C16.3327 12.1309 16.8871 11.8104 17.376 11.4074L18.1838 11.8736C18.4571 12.0315 18.8063 11.9377 18.9639 11.6646L20.3917 9.19175C20.5493 8.91864 20.4557 8.56925 20.1826 8.41161L19.3755 7.94576C19.4275 7.63431 19.4536 7.31835 19.4536 7.00161C19.4536 6.68488 19.4273 6.36893 19.3755 6.05747L20.1826 5.59161C20.4557 5.43395 20.5493 5.08456 20.3917 4.81148L18.9639 2.33864C18.8062 2.06553 18.457 1.97192 18.1838 2.12958L17.376 2.59584C16.8871 2.19302 16.3328 1.87241 15.7415 1.65086V0.719561C15.7415 0.404232 15.4857 0.148438 15.1703 0.148438H12.3148C11.9995 0.148438 11.7437 0.404206 11.7437 0.719561V1.65086C11.1524 1.87237 10.5981 2.1928 10.1091 2.59584L9.30142 2.12958C9.02811 1.97192 8.67913 2.06553 8.52128 2.33864L7.09353 4.81148C6.93586 5.08458 7.02948 5.43398 7.30259 5.59161L8.10946 6.05767C8.0085 6.66383 8.00218 7.30247 8.10946 7.94575L7.30259 8.41181C7.02948 8.56947 6.93586 8.91886 7.09353 9.19195L8.52128 11.6648C8.67895 11.9379 9.02833 12.0315 9.30142 11.8738L10.1091 11.4076C10.598 11.8106 11.1524 12.131 11.7437 12.3526V13.2839C11.7437 13.5992 11.9995 13.855 12.3148 13.855H13.1715V15.5683L5.17636 15.568C4.86103 15.568 4.60524 15.8238 4.60524 16.1392V17.8872C2.19684 18.1709 0.322021 20.2233 0.322021 22.7068C0.322021 23.6948 0.6194 24.6143 1.12827 25.3818C1.73913 24.6973 2.51968 24.1674 3.4043 23.8608C3.08428 23.4678 2.89195 22.9667 2.89195 22.4213C2.89195 21.1616 3.91666 20.1369 5.17634 20.1369C6.43601 20.1369 7.46073 21.1616 7.46073 22.4213C7.46073 22.9667 7.26839 23.4676 6.94837 23.8608C7.83294 24.1674 8.61376 24.6973 9.22441 25.3818C9.73329 24.6143 10.0307 23.6948 10.0307 22.7068C10.0307 20.2234 8.15583 18.1709 5.74743 17.8872V16.7103H21.7382V17.8872C19.3298 18.1709 17.4549 20.2233 17.4549 22.7068C17.4549 23.6948 17.7523 24.6143 18.2612 25.3818C18.872 24.6973 19.6526 24.1674 20.5372 23.8608C20.2172 23.4676 20.0249 22.9664 20.0249 22.4213C20.0249 21.1616 21.0496 20.1369 22.3093 20.1369C23.5689 20.1369 24.5936 21.1616 24.5936 22.4213C24.5936 22.9667 24.4013 23.4676 24.0813 23.8608C24.9659 24.1674 25.7467 24.6973 26.3573 25.3818C26.8662 24.6143 27.1636 23.6948 27.1636 22.7068C27.1636 20.2236 25.2888 18.1711 22.8804 17.8874L22.8799 17.8874ZM10.8868 7.00166C10.8868 5.42708 12.1676 4.14615 13.7423 4.14615C15.3169 4.14615 16.5978 5.42703 16.5978 7.00166C16.5978 8.5763 15.3169 9.85718 13.7423 9.85718C12.1676 9.85718 10.8868 8.5763 10.8868 7.00166Z" fill="#104651"/>
</svg>
