<svg width="23" height="24" viewBox="0 0 23 24" fill="none" xmlns="http://www.w3.org/2000/svg">
<g id="Group">
<g id="Group_2">
<path id="Vector" d="M13.0359 22.3434L12.9675 22.2692C12.9247 22.2226 12.881 22.177 12.841 22.1294C12.7992 22.0781 12.7593 22.0249 12.7203 21.9707L12.5995 21.8109C12.5596 21.7587 12.5187 21.7064 12.4807 21.6493C12.4446 21.5961 12.4113 21.5409 12.3295 21.405L12.2734 21.3175C12.2363 21.2585 12.1993 21.1996 12.165 21.1378C12.1384 21.0884 12.1137 21.037 12.089 20.9847L12.0424 20.8868L11.9996 20.8003C11.9654 20.7318 11.9311 20.6634 11.9017 20.5959C11.8808 20.5455 11.8617 20.4932 11.8437 20.4409L11.8056 20.3382L11.7714 20.2479C11.7429 20.1737 11.7134 20.1005 11.6906 20.0254C11.6725 19.9674 11.6583 19.9075 11.6431 19.8476L11.586 19.628C11.568 19.5633 11.5499 19.4977 11.5356 19.4312C11.5176 19.3456 11.5062 19.2572 11.4947 19.1697L11.4415 18.8151C11.4206 18.6069 11.4092 18.3948 11.4092 18.18C11.4092 17.1408 11.6725 16.113 12.1717 15.2069C12.2896 14.993 12.2268 14.7258 12.0262 14.587C11.8798 14.4862 11.7743 14.3893 11.6944 14.2828C11.2228 13.6534 11.3512 12.7578 11.9796 12.2852L13.8812 10.8591C14.1588 10.6509 14.5058 10.5539 14.8624 10.5862C15.0801 10.6033 15.2845 10.4721 15.3549 10.263C15.5754 9.59837 15.6876 9.06309 15.6876 8.67232C15.6876 8.63334 15.6829 8.59436 15.6734 8.55728C15.6211 8.34906 15.4756 8.04387 15.2122 7.86512V5.34465C15.2122 3.81296 14.7445 3.18451 14.252 2.82036C14.1578 2.08257 13.3678 0.59082 10.4584 0.59082C7.51294 0.59082 5.70459 3.35945 5.70459 5.34465V7.86512C5.44123 8.04387 5.29576 8.34906 5.24347 8.55728C5.23396 8.59436 5.22921 8.63334 5.22921 8.67232C5.22921 9.4548 5.68652 10.6204 5.73882 10.7507C5.79586 10.8924 5.87953 10.9865 6.02785 11.0236C6.08014 11.0492 6.17997 11.188 6.17997 11.5246C6.17997 12.4278 6.85787 13.4319 7.5852 14.0993C7.48537 14.722 7.0214 16.364 6.02975 16.7785L1.81026 18.1847C0.651274 18.5707 0.262411 19.5424 0.0142615 20.5341C0.00475382 20.5721 0 20.6111 0 20.6501V22.9338C0 23.1962 0.212971 23.4092 0.475382 23.4092H12.9352C13.1282 23.4092 13.2898 23.2789 13.363 23.1002C13.4362 22.9214 13.382 22.7037 13.2442 22.5678C13.1928 22.5183 13.1453 22.4641 13.0359 22.3434Z" fill="#104651"/>
<path id="Vector_2" d="M22.0577 13.8064C22.1432 13.8701 22.2431 13.9015 22.3419 13.9015C22.4865 13.9015 22.6291 13.8359 22.7222 13.7114C22.8801 13.5012 22.8373 13.2036 22.6272 13.0458L20.7256 11.6197C20.5165 11.4618 20.2179 11.5046 20.0601 11.7147C19.9023 11.9249 19.9451 12.2225 20.1552 12.3803L22.0577 13.8064Z" fill="#104651"/>
<path id="Vector_3" d="M14.4512 11.6197L12.5497 13.0458C12.3396 13.2036 12.2968 13.5012 12.4546 13.7114C12.5478 13.8359 12.6904 13.9015 12.8349 13.9015C12.9338 13.9015 13.0336 13.8701 13.1192 13.8064L15.0207 12.3803C15.2309 12.2225 15.2737 11.9249 15.1158 11.7147C14.9589 11.5046 14.6614 11.4618 14.4512 11.6197Z" fill="#104651"/>
<path id="Vector_4" d="M17.5886 12.9512C14.7049 12.9512 12.3594 15.2967 12.3594 18.1804C12.3594 21.064 14.7049 23.4096 17.5886 23.4096C20.4723 23.4096 22.8178 21.064 22.8178 18.1804C22.8178 15.2967 20.4723 12.9512 17.5886 12.9512ZM19.8257 20.4185C19.7335 20.5107 19.6118 20.5573 19.4901 20.5573C19.3684 20.5573 19.2467 20.5107 19.1535 20.4185L17.252 18.517C17.1636 18.4276 17.1132 18.3068 17.1132 18.1804V15.3281C17.1132 15.0657 17.3262 14.8527 17.5886 14.8527C17.851 14.8527 18.064 15.0657 18.064 15.3281V17.9836L19.8267 19.7463C20.0121 19.9317 20.0121 20.2321 19.8257 20.4185Z" fill="#104651"/>
</g>
</g>
</svg>
