<svg width="315" height="315" viewBox="0 0 315 315" fill="none" xmlns="http://www.w3.org/2000/svg">
<path d="M23.2668 0.533203H252.92C258.863 0.533203 264.561 2.89774 268.759 7.09574L307.904 46.2411C312.102 50.4389 314.467 56.137 314.467 62.0798V291.733C314.467 304.103 304.435 314.134 292.065 314.134H23.2653C10.8956 314.134 0.864014 304.103 0.864014 291.733V22.9331C0.864014 10.5634 10.8952 0.531738 23.2653 0.531738L23.2668 0.533203ZM68.0695 22.9346H30.7361C26.6111 22.9346 23.2673 26.2783 23.2673 30.4033V284.27C23.2673 288.395 26.6111 291.739 30.7361 291.739H284.603C288.728 291.739 292.072 288.395 292.072 284.27V65.1767C292.072 63.1975 291.285 61.2964 289.884 59.8955L255.113 25.1248C253.712 23.7238 251.811 22.9373 249.832 22.9373H246.363C242.744 22.9373 239.806 25.8748 239.806 29.4999V82.6719C239.806 95.0416 229.775 105.073 217.405 105.073H97.9355C85.5658 105.073 75.5342 95.042 75.5342 82.6719V30.4065C75.5342 26.2815 72.1956 22.9377 68.0705 22.9377L68.0695 22.9346ZM105.403 82.6692H209.933C214.059 82.6692 217.402 79.3255 217.402 75.2004V30.4031C217.402 26.278 214.059 22.9343 209.933 22.9343H105.403C101.278 22.9343 97.934 26.278 97.934 30.4031V75.2004C97.934 79.3255 101.278 82.6692 105.403 82.6692Z" fill="white"/>
</svg>
