<svg width="26" height="28" viewBox="0 0 26 28" fill="none" xmlns="http://www.w3.org/2000/svg">
<path fill-rule="evenodd" clip-rule="evenodd" d="M4.61746 19.3619L7.00776 23.585L7.2965 23.4184C7.40068 23.3587 7.51908 23.3465 7.62674 23.3752L14.0022 25.0821C14.939 25.3331 15.4726 25.1683 16.3005 24.7464L25.0591 19.3532C25.5004 19.0813 25.557 18.3372 25.2956 17.9158C24.7166 16.9832 23.107 17.7644 22.4418 18.1518L17.5986 20.9727C16.506 21.6091 15.6897 21.4895 14.5809 21.3093L11.3017 20.4466C11.0681 20.3842 10.9294 20.1442 10.9918 19.9106C11.0542 19.677 11.2942 19.5383 11.5278 19.6007C12.5748 19.8813 13.6128 20.2185 14.6743 20.4379C15.2094 20.5035 15.6505 20.3357 15.7991 19.7815C15.9337 19.2792 15.6168 18.8061 15.1427 18.6416C13.6877 18.3752 12.2759 17.8648 11.1659 17.4634C9.55941 16.8828 9.13167 16.7481 7.54781 17.6651L4.61746 19.3619ZM16.445 5.2824C14.394 5.2824 12.7315 6.94519 12.7315 8.99597C12.7315 10.0232 13.1488 10.953 13.8229 11.6254C14.0103 10.3451 15.1128 9.3619 16.4453 9.3619C17.7779 9.3619 18.88 10.3451 19.0678 11.6254C19.7419 10.953 20.1592 10.0232 20.1592 8.99597C20.1586 6.94519 18.4961 5.2824 16.445 5.2824ZM16.445 8.81402C15.7048 8.81402 15.1049 8.2139 15.1049 7.47392C15.1049 6.73364 15.7051 6.13382 16.445 6.13382C17.185 6.13382 17.7851 6.73393 17.7851 7.47392C17.7851 8.21419 17.1853 8.81402 16.445 8.81402ZM7.08205 25.4971L3.23964 18.7075C3.05392 18.3793 2.63314 18.2626 2.30493 18.4483L0.997916 19.188C0.66971 19.3738 0.553054 19.7945 0.738775 20.1227L4.58119 26.9123C4.76691 27.2405 5.18769 27.3572 5.51589 27.1715L6.82291 26.4318C7.15141 26.2461 7.26777 25.8253 7.08205 25.4971ZM2.49356 20.6489C2.23848 20.686 2.00168 20.5096 1.96425 20.2545C1.92711 19.9994 2.10354 19.7626 2.35862 19.7252C2.6137 19.688 2.85049 19.8645 2.88793 20.1193C2.92507 20.3746 2.74835 20.6114 2.49356 20.6489ZM23.154 7.39499C22.9851 6.68489 22.7036 6.00642 22.3208 5.38484L22.9006 4.07956L21.3615 2.54068L20.0556 3.12077C19.4343 2.73801 18.7561 2.45652 18.046 2.28763L17.533 0.955078H15.3565L14.8435 2.28763C14.1334 2.45652 13.4555 2.73801 12.8339 3.12077L11.5281 2.54068L9.98918 4.07985L10.569 5.38542C10.1862 6.00672 9.90473 6.68518 9.73584 7.39499L8.40329 7.90775V10.0842L9.73555 10.5969C9.90444 11.307 10.1859 11.9855 10.5687 12.6071L9.98889 13.9124L11.5281 15.4513L12.8339 14.8712C13.4555 15.2539 14.1334 15.5354 14.8435 15.7043L15.3563 17.0369H17.5327L18.0454 15.7046C18.7555 15.5357 19.434 15.2542 20.0556 14.8715L21.3609 15.4513L22.8998 13.9121L22.3197 12.6062C22.7024 11.9849 22.9839 11.3068 23.1528 10.5967L24.4854 10.0839V7.90746L23.154 7.39499ZM16.445 13.5865C13.9102 13.5865 11.8545 11.5308 11.8545 8.99597C11.8545 6.46115 13.9099 4.40544 16.445 4.40544C18.9802 4.40544 21.0356 6.46086 21.0356 8.99597C21.0356 11.5311 18.9799 13.5865 16.445 13.5865Z" fill="#104651"/>
</svg>
