<svg width="12" height="11" viewBox="0 0 12 11" fill="none" xmlns="http://www.w3.org/2000/svg">
<path d="M11.8079 4.68127L8.80839 6.84933C8.77538 6.87329 8.76144 6.91442 8.77341 6.95242L9.87197 10.398C9.90327 10.4903 9.90284 10.5898 9.87086 10.6819C9.83878 10.7739 9.77669 10.8536 9.69381 10.9092C9.6129 10.9673 9.51479 10.9991 9.41369 11C9.3126 11.0008 9.2139 10.9707 9.13196 10.9139L6.05626 8.84679C6.02247 8.82398 5.97731 8.82398 5.94353 8.84679L2.86804 10.9139C2.78611 10.9707 2.6874 11.0008 2.58631 11C2.48521 10.9991 2.38711 10.9673 2.3062 10.9092C2.22332 10.8536 2.16122 10.7739 2.12915 10.6819C2.09716 10.5898 2.09673 10.4903 2.12804 10.398L3.22633 6.95242C3.23839 6.91441 3.22436 6.87321 3.19135 6.84933L0.192499 4.68127C0.084645 4.60322 0.0157083 4.48535 0.00236496 4.3564C-0.0109779 4.22738 0.0325571 4.09883 0.122365 4.00199C0.212173 3.90514 0.340125 3.84875 0.475172 3.84645L4.22943 3.78448C4.27074 3.78366 4.30709 3.7583 4.32069 3.72079L5.54267 0.313009C5.58672 0.190465 5.68209 0.0910768 5.80586 0.0390293C5.92962 -0.0130098 6.0704 -0.0130098 6.19416 0.0390293C6.31792 0.0910684 6.41329 0.190465 6.45735 0.313009L7.6794 3.72016H7.67931C7.69291 3.75767 7.72926 3.78303 7.77057 3.78385L11.5248 3.84582C11.6599 3.84812 11.7878 3.90451 11.8776 4.00136C11.9674 4.09821 12.011 4.22676 11.9976 4.35577C11.9843 4.48472 11.9154 4.60258 11.8075 4.68064L11.8079 4.68127Z" fill="#88C93F"/>
</svg>
