<svg width="23" height="23" viewBox="0 0 23 23" fill="none" xmlns="http://www.w3.org/2000/svg">
<path d="M17.5408 12.5488C14.7024 12.5488 12.3945 14.8566 12.3945 17.6951C12.3945 20.5334 14.7023 22.8413 17.5408 22.8413C20.3792 22.8413 22.687 20.5335 22.687 17.6951C22.687 14.8567 20.3792 12.5488 17.5408 12.5488ZM18.4567 20.4098C18.4239 20.8932 18.0751 21.3656 17.5082 21.3656C17.0393 21.3656 16.6505 21.035 16.5741 20.5878C16.3851 20.5588 16.2034 20.5151 16.0363 20.4642C15.771 20.3806 15.5928 20.1916 15.5383 19.9263C15.4692 19.6028 15.5964 19.2249 15.8437 19.0031C16.0472 18.825 16.298 18.7742 16.5524 18.8613C16.7886 18.9413 17.4355 19.0758 17.65 18.9231C17.6899 18.8941 17.7081 18.8577 17.7081 18.8032C17.7081 18.6142 17.2793 18.4761 17.0211 18.3961C16.9194 18.3634 16.8321 18.3343 16.774 18.3089C15.92 17.9308 15.4874 17.3603 15.4874 16.6224C15.4874 15.8847 15.8871 15.3105 16.5631 14.9943C16.5921 14.5072 16.9447 14.0276 17.5116 14.0276C17.9804 14.0276 18.3692 14.3583 18.4492 14.809C18.5436 14.8236 18.6382 14.8453 18.7291 14.8708C19.0344 14.9508 19.2487 15.2088 19.2924 15.5396C19.3396 15.8995 19.1798 16.2375 18.889 16.4045C18.6237 16.5535 18.3585 16.5027 18.1003 16.4482C17.9731 16.4227 17.8532 16.3972 17.7369 16.3972C17.5007 16.3972 17.3735 16.4699 17.3735 16.5209C17.3735 16.6809 17.8823 16.8371 18.0713 16.8952C18.1404 16.9169 18.1985 16.9351 18.2384 16.9497C19.1652 17.3459 19.594 17.9093 19.594 18.7232C19.594 19.4683 19.1725 20.097 18.4565 20.4132L18.4567 20.4098Z" fill="#104651"/>
<path d="M17.7475 3.63435V4.24487H14.1932C13.7861 4.24487 13.459 3.91778 13.459 3.51069V0H14.124C14.3785 0 14.622 0.101728 14.8037 0.279878L17.4714 2.95467C17.6495 3.13282 17.7513 3.37617 17.7513 3.63058L17.7475 3.63435Z" fill="#104651"/>
<path d="M10.5653 18.4339H9.64208C9.00252 18.4339 8.48266 17.9142 8.48266 17.2745C8.48266 16.6349 9.00235 16.1151 9.64208 16.1151H10.7107C10.8343 15.5808 11.0196 15.0757 11.2558 14.5959H9.64208C9.00252 14.5959 8.48266 14.0763 8.48266 13.4365C8.48266 12.797 9.00235 12.2771 9.64208 12.2771H13.0947C14.3049 11.2812 15.8532 10.6853 17.5394 10.6853C17.6085 10.6853 17.6775 10.6926 17.7466 10.6962V5.96778H13.0872C12.3313 5.96778 11.7207 5.35352 11.7207 4.60135L11.7209 0.0146022L11.7063 0L1.76978 0.000162248C0.792246 0.000162248 0 0.792408 0 1.77368V19.5637C0 20.5414 0.792246 21.3372 1.77352 21.3372H11.5572C11.0302 20.4723 10.6814 19.491 10.5686 18.4371L10.5653 18.4339ZM9.64208 8.43591H13.3418C13.9814 8.43591 14.5012 8.9556 14.5012 9.59533C14.5012 10.2349 13.9815 10.7547 13.3418 10.7547H9.64208C9.00252 10.7547 8.48266 10.2351 8.48266 9.59533C8.48266 8.95577 9.00235 8.43591 9.64208 8.43591ZM5.73871 18.4339H4.40131C3.76175 18.4339 3.24189 17.9142 3.24189 17.2745C3.24189 16.6349 3.76158 16.1151 4.40131 16.1151H5.73871C6.37827 16.1151 6.89813 16.6347 6.89813 17.2745C6.89813 17.914 6.37844 18.4339 5.73871 18.4339ZM5.73871 14.5961H4.40131C3.76175 14.5961 3.24189 14.0764 3.24189 13.4367C3.24189 12.7971 3.76158 12.2773 4.40131 12.2773H5.73871C6.37827 12.2773 6.89813 12.797 6.89813 13.4367C6.89813 14.0763 6.37844 14.5961 5.73871 14.5961ZM5.73871 10.7583H4.40131C3.76175 10.7583 3.24189 10.2386 3.24189 9.5989C3.24189 8.95934 3.76158 8.43948 4.40131 8.43948H5.73871C6.37827 8.43948 6.89813 8.95917 6.89813 9.5989C6.89813 10.2385 6.37844 10.7583 5.73871 10.7583Z" fill="#104651"/>
</svg>
