<svg width="28" height="35" viewBox="0 0 28 35" fill="none" xmlns="http://www.w3.org/2000/svg">
<path d="M24.9782 11.5534H2.11556C2.10648 11.7489 2.09018 11.9445 2.09018 12.1238V17.6688C2.09018 21.6982 2.0818 25.7299 2.09414 29.7596V29.7594C2.08902 30.8059 2.43359 31.824 3.0734 32.6521C3.7134 33.4803 4.61142 34.0707 5.6253 34.3298C5.87488 34.395 6.12912 34.4446 6.38153 34.5H20.7205C20.7896 34.4723 20.8609 34.4506 20.9338 34.4348C22.059 34.2851 23.092 33.7324 23.8412 32.8793C24.5901 32.0263 25.0048 30.9306 25.0081 29.7952C25.0176 23.8874 25.0176 17.975 25.0081 12.0589C25.0106 11.8987 24.9897 11.7488 24.978 11.5532L24.9782 11.5534ZM8.34453 21.2446V28.9958C8.34988 29.1471 8.33801 29.2987 8.30937 29.4475C8.17504 30.0218 7.70775 30.3855 7.19065 30.3333C6.67379 30.2812 6.25705 29.7995 6.24352 29.2186C6.23118 28.6971 6.23886 28.1756 6.23886 27.654V23.0295V16.9067C6.23886 16.1896 6.74734 15.6681 7.37249 15.7151C7.91868 15.7561 8.33732 16.2587 8.34054 16.9113C8.34845 18.3574 8.34449 19.8013 8.34449 21.2445L8.34453 21.2446ZM14.6027 23.0627V29.055C14.6071 29.1742 14.5999 29.2937 14.5813 29.4115C14.4653 29.991 13.9822 30.3835 13.4568 30.3346C12.9432 30.2864 12.5116 29.8072 12.5018 29.2264C12.4869 28.3254 12.4967 27.4246 12.4967 26.5235V17.0797L12.4964 17.0799C12.4901 16.9388 12.4967 16.7977 12.516 16.658C12.6249 16.0753 13.0976 15.6802 13.6274 15.7179C14.1576 15.7559 14.5929 16.2474 14.5995 16.8431C14.61 17.9286 14.6041 19.014 14.6041 20.1026C14.6044 21.0884 14.6044 22.0751 14.6041 23.0629L14.6027 23.0627ZM20.8609 23.0268V29.0502C20.8658 29.1798 20.8569 29.3098 20.8341 29.4373C20.7037 30.0241 20.222 30.3956 19.6926 30.333C19.1632 30.2703 18.7604 29.7789 18.7585 29.1712C18.7527 27.4991 18.7585 25.8277 18.7585 24.1556V17.1208V17.1211C18.7543 16.9905 18.7576 16.8601 18.7683 16.7299C18.8335 16.1367 19.3043 15.7006 19.8479 15.7177C20.3694 15.7333 20.8206 16.1954 20.8583 16.7698C20.8779 17.0722 20.8655 17.3793 20.8655 17.6824C20.8623 19.4639 20.8623 21.2664 20.8623 23.0265L20.8609 23.0268Z" fill="#FE5253"/>
<path d="M27.0999 6.66878C27.1051 5.40737 26.3887 4.68309 25.1294 4.68238H19.4703V4.68261C19.522 4.5201 19.5483 4.35061 19.5485 4.17996V2.16631C19.5483 1.72419 19.3723 1.30048 19.0596 0.987989C18.7469 0.675497 18.323 0.5 17.8811 0.5H9.22097C8.77907 0.5 8.35513 0.675545 8.04246 0.987989C7.72979 1.30043 7.55378 1.72419 7.55354 2.16631V4.17924C7.55354 4.35013 7.58008 4.51985 7.63177 4.68259H1.84624C0.903579 4.68259 0.182519 5.2693 0.0267794 6.17472C-0.0116356 6.39707 0.00256626 6.63104 0.00256626 6.85662C0.00256626 8.11988 0.714508 8.83254 1.97848 8.83254H15.5998H25.278C26.2272 8.83254 26.9442 8.21578 27.0811 7.28617C27.1019 7.08106 27.1082 6.87478 27.1 6.66876L27.0999 6.66878Z" fill="#FE5253"/>
</svg>
