<svg width="25" height="30" viewBox="0 0 25 30" fill="none" xmlns="http://www.w3.org/2000/svg">
<path d="M22.1909 9.6112H2.66858C2.66082 9.77819 2.64691 9.94519 2.64691 10.0983V14.8332C2.64691 18.2738 2.63975 21.7165 2.65029 25.1574V25.1572C2.64591 26.0509 2.94014 26.9203 3.48647 27.6274C4.03296 28.3345 4.79978 28.8387 5.66553 29.0599C5.87865 29.1156 6.09574 29.1579 6.31127 29.2053H18.5553C18.6143 29.1816 18.6751 29.1631 18.7374 29.1496C19.6982 29.0218 20.5803 28.5498 21.22 27.8214C21.8595 27.093 22.2136 26.1574 22.2164 25.1878C22.2246 20.1432 22.2246 15.0946 22.2164 10.0429C22.2186 9.90611 22.2007 9.77808 22.1908 9.61108L22.1909 9.6112ZM7.98747 17.8865V24.5052C7.99204 24.6345 7.9819 24.7639 7.95745 24.8909C7.84274 25.3814 7.44373 25.6919 7.00218 25.6473C6.56083 25.6028 6.20498 25.1915 6.19343 24.6955C6.18289 24.2502 6.18945 23.8048 6.18945 23.3595V19.4107V14.1824C6.18945 13.5701 6.62363 13.1248 7.15745 13.1649C7.62384 13.1999 7.98131 13.6291 7.98406 14.1863C7.99082 15.4211 7.98744 16.6541 7.98744 17.8865L7.98747 17.8865ZM13.3313 19.439V24.5558C13.3351 24.6576 13.3289 24.7596 13.313 24.8602C13.214 25.355 12.8015 25.6902 12.3528 25.6484C11.9142 25.6073 11.5457 25.1981 11.5373 24.7021C11.5246 23.9328 11.533 23.1636 11.533 22.3942V14.3301L11.5328 14.3303C11.5274 14.2098 11.533 14.0893 11.5495 13.9701C11.6425 13.4725 12.0461 13.1351 12.4985 13.1673C12.9512 13.1997 13.323 13.6194 13.3285 14.1281C13.3375 15.055 13.3325 15.9818 13.3325 16.9114C13.3327 17.7531 13.3327 18.5957 13.3325 19.4392L13.3313 19.439ZM18.6751 19.4084V24.5517C18.6793 24.6624 18.6718 24.7733 18.6523 24.8823C18.5409 25.3833 18.1296 25.7005 17.6776 25.6471C17.2255 25.5936 16.8815 25.1739 16.88 24.655C16.875 23.2272 16.88 21.8 16.88 20.3722V14.3653V14.3655C16.8764 14.2539 16.8792 14.1426 16.8883 14.0315C16.944 13.5249 17.3459 13.1525 17.8101 13.1671C18.2555 13.1804 18.6407 13.575 18.6729 14.0655C18.6896 14.3237 18.6791 14.586 18.6791 14.8447C18.6763 16.366 18.6763 17.9051 18.6763 19.4081L18.6751 19.4084Z" fill="white"/>
<path d="M24.0029 5.43938C24.0072 4.36226 23.3955 3.7438 22.3202 3.74319H17.4879V3.74339C17.532 3.60463 17.5545 3.4599 17.5547 3.31418V1.59473C17.5545 1.21721 17.4042 0.855402 17.1372 0.588567C16.8702 0.321731 16.5082 0.171875 16.1309 0.171875H8.73606C8.35873 0.171875 7.99672 0.321772 7.72974 0.588567C7.46275 0.855361 7.31245 1.21721 7.31225 1.59473V3.31357C7.31225 3.45949 7.33491 3.60441 7.37905 3.74338H2.4388C1.63387 3.74338 1.01816 4.24436 0.885172 5.0175C0.852369 5.20736 0.864496 5.40715 0.864496 5.59977C0.864496 6.67846 1.47242 7.287 2.55172 7.287H14.183H22.4471C23.2576 7.287 23.8699 6.76035 23.9868 5.96656C24.0045 5.79142 24.0099 5.61528 24.0029 5.43936L24.0029 5.43938Z" fill="white"/>
</svg>
