<svg width="28" height="22" viewBox="0 0 28 22" fill="none" xmlns="http://www.w3.org/2000/svg">
<path d="M27.6182 2.60153C26.6062 3.05167 25.5344 3.34683 24.4376 3.4774C25.5888 2.78885 26.4545 1.69693 26.873 0.405661C25.7822 1.05236 24.5925 1.50786 23.3535 1.75316C22.8318 1.19657 22.2042 0.754068 21.5091 0.452656C20.8139 0.151245 20.0658 -0.0027601 19.3103 3.74402e-05C16.2512 3.74402e-05 13.7712 2.48878 13.7712 5.55502C13.7712 5.98952 13.8198 6.4144 13.9143 6.82002C11.72 6.71373 9.57152 6.14271 7.60599 5.1434C5.64046 4.1441 3.90104 2.73845 2.49871 1.01616C2.00708 1.86096 1.74867 2.82535 1.75081 3.8074C1.75081 5.73652 2.72821 7.43739 4.21321 8.43152C3.33502 8.40264 2.47579 8.16384 1.70491 7.73439V7.80314C1.70491 10.4954 3.61516 12.7408 6.14641 13.2523C5.67069 13.3808 5.1806 13.446 4.68841 13.4461C4.33066 13.4461 3.98371 13.4118 3.64486 13.343C4.00678 14.4539 4.69936 15.4224 5.62642 16.1141C6.55348 16.8057 7.669 17.1862 8.81806 17.2026C6.84716 18.7489 4.42762 19.5842 1.93981 19.5772C1.49161 19.5772 1.05151 19.5497 0.618164 19.5002C3.15786 21.1375 6.10266 22.0045 9.10831 22C19.2968 22 24.8669 13.5341 24.8669 6.19302L24.848 5.4739C25.9345 4.6952 26.8732 3.72194 27.6182 2.60153Z" fill="#104651"/>
</svg>
