<svg width="16" height="15" viewBox="0 0 16 15" fill="none" xmlns="http://www.w3.org/2000/svg">
<path fill-rule="evenodd" clip-rule="evenodd" d="M2.24142 12.0309L3.24961 13.8302H13.3416L14.3416 12.0308L2.24142 12.0309ZM7.02446 9.80103C7.02446 9.86386 7.04667 9.92415 7.09108 9.98169C7.13572 10.0278 7.19106 10.0505 7.25779 10.0505H9.32449C9.39111 10.0505 9.44645 10.0276 9.4912 9.98169C9.5355 9.92415 9.55782 9.86386 9.55782 9.80103V6.70136H10.6744C10.7632 6.70136 10.83 6.65836 10.8742 6.57223C10.9132 6.49752 10.9077 6.41728 10.8576 6.33115L8.47443 2.88707C8.42979 2.81824 8.36608 2.78377 8.28272 2.78377C8.19937 2.78377 8.13822 2.81801 8.09939 2.88707L5.72435 6.33115C5.67413 6.41728 5.66867 6.49764 5.70738 6.57223C5.74633 6.65836 5.81318 6.70136 5.90758 6.70136H7.02445L7.02446 9.80103ZM3.00779 14.8032L2.95769 14.8203C2.84666 14.8203 2.74668 14.7829 2.65787 14.7087C2.56904 14.634 2.51068 14.5422 2.48267 14.4328L0.982724 11.7381C0.855188 11.5718 0.791016 11.3967 0.791016 11.2129V1.62141C0.791016 1.39738 0.868793 1.20508 1.02434 1.04422C1.16885 0.895267 1.3522 0.820557 1.57446 0.820557H15.0078C15.2301 0.820557 15.4134 0.895271 15.5579 1.04422C15.7132 1.20494 15.791 1.39736 15.791 1.62141V11.2129C15.791 11.4193 15.7302 11.5946 15.6077 11.7383L14.041 14.5538C13.9522 14.7317 13.8104 14.8206 13.6162 14.8206H3.00785L3.00779 14.8032Z" fill="white"/>
</svg>
