<svg width="32" height="32" viewBox="0 0 32 32" fill="none" xmlns="http://www.w3.org/2000/svg">
<rect x="31.0898" y="31.9226" width="31" height="31" rx="5" transform="rotate(-180 31.0898 31.9226)" fill="#16515C"/>
<path fill-rule="evenodd" clip-rule="evenodd" d="M9.54025 20.633L10.5484 22.4323H20.6404L21.6405 20.6329L9.54025 20.633ZM14.3233 18.4031C14.3233 18.4659 14.3455 18.5262 14.3899 18.5837C14.4345 18.6299 14.4899 18.6526 14.5566 18.6526H16.6233C16.6899 18.6526 16.7453 18.6296 16.79 18.5837C16.8343 18.5262 16.8566 18.4659 16.8566 18.4031V15.3034H17.9732C18.062 15.3034 18.1289 15.2604 18.173 15.1743C18.212 15.0996 18.2065 15.0193 18.1564 14.9332L15.7733 11.4891C15.7286 11.4203 15.6649 11.3858 15.5816 11.3858C15.4982 11.3858 15.437 11.4201 15.3982 11.4891L13.0232 14.9332C12.973 15.0193 12.9675 15.0997 13.0062 15.1743C13.0452 15.2604 13.112 15.3034 13.2064 15.3034H14.3233L14.3233 18.4031ZM10.3066 23.4053L10.2565 23.4224C10.1455 23.4224 10.0455 23.385 9.95669 23.3108C9.86787 23.236 9.80951 23.1443 9.78149 23.0348L8.28155 20.3402C8.15402 20.1738 8.08984 19.9987 8.08984 19.8149V10.2235C8.08984 9.99944 8.16762 9.80713 8.32317 9.64627C8.46768 9.49732 8.65103 9.42261 8.87329 9.42261H22.3066C22.5289 9.42261 22.7123 9.49732 22.8567 9.64627C23.0121 9.80699 23.0898 9.99941 23.0898 10.2235V19.8149C23.0898 20.0214 23.029 20.1966 22.9065 20.3403L21.3398 23.1558C21.251 23.3337 21.1093 23.4226 20.915 23.4226H10.3067L10.3066 23.4053Z" fill="white"/>
</svg>
