<svg width="25" height="29" viewBox="0 0 25 29" fill="none" xmlns="http://www.w3.org/2000/svg">
<path d="M12.501 4.89775e-06C14.1469 4.89775e-06 15.6376 0.671848 16.7169 1.75771C17.799 2.84358 18.4668 4.34434 18.4668 6.00196C18.4668 7.65788 17.798 9.15755 16.7197 10.2434C15.6376 11.3321 14.1469 12.0039 12.501 12.0039C10.855 12.0039 9.36437 11.331 8.28504 10.2462C7.20403 9.15755 6.53515 7.65788 6.53515 6.00196C6.53515 4.34434 7.20295 2.84358 8.28227 1.75771L8.31961 1.72378C9.39617 0.658184 10.8733 4.89775e-06 12.501 4.89775e-06ZM0.0008506 26.4317V25.6231C0.0008506 19.7247 3.25241 15.9462 7.41251 14.2913C9.0192 13.6526 10.7608 13.3331 12.4999 13.3331C14.2398 13.3331 15.9814 13.6525 17.5873 14.2913C21.7484 15.9461 25 19.7251 25 25.6231V26.4317C25 27.1394 24.7126 27.782 24.251 28.2464C23.7866 28.7108 23.1479 29 22.4472 29H2.55279C1.87038 29 1.2482 28.7264 0.788285 28.2831L0.749041 28.2473C0.287441 27.7829 0 27.1403 0 26.4326L0.0008506 26.4317Z" fill="#7E9DA3"/>
</svg>
