<svg width="25" height="25" viewBox="0 0 25 25" fill="none" xmlns="http://www.w3.org/2000/svg">
<path d="M17.8812 5.96855C17.8812 7.45198 17.2919 8.87476 16.2429 9.92373C15.194 10.9727 13.7712 11.562 12.2877 11.562C10.8043 11.562 9.38154 10.9727 8.33258 9.92373C7.28361 8.87476 6.69432 7.45198 6.69432 5.96855C6.69432 4.48513 7.28361 3.06234 8.33258 2.01338C9.38154 0.964419 10.8043 0.375122 12.2877 0.375122C13.7707 0.376906 15.1924 0.966747 16.241 2.01534C17.2896 3.06394 17.8794 4.48568 17.8812 5.96855ZM9.89056 17.9545C9.89128 16.2056 10.4697 14.5062 11.5361 13.1199C10.6536 13.0265 9.79623 12.7691 9.00803 12.3608H4.18673C3.11315 12.4081 2.10204 12.8782 1.37412 13.6688C0.646243 14.4591 0.260593 15.5056 0.301825 16.5793C0.304143 18.6387 1.12317 20.6129 2.57933 22.0691C4.03568 23.5252 6.00996 24.3442 8.06912 24.3466H13.1073C12.1101 23.6053 11.3002 22.6412 10.7417 21.5313C10.1832 20.4215 9.89184 19.1969 9.89056 17.9545Z" fill="#104651"/>
<path fill-rule="evenodd" clip-rule="evenodd" d="M17.8809 24.347C21.4102 24.347 24.2734 21.4851 24.2734 17.9548C24.2734 14.4246 21.4102 11.5626 17.8809 11.5626C14.3496 11.5626 11.4883 14.4246 11.4883 17.9548C11.4883 21.4851 14.3496 24.347 17.8809 24.347ZM17.2402 20.6134L21.4941 16.1874C21.7324 15.941 21.7324 15.5428 21.5039 15.2965C21.2676 15.05 20.8887 15.05 20.6523 15.2965L16.8223 19.2771L15.1172 17.4952C14.8789 17.2489 14.5 17.2489 14.2637 17.4952C14.0273 17.7417 14.0273 18.1398 14.2637 18.3862L16.3867 20.6134C16.5059 20.7374 16.6621 20.7991 16.8164 20.7981C16.9688 20.7972 17.1211 20.7357 17.2402 20.6134Z" fill="#104651"/>
</svg>
