<svg width="24" height="22" viewBox="0 0 24 22" fill="none" xmlns="http://www.w3.org/2000/svg">
<path d="M4.89924 11.9681H9.21297V10.6299C9.21297 10.1866 9.5759 9.82365 10.0192 9.82365H13.9808C14.4242 9.82365 14.7871 10.1866 14.7871 10.6299V11.9681H19.0992C20.7842 11.9681 22.7641 10.2724 23.9975 8.9593L23.9977 5.76629C23.9977 4.79023 23.2066 3.99908 22.2305 3.99908H17.5832L17.5834 2.11138C17.5834 0.946738 16.6351 0 15.4731 0H8.52692C7.36228 0 6.41473 0.947555 6.41473 2.11138V3.99928L1.76721 3.99908C0.791153 3.99908 0 4.79019 0 5.76629V8.95828C1.23625 10.2716 3.21635 11.9681 4.89934 11.9681L4.89924 11.9681ZM7.70258 2.11153C7.70258 1.65661 8.0727 1.28651 8.52683 1.28651H15.473C15.9271 1.28651 16.2972 1.65663 16.2972 2.11153V3.99944H7.70278L7.70258 2.11153Z" fill="#104651"/>
<path d="M19.0985 13.2543H14.7864V14.5925C14.7864 15.0358 14.4234 15.3996 13.9801 15.3996H10.0185C9.57517 15.3996 9.21224 15.0358 9.21224 14.5925V13.2543H4.89832C3.11415 13.2543 1.30848 11.9743 0 10.7666V19.4571C0 20.4324 0.791102 21.2233 1.76721 21.2233H22.2323C23.2083 21.2233 23.9995 20.4322 23.9995 19.4571V10.7666C22.688 11.9743 20.8843 13.2543 19.0984 13.2543H19.0985Z" fill="#104651"/>
</svg>
