<svg width="24" height="24" viewBox="0 0 24 24" fill="none" xmlns="http://www.w3.org/2000/svg">
<path fill-rule="evenodd" clipRule="evenodd" d="M0.424969 11.6995C0.424969 5.24837 5.71308 0 12.213 0C18.7124 0 24 5.24837 24 11.6995C24 18.1499 18.7124 23.3977 12.2131 23.3976C10.2638 23.3976 8.33773 22.917 6.63357 22.0065L0.406034 23.9854C0.375021 23.9953 0.343229 24 0.31167 24C0.229307 24 0.148657 23.9673 0.0892028 23.9066C0.00683905 23.8228 -0.0212129 23.6996 0.0165014 23.5883L2.04115 17.6159C0.983359 15.8284 0.424969 13.786 0.424969 11.6995ZM17.7001 13.762C17.7337 13.7785 17.7542 13.7885 17.7588 13.7907L17.7589 13.7908C17.988 13.9008 18.169 13.9877 18.274 14.1603C18.4273 14.4142 18.3666 15.114 18.1361 15.7544C17.8435 16.5675 16.5571 17.2341 15.9718 17.286L15.8859 17.2942C15.7506 17.3075 15.5971 17.3225 15.4054 17.3225H15.4054C14.9492 17.3225 14.1468 17.2443 12.4524 16.5675C10.6924 15.8644 8.95621 14.357 7.56351 12.3231C7.55946 12.3172 7.55562 12.3116 7.552 12.3063C7.53406 12.28 7.52132 12.2613 7.5138 12.2513C7.15013 11.772 6.30312 10.5117 6.30312 9.17702C6.30312 7.69401 7.01299 6.85073 7.4326 6.58619C7.82829 6.33676 8.72323 6.21894 8.88756 6.212C8.98503 6.2079 8.99532 6.20676 9.00564 6.20644C9.00961 6.20632 9.01358 6.20632 9.02252 6.20632C9.36936 6.20632 9.61894 6.41678 9.80782 6.86881C9.82668 6.91378 9.88358 7.05071 9.95975 7.23399C10.2009 7.81421 10.6351 8.85902 10.6665 8.9219C10.7169 9.02079 10.8729 9.32702 10.6903 9.6899L10.6511 9.76868L10.6509 9.76913C10.5762 9.92058 10.5116 10.0514 10.3668 10.2199C10.3203 10.2736 10.2729 10.3307 10.2256 10.3876L10.2253 10.388C10.1255 10.5081 10.0224 10.6322 9.9272 10.7264C9.89463 10.7591 9.83151 10.8223 9.82466 10.8475C9.82468 10.8475 9.82471 10.8477 9.82477 10.8481C9.82536 10.8519 9.82875 10.8737 9.85395 10.9166C10.0493 11.2473 11.474 13.2079 13.3509 14.0232C13.4328 14.0588 13.7036 14.1703 13.7193 14.1703C13.7367 14.1703 13.7659 14.1411 13.7872 14.1167C13.9507 13.932 14.4798 13.3135 14.6546 13.0537C14.8092 12.8225 15.0076 12.7047 15.2439 12.7047C15.3885 12.7047 15.5245 12.7492 15.6514 12.7948C15.9322 12.8958 17.3864 13.6083 17.7001 13.762Z" fill="#587D85"/>
</svg>
