<svg width="30" height="20" viewBox="0 0 30 20" fill="none" xmlns="http://www.w3.org/2000/svg">
<path d="M24.7103 0H5.5257H5.52601C4.2242 0 2.97593 0.514944 2.05566 1.43198C1.13506 2.34873 0.618164 3.59222 0.618164 4.88905V15.1113V15.111C0.618164 16.4078 1.13509 17.6513 2.05566 18.568C2.97593 19.4851 4.2242 20 5.52601 20H24.7106H24.7103C26.0121 20 27.2604 19.4851 28.1807 18.568C29.1013 17.6513 29.6182 16.4078 29.6182 15.111V4.88874V4.88905C29.6182 3.59222 29.1012 2.34873 28.1807 1.43198C27.2604 0.51492 26.0121 0 24.7103 0ZM16.3449 12.2222L11.9951 14.4444V5.55555L20.6951 10L16.3449 12.2222Z" fill="#104651"/>
</svg>
